<svg width="115" height="103" viewBox="0 0 115 103" fill="none" xmlns="http://www.w3.org/2000/svg">
<path d="M9.77062 11.3814L45.5474 24.9743L28.6242 44.6874L9.77062 11.3814Z" fill="white"/>
<circle cx="64.4995" cy="52.5" r="50.5" fill="white"/>
<path d="M40.3014 48.32C37.7947 48.32 35.8081 47.6267 34.3414 46.24C32.8747 44.8267 32.1414 42.9333 32.1414 40.56C32.1414 39.9467 32.1681 39.48 32.2214 39.16L34.5014 20.48C34.5281 20.3467 34.5814 20.24 34.6614 20.16C34.7681 20.0533 34.8881 20 35.0214 20H40.5414C40.6747 20 40.7814 20.0533 40.8614 20.16C40.9414 20.24 40.9681 20.3467 40.9414 20.48L38.6214 39.48C38.5947 39.6133 38.5814 39.8 38.5814 40.04C38.5814 40.84 38.7947 41.48 39.2214 41.96C39.6747 42.4133 40.2747 42.64 41.0214 42.64C41.8481 42.64 42.5414 42.3467 43.1014 41.76C43.6881 41.1733 44.0347 40.4133 44.1414 39.48L46.5014 20.48C46.5281 20.3467 46.5814 20.24 46.6614 20.16C46.7681 20.0533 46.8881 20 47.0214 20H52.5414C52.6747 20 52.7814 20.0533 52.8614 20.16C52.9414 20.24 52.9681 20.3467 52.9414 20.48L50.6214 39.16C50.4081 40.9733 49.8347 42.5733 48.9014 43.96C47.9681 45.3467 46.7547 46.4267 45.2614 47.2C43.7947 47.9467 42.1414 48.32 40.3014 48.32ZM61.3476 48.32C58.761 48.32 56.721 47.6933 55.2276 46.44C53.7343 45.16 52.9876 43.4533 52.9876 41.32C52.9876 41.1067 53.0143 40.76 53.0676 40.28L53.2276 39.24C53.2543 39.1067 53.3076 39 53.3876 38.92C53.4943 38.8133 53.6143 38.76 53.7476 38.76H59.1876C59.321 38.76 59.4276 38.8133 59.5076 38.92C59.5876 39 59.6143 39.1067 59.5876 39.24L59.5076 39.96C59.401 40.7067 59.601 41.3467 60.1076 41.88C60.6143 42.3867 61.3476 42.64 62.3076 42.64C63.1876 42.64 63.8543 42.4 64.3076 41.92C64.7876 41.4133 65.0276 40.8267 65.0276 40.16C65.0276 39.5467 64.761 39.0267 64.2276 38.6C63.6943 38.1733 62.6676 37.5467 61.1476 36.72C59.8676 36.0267 58.7743 35.3733 57.8676 34.76C56.9876 34.12 56.2276 33.2933 55.5876 32.28C54.9476 31.2667 54.6276 30.08 54.6276 28.72C54.6276 26.96 55.0676 25.4 55.9476 24.04C56.8276 22.6533 58.0276 21.5867 59.5476 20.84C61.0676 20.0667 62.7476 19.68 64.5876 19.68C67.0943 19.68 69.0943 20.3467 70.5876 21.68C72.1076 23.0133 72.8676 24.7733 72.8676 26.96C72.8676 27.1733 72.841 27.5467 72.7876 28.08L72.7076 28.84C72.681 28.9733 72.6143 29.0933 72.5076 29.2C72.401 29.28 72.281 29.32 72.1476 29.32H66.7476C66.4543 29.32 66.3076 29.16 66.3076 28.84L66.4276 28.16C66.5076 27.3867 66.3076 26.7333 65.8276 26.2C65.3476 25.64 64.641 25.36 63.7076 25.36C62.9876 25.36 62.3876 25.56 61.9076 25.96C61.4543 26.36 61.1743 26.9067 61.0676 27.6C61.0143 28.1067 61.1076 28.56 61.3476 28.96C61.5876 29.3333 61.9876 29.7067 62.5476 30.08C63.1076 30.4533 63.9743 30.96 65.1476 31.6L66.2676 32.28C67.4676 33.0267 68.401 33.6667 69.0676 34.2C69.761 34.7333 70.3476 35.4133 70.8276 36.24C71.3076 37.0667 71.5476 38.04 71.5476 39.16C71.5476 39.3733 71.521 39.72 71.4676 40.2C71.1476 42.7067 70.0543 44.6933 68.1876 46.16C66.3476 47.6 64.0676 48.32 61.3476 48.32ZM87.8573 48C87.564 48 87.4173 47.8533 87.4173 47.56L87.0573 44.04C87.0307 43.9333 86.9773 43.88 86.8973 43.88H80.3373C80.2573 43.88 80.1773 43.9333 80.0973 44.04L78.8973 47.56C78.8173 47.8533 78.6307 48 78.3373 48H72.6573C72.3373 48 72.2307 47.8267 72.3373 47.48L82.5773 20.4C82.684 20.1333 82.884 20 83.1773 20H89.9773C90.2707 20 90.4307 20.1333 90.4573 20.4L94.0973 47.48V47.56C94.0973 47.8533 93.9373 48 93.6173 48H87.8573ZM81.9373 38.56C81.9107 38.6933 81.9773 38.76 82.1373 38.76H86.2573C86.4173 38.76 86.4973 38.68 86.4973 38.52L85.5373 28.6C85.5373 28.4933 85.5107 28.44 85.4573 28.44C85.404 28.44 85.3507 28.4933 85.2973 28.6L81.9373 38.56Z" fill="black"/>
<path d="M51.3919 62.632C51.3706 62.6533 51.3653 62.6747 51.3759 62.696C51.3866 62.7173 51.4079 62.728 51.4399 62.728H54.9759C55.0293 62.728 55.0719 62.7493 55.1039 62.792C55.1359 62.824 55.1466 62.8667 55.1359 62.92L54.8959 64.808C54.8959 64.8613 54.8746 64.9093 54.8319 64.952C54.7893 64.984 54.7413 65 54.6879 65H47.9999C47.9466 65 47.9039 64.984 47.8719 64.952C47.8399 64.9093 47.8293 64.8613 47.8399 64.808L48.0639 62.952C48.0746 62.8667 48.1173 62.7867 48.1919 62.712C49.8559 61.0907 51.0453 59.88 51.7599 59.08C52.1759 58.632 52.4959 58.232 52.7199 57.88C52.9546 57.528 53.0879 57.208 53.1199 56.92C53.1306 56.8773 53.1359 56.8133 53.1359 56.728C53.1359 56.4827 53.0666 56.2907 52.9279 56.152C52.7893 56.0133 52.6026 55.944 52.3679 55.944C52.1013 55.944 51.8719 56.0347 51.6799 56.216C51.4986 56.3867 51.3919 56.6107 51.3599 56.888L51.2959 57.432C51.2853 57.4853 51.2586 57.5333 51.2159 57.576C51.1839 57.608 51.1413 57.624 51.0879 57.624H48.8479C48.7946 57.624 48.7519 57.608 48.7199 57.576C48.6879 57.5333 48.6773 57.4853 48.6879 57.432L48.7839 56.632C48.9546 55.7467 49.4026 55.032 50.1279 54.488C50.8533 53.944 51.7119 53.672 52.7039 53.672C53.6426 53.672 54.3839 53.928 54.9279 54.44C55.4826 54.952 55.7599 55.6187 55.7599 56.44C55.7599 57.048 55.6319 57.6187 55.3759 58.152C55.1306 58.6747 54.7413 59.24 54.2079 59.848C53.8666 60.2427 53.4346 60.6907 52.9119 61.192C52.3999 61.6827 51.8933 62.1627 51.3919 62.632ZM59.2018 65.192C58.2418 65.192 57.4845 64.9253 56.9298 64.392C56.3858 63.848 56.1138 63.112 56.1138 62.184C56.1138 61.928 56.1245 61.7307 56.1458 61.592L56.6738 57.208C56.8125 56.12 57.2392 55.256 57.9538 54.616C58.6685 53.9653 59.5592 53.64 60.6258 53.64C61.5965 53.64 62.3592 53.9067 62.9138 54.44C63.4792 54.9733 63.7618 55.6987 63.7618 56.616C63.7618 56.872 63.7512 57.0693 63.7298 57.208L63.1858 61.592C63.0472 62.6907 62.6152 63.5653 61.8898 64.216C61.1752 64.8667 60.2792 65.192 59.2018 65.192ZM59.4898 62.904C59.7885 62.904 60.0338 62.8027 60.2258 62.6C60.4285 62.3867 60.5512 62.0987 60.5938 61.736L61.1698 57.096C61.1805 57.0427 61.1858 56.9733 61.1858 56.888C61.1858 56.5893 61.1112 56.3547 60.9618 56.184C60.8125 56.0133 60.6098 55.928 60.3538 55.928C60.0765 55.928 59.8365 56.0347 59.6338 56.248C59.4312 56.4507 59.3085 56.7333 59.2658 57.096L58.7058 61.736C58.6952 61.7893 58.6898 61.8693 58.6898 61.976C58.6898 62.264 58.7592 62.4933 58.8978 62.664C59.0472 62.824 59.2445 62.904 59.4898 62.904ZM67.2826 62.632C67.2612 62.6533 67.2559 62.6747 67.2666 62.696C67.2772 62.7173 67.2986 62.728 67.3306 62.728H70.8666C70.9199 62.728 70.9626 62.7493 70.9946 62.792C71.0266 62.824 71.0372 62.8667 71.0266 62.92L70.7866 64.808C70.7866 64.8613 70.7652 64.9093 70.7226 64.952C70.6799 64.984 70.6319 65 70.5786 65H63.8906C63.8372 65 63.7946 64.984 63.7626 64.952C63.7306 64.9093 63.7199 64.8613 63.7306 64.808L63.9546 62.952C63.9652 62.8667 64.0079 62.7867 64.0826 62.712C65.7466 61.0907 66.9359 59.88 67.6506 59.08C68.0666 58.632 68.3866 58.232 68.6106 57.88C68.8452 57.528 68.9786 57.208 69.0106 56.92C69.0212 56.8773 69.0266 56.8133 69.0266 56.728C69.0266 56.4827 68.9572 56.2907 68.8186 56.152C68.6799 56.0133 68.4932 55.944 68.2586 55.944C67.9919 55.944 67.7626 56.0347 67.5706 56.216C67.3892 56.3867 67.2826 56.6107 67.2506 56.888L67.1866 57.432C67.1759 57.4853 67.1492 57.5333 67.1066 57.576C67.0746 57.608 67.0319 57.624 66.9786 57.624H64.7386C64.6852 57.624 64.6426 57.608 64.6106 57.576C64.5786 57.5333 64.5679 57.4853 64.5786 57.432L64.6746 56.632C64.8452 55.7467 65.2932 55.032 66.0186 54.488C66.7439 53.944 67.6026 53.672 68.5946 53.672C69.5332 53.672 70.2746 53.928 70.8186 54.44C71.3732 54.952 71.6506 55.6187 71.6506 56.44C71.6506 57.048 71.5226 57.6187 71.2666 58.152C71.0212 58.6747 70.6319 59.24 70.0986 59.848C69.7572 60.2427 69.3252 60.6907 68.8026 61.192C68.2906 61.6827 67.7839 62.1627 67.2826 62.632ZM79.9724 59.848C80.0258 59.848 80.0684 59.8693 80.1004 59.912C80.1324 59.944 80.1431 59.9867 80.1325 60.04L79.8924 62.04C79.8818 62.0933 79.8551 62.1413 79.8124 62.184C79.7804 62.216 79.7378 62.232 79.6844 62.232H79.0924C79.0391 62.232 79.0124 62.2587 79.0124 62.312L78.7084 64.808C78.6978 64.8613 78.6711 64.9093 78.6284 64.952C78.5858 64.984 78.5378 65 78.4844 65H76.2924C76.2391 65 76.1964 64.984 76.1644 64.952C76.1324 64.9093 76.1218 64.8613 76.1324 64.808L76.4364 62.312C76.4364 62.2587 76.4098 62.232 76.3564 62.232H71.9724C71.9191 62.232 71.8764 62.216 71.8444 62.184C71.8124 62.1413 71.8018 62.0933 71.8124 62.04L72.0044 60.472C72.0044 60.4187 72.0311 60.3387 72.0844 60.232L75.1564 53.944C75.2098 53.848 75.2898 53.8 75.3964 53.8H77.7484C77.8978 53.8 77.9404 53.8747 77.8764 54.024L75.0924 59.752C75.0604 59.816 75.0764 59.848 75.1404 59.848H76.6604C76.7138 59.848 76.7404 59.8213 76.7404 59.768L76.9324 58.184C76.9431 58.1307 76.9644 58.088 76.9964 58.056C77.0391 58.0133 77.0871 57.992 77.1404 57.992H79.3484C79.4018 57.992 79.4444 58.0133 79.4764 58.056C79.5084 58.088 79.5191 58.1307 79.5084 58.184L79.3164 59.768C79.3164 59.8213 79.3378 59.848 79.3804 59.848H79.9724ZM41.4689 81C41.3622 81 41.2982 80.9467 41.2769 80.84L40.3489 76.6C40.3276 76.5573 40.3009 76.536 40.2689 76.536H39.6449C39.6236 76.536 39.6022 76.5467 39.5809 76.568C39.5702 76.5787 39.5649 76.5947 39.5649 76.616L39.0529 80.808C39.0422 80.8613 39.0156 80.9093 38.9729 80.952C38.9409 80.984 38.8982 81 38.8449 81H36.6369C36.5836 81 36.5409 80.984 36.5089 80.952C36.4769 80.9093 36.4662 80.8613 36.4769 80.808L37.8049 69.992C37.8156 69.9387 37.8369 69.896 37.8689 69.864C37.9116 69.8213 37.9596 69.8 38.0129 69.8H41.9809C42.8556 69.8 43.5489 70.0667 44.0609 70.6C44.5729 71.1227 44.8289 71.8267 44.8289 72.712C44.8289 72.9573 44.8182 73.144 44.7969 73.272C44.7222 73.9333 44.5142 74.52 44.1729 75.032C43.8316 75.5333 43.3942 75.912 42.8609 76.168C42.8289 76.1787 42.8129 76.2107 42.8129 76.264L43.9649 80.776V80.824C43.9649 80.9413 43.9009 81 43.7729 81H41.4689ZM40.2049 72.072C40.1622 72.072 40.1302 72.0987 40.1089 72.152L39.8369 74.424C39.8156 74.4773 39.8369 74.504 39.9009 74.504H40.9889C41.3622 74.504 41.6662 74.376 41.9009 74.12C42.1356 73.864 42.2529 73.5173 42.2529 73.08C42.2529 72.7707 42.1622 72.5253 41.9809 72.344C41.8102 72.1627 41.5809 72.072 41.2929 72.072H40.2049ZM52.2424 75.736C52.1891 76.3867 52.1251 76.9467 52.0504 77.416C52.0397 77.544 51.9704 77.608 51.8424 77.608H47.7784C47.7251 77.608 47.6984 77.6347 47.6984 77.688V77.832C47.6984 77.9707 47.7037 78.072 47.7144 78.136C47.7357 78.36 47.8104 78.536 47.9384 78.664C48.0771 78.792 48.2637 78.856 48.4984 78.856C48.9251 78.856 49.2451 78.6747 49.4584 78.312C49.5117 78.2053 49.5917 78.1627 49.6984 78.184L51.6344 78.584C51.7731 78.6053 51.8104 78.68 51.7464 78.808C51.4051 79.5653 50.9357 80.1413 50.3384 80.536C49.7517 80.9307 49.0637 81.128 48.2744 81.128C47.2077 81.128 46.4131 80.872 45.8904 80.36C45.3677 79.848 45.1064 79.1013 45.1064 78.12C45.1064 77.736 45.1384 77.3147 45.2024 76.856C45.2237 76.6213 45.2557 76.3653 45.2984 76.088C45.3517 75.8107 45.4104 75.5707 45.4744 75.368C45.6877 74.5253 46.1251 73.8533 46.7864 73.352C47.4477 72.8507 48.2371 72.6 49.1544 72.6C50.1464 72.6 50.9197 72.888 51.4744 73.464C52.0291 74.04 52.2851 74.7973 52.2424 75.736ZM48.8984 74.872C48.6851 74.872 48.4984 74.9413 48.3384 75.08C48.1784 75.208 48.0611 75.3893 47.9864 75.624L47.8904 76.072C47.8797 76.1253 47.9011 76.152 47.9544 76.152H49.5384C49.5917 76.152 49.6184 76.1253 49.6184 76.072V75.624C49.6077 75.4 49.5384 75.2187 49.4104 75.08C49.2931 74.9413 49.1224 74.872 48.8984 74.872ZM52.6964 81C52.6431 81 52.6004 80.984 52.5684 80.952C52.5364 80.9093 52.5257 80.8613 52.5364 80.808L53.8644 69.992C53.8751 69.9387 53.8964 69.896 53.9284 69.864C53.9711 69.8213 54.0191 69.8 54.0724 69.8H56.2804C56.3337 69.8 56.3764 69.8213 56.4084 69.864C56.4404 69.896 56.4511 69.9387 56.4404 69.992L55.1124 80.808C55.1017 80.8613 55.0751 80.9093 55.0324 80.952C55.0004 80.984 54.9577 81 54.9044 81H52.6964ZM61.4094 72.92C61.4201 72.8667 61.4414 72.824 61.4734 72.792C61.5161 72.7493 61.5641 72.728 61.6174 72.728H63.8254C63.8787 72.728 63.9214 72.7493 63.9534 72.792C63.9854 72.824 63.9961 72.8667 63.9854 72.92L63.0254 80.808C63.0147 80.8613 62.9881 80.9093 62.9454 80.952C62.9134 80.984 62.8707 81 62.8174 81H60.6094C60.5561 81 60.5134 80.984 60.4814 80.952C60.4494 80.9093 60.4387 80.8613 60.4494 80.808L60.5134 80.28C60.5134 80.2053 60.4814 80.2 60.4174 80.264C59.9801 80.84 59.4041 81.128 58.6894 81.128C57.9747 81.128 57.4254 80.8987 57.0414 80.44C56.6574 79.9707 56.4601 79.3253 56.4494 78.504C56.4387 78.4613 56.4334 78.376 56.4334 78.248C56.4334 77.9707 56.4707 77.5067 56.5454 76.856C56.6414 76.024 56.7587 75.448 56.8974 75.128L56.9294 75.032C57.1321 74.2747 57.4787 73.6827 57.9694 73.256C58.4601 72.8187 59.0627 72.6 59.7774 72.6C60.4814 72.6 60.9774 72.872 61.2654 73.416C61.2761 73.448 61.2921 73.4587 61.3134 73.448C61.3347 73.4373 61.3507 73.416 61.3614 73.384L61.4094 72.92ZM60.6574 78.136C60.7747 77.8053 60.8654 77.384 60.9294 76.872C60.9721 76.5627 60.9934 76.2587 60.9934 75.96C60.9934 75.7893 60.9881 75.6613 60.9774 75.576C60.9561 75.3627 60.8867 75.192 60.7694 75.064C60.6521 74.936 60.4921 74.872 60.2894 74.872C60.0974 74.872 59.9214 74.936 59.7614 75.064C59.6121 75.192 59.5054 75.3627 59.4414 75.576C59.3241 75.9067 59.2334 76.3387 59.1694 76.872C59.1267 77.3413 59.1054 77.656 59.1054 77.816C59.1054 77.9653 59.1107 78.072 59.1214 78.136C59.1427 78.36 59.2121 78.536 59.3294 78.664C59.4467 78.792 59.6014 78.856 59.7934 78.856C60.0067 78.856 60.1881 78.792 60.3374 78.664C60.4867 78.5253 60.5934 78.3493 60.6574 78.136ZM69.2029 72.92C69.2029 72.8667 69.2242 72.824 69.2669 72.792C69.3096 72.7493 69.3576 72.728 69.4109 72.728H71.6029C71.7202 72.728 71.7789 72.792 71.7789 72.92L70.8029 80.808C70.7922 80.8613 70.7656 80.9093 70.7229 80.952C70.6909 80.984 70.6482 81 70.5949 81H68.3869C68.3336 81 68.2909 80.984 68.2589 80.952C68.2269 80.9093 68.2162 80.8613 68.2269 80.808L68.2749 80.424C68.2856 80.392 68.2802 80.376 68.2589 80.376C68.2376 80.3653 68.2162 80.376 68.1949 80.408C67.7789 80.888 67.1976 81.128 66.4509 81.128C65.8216 81.128 65.3096 80.9467 64.9149 80.584C64.5309 80.2107 64.3389 79.6667 64.3389 78.952C64.3389 78.856 64.3496 78.6907 64.3709 78.456L65.0589 72.92C65.0589 72.8667 65.0802 72.824 65.1229 72.792C65.1656 72.7493 65.2136 72.728 65.2669 72.728H67.4589C67.5762 72.728 67.6349 72.792 67.6349 72.92L67.0269 77.864C67.0162 77.9173 67.0109 77.992 67.0109 78.088C67.0109 78.3227 67.0696 78.5093 67.1869 78.648C67.3042 78.776 67.4696 78.84 67.6829 78.84C67.8962 78.84 68.0829 78.7707 68.2429 78.632C68.4029 78.4933 68.5096 78.3067 68.5629 78.072L69.2029 72.92ZM77.2078 72.6C77.8904 72.6 78.4184 72.8027 78.7918 73.208C79.1651 73.6027 79.3518 74.168 79.3518 74.904C79.3518 75.1493 79.3411 75.3413 79.3198 75.48L78.6638 80.808C78.6531 80.8613 78.6264 80.9093 78.5838 80.952C78.5518 80.984 78.5091 81 78.4558 81H76.2478C76.1944 81 76.1518 80.984 76.1198 80.952C76.0878 80.9093 76.0771 80.8613 76.0878 80.808L76.6958 75.864C76.7064 75.8213 76.7118 75.752 76.7118 75.656C76.7118 75.4107 76.6478 75.2187 76.5198 75.08C76.4024 74.9413 76.2371 74.872 76.0238 74.872C75.7891 74.872 75.5864 74.9627 75.4158 75.144C75.2558 75.3147 75.1544 75.5547 75.1118 75.864L74.5038 80.808C74.4931 80.8613 74.4664 80.9093 74.4238 80.952C74.3918 80.984 74.3491 81 74.2958 81H72.0878C72.0344 81 71.9918 80.984 71.9598 80.952C71.9278 80.9093 71.9171 80.8613 71.9278 80.808L72.9038 72.92C72.9038 72.8667 72.9251 72.824 72.9678 72.792C73.0104 72.7493 73.0584 72.728 73.1118 72.728H75.3038C75.4211 72.728 75.4798 72.792 75.4798 72.92L75.4158 73.368C75.4158 73.4 75.4264 73.4213 75.4478 73.432C75.4691 73.432 75.4958 73.4107 75.5278 73.368C75.9544 72.856 76.5144 72.6 77.2078 72.6ZM83.037 81.128C82.1197 81.128 81.389 80.8987 80.845 80.44C80.3117 79.9707 80.029 79.3253 79.997 78.504C79.9863 78.4187 79.981 78.28 79.981 78.088C79.981 77.6827 80.0077 77.2667 80.061 76.84C80.125 76.2533 80.237 75.6987 80.397 75.176C80.6423 74.3867 81.0903 73.7627 81.741 73.304C82.3917 72.8347 83.1703 72.6 84.077 72.6C84.9623 72.6 85.677 72.824 86.221 73.272C86.765 73.72 87.0637 74.3227 87.117 75.08C87.1277 75.1333 87.133 75.2187 87.133 75.336C87.133 75.4427 87.1277 75.528 87.117 75.592C87.117 75.7093 87.053 75.7787 86.925 75.8L84.701 76.024H84.669C84.5837 76.024 84.541 75.9813 84.541 75.896V75.8L84.525 75.544C84.5037 75.3413 84.429 75.1813 84.301 75.064C84.173 74.936 84.0023 74.872 83.789 74.872C83.3517 74.872 83.0477 75.1227 82.877 75.624C82.781 75.9547 82.7063 76.36 82.653 76.84C82.5997 77.2667 82.573 77.5973 82.573 77.832C82.573 77.9707 82.5783 78.072 82.589 78.136C82.6103 78.36 82.6797 78.536 82.797 78.664C82.9143 78.792 83.0797 78.856 83.293 78.856C83.5383 78.856 83.7357 78.792 83.885 78.664C84.0343 78.5253 84.1357 78.3493 84.189 78.136C84.2103 78.0827 84.2317 78.0027 84.253 77.896C84.2637 77.832 84.2903 77.784 84.333 77.752C84.3757 77.72 84.4237 77.7093 84.477 77.72L86.637 77.912C86.7757 77.9333 86.829 78.0027 86.797 78.12L86.717 78.488C86.493 79.32 86.0503 79.9707 85.389 80.44C84.7383 80.8987 83.9543 81.128 83.037 81.128ZM92.6453 72.6C93.3279 72.6 93.8559 72.8027 94.2293 73.208C94.6026 73.6027 94.7893 74.168 94.7893 74.904C94.7893 75.1493 94.7786 75.3413 94.7573 75.48L94.1013 80.808C94.0906 80.8613 94.0639 80.9093 94.0213 80.952C93.9893 80.984 93.9466 81 93.8933 81H91.6853C91.6319 81 91.5893 80.984 91.5573 80.952C91.5253 80.9093 91.5146 80.8613 91.5253 80.808L92.1333 75.864C92.1439 75.8213 92.1493 75.752 92.1493 75.656C92.1493 75.4107 92.0853 75.2187 91.9573 75.08C91.8399 74.9413 91.6746 74.872 91.4613 74.872C91.2266 74.872 91.0239 74.9627 90.8533 75.144C90.6933 75.3147 90.5919 75.5547 90.5493 75.864L89.9413 80.808C89.9306 80.8613 89.9039 80.9093 89.8613 80.952C89.8293 80.984 89.7866 81 89.7333 81H87.5253C87.4719 81 87.4293 80.984 87.3973 80.952C87.3653 80.9093 87.3546 80.8613 87.3653 80.808L88.6933 69.992C88.7039 69.9387 88.7253 69.896 88.7573 69.864C88.7999 69.8213 88.8479 69.8 88.9013 69.8H91.1093C91.1626 69.8 91.2053 69.8213 91.2373 69.864C91.2693 69.896 91.2799 69.9387 91.2693 69.992L90.8533 73.368C90.8533 73.4 90.8639 73.4213 90.8853 73.432C90.9066 73.432 90.9333 73.4107 90.9653 73.368C91.3919 72.856 91.9519 72.6 92.6453 72.6Z" fill="black"/>
</svg>
