<svg width="112" height="106" viewBox="0 0 112 106" fill="none" xmlns="http://www.w3.org/2000/svg">
<path d="M101.403 93.6803L65.4521 80.5536L82.1175 60.6222L101.403 93.6803Z" fill="white"/>
<circle cx="50.5" cy="50.5" r="50.5" fill="white"/>
<path d="M37.88 46.32C35.3733 46.32 33.3867 45.6267 31.92 44.24C30.4533 42.8267 29.72 40.9333 29.72 38.56C29.72 37.9467 29.7467 37.48 29.8 37.16L32.08 18.48C32.1067 18.3467 32.16 18.24 32.24 18.16C32.3467 18.0533 32.4667 18 32.6 18H38.12C38.2533 18 38.36 18.0533 38.44 18.16C38.52 18.24 38.5467 18.3467 38.52 18.48L36.2 37.48C36.1733 37.6133 36.16 37.8 36.16 38.04C36.16 38.84 36.3733 39.48 36.8 39.96C37.2533 40.4133 37.8533 40.64 38.6 40.64C39.4267 40.64 40.12 40.3467 40.68 39.76C41.2667 39.1733 41.6133 38.4133 41.72 37.48L44.08 18.48C44.1067 18.3467 44.16 18.24 44.24 18.16C44.3467 18.0533 44.4667 18 44.6 18H50.12C50.2533 18 50.36 18.0533 50.44 18.16C50.52 18.24 50.5467 18.3467 50.52 18.48L48.2 37.16C47.9867 38.9733 47.4133 40.5733 46.48 41.96C45.5467 43.3467 44.3333 44.4267 42.84 45.2C41.3733 45.9467 39.72 46.32 37.88 46.32ZM50.7262 46C50.5929 46 50.4863 45.96 50.4063 45.88C50.3263 45.7733 50.2996 45.6533 50.3263 45.52L53.6463 18.48C53.6729 18.3467 53.7263 18.24 53.8063 18.16C53.9129 18.0533 54.0329 18 54.1663 18H59.6862C59.8196 18 59.9263 18.0533 60.0063 18.16C60.0863 18.24 60.1129 18.3467 60.0863 18.48L58.8863 28.2C58.8596 28.3067 58.8729 28.3733 58.9263 28.4C59.0063 28.4 59.0729 28.36 59.1263 28.28L66.2863 18.32C66.3929 18.1067 66.5796 18 66.8463 18H72.8863C73.1263 18 73.2463 18.08 73.2463 18.24C73.2463 18.32 73.2063 18.4267 73.1263 18.56L64.7263 30.24C64.6996 30.2933 64.6863 30.3867 64.6863 30.52L70.2063 45.44L70.2463 45.6C70.2463 45.8667 70.0863 46 69.7663 46H63.7663C63.5529 46 63.3796 45.88 63.2463 45.64L59.6463 35.64C59.5663 35.5067 59.4729 35.5067 59.3663 35.64L57.7663 37.8C57.7129 37.9067 57.6863 37.9867 57.6863 38.04L56.7663 45.52C56.7396 45.6533 56.6729 45.7733 56.5663 45.88C56.4863 45.96 56.3796 46 56.2463 46H50.7262Z" fill="black"/>
<path d="M36.8924 60.632C36.8711 60.6533 36.8658 60.6747 36.8764 60.696C36.8871 60.7173 36.9084 60.728 36.9404 60.728H40.4764C40.5298 60.728 40.5724 60.7493 40.6044 60.792C40.6364 60.824 40.6471 60.8667 40.6364 60.92L40.3964 62.808C40.3964 62.8613 40.3751 62.9093 40.3324 62.952C40.2898 62.984 40.2418 63 40.1884 63H33.5004C33.4471 63 33.4044 62.984 33.3724 62.952C33.3404 62.9093 33.3298 62.8613 33.3404 62.808L33.5644 60.952C33.5751 60.8667 33.6178 60.7867 33.6924 60.712C35.3564 59.0907 36.5458 57.88 37.2604 57.08C37.6764 56.632 37.9964 56.232 38.2204 55.88C38.4551 55.528 38.5884 55.208 38.6204 54.92C38.6311 54.8773 38.6364 54.8133 38.6364 54.728C38.6364 54.4827 38.5671 54.2907 38.4284 54.152C38.2898 54.0133 38.1031 53.944 37.8684 53.944C37.6018 53.944 37.3724 54.0347 37.1804 54.216C36.9991 54.3867 36.8924 54.6107 36.8604 54.888L36.7964 55.432C36.7858 55.4853 36.7591 55.5333 36.7164 55.576C36.6844 55.608 36.6418 55.624 36.5884 55.624H34.3484C34.2951 55.624 34.2524 55.608 34.2204 55.576C34.1884 55.5333 34.1778 55.4853 34.1884 55.432L34.2844 54.632C34.4551 53.7467 34.9031 53.032 35.6284 52.488C36.3538 51.944 37.2124 51.672 38.2044 51.672C39.1431 51.672 39.8844 51.928 40.4284 52.44C40.9831 52.952 41.2604 53.6187 41.2604 54.44C41.2604 55.048 41.1324 55.6187 40.8764 56.152C40.6311 56.6747 40.2418 57.24 39.7084 57.848C39.3671 58.2427 38.9351 58.6907 38.4124 59.192C37.9004 59.6827 37.3938 60.1627 36.8924 60.632ZM44.7023 63.192C43.7423 63.192 42.985 62.9253 42.4303 62.392C41.8863 61.848 41.6143 61.112 41.6143 60.184C41.6143 59.928 41.625 59.7307 41.6463 59.592L42.1743 55.208C42.313 54.12 42.7396 53.256 43.4543 52.616C44.169 51.9653 45.0596 51.64 46.1263 51.64C47.097 51.64 47.8596 51.9067 48.4143 52.44C48.9796 52.9733 49.2623 53.6987 49.2623 54.616C49.2623 54.872 49.2516 55.0693 49.2303 55.208L48.6863 59.592C48.5476 60.6907 48.1156 61.5653 47.3903 62.216C46.6756 62.8667 45.7796 63.192 44.7023 63.192ZM44.9903 60.904C45.289 60.904 45.5343 60.8027 45.7263 60.6C45.929 60.3867 46.0516 60.0987 46.0943 59.736L46.6703 55.096C46.681 55.0427 46.6863 54.9733 46.6863 54.888C46.6863 54.5893 46.6116 54.3547 46.4623 54.184C46.313 54.0133 46.1103 53.928 45.8543 53.928C45.577 53.928 45.337 54.0347 45.1343 54.248C44.9316 54.4507 44.809 54.7333 44.7663 55.096L44.2063 59.736C44.1956 59.7893 44.1903 59.8693 44.1903 59.976C44.1903 60.264 44.2596 60.4933 44.3983 60.664C44.5476 60.824 44.745 60.904 44.9903 60.904ZM52.7831 60.632C52.7617 60.6533 52.7564 60.6747 52.7671 60.696C52.7777 60.7173 52.7991 60.728 52.8311 60.728H56.3671C56.4204 60.728 56.4631 60.7493 56.4951 60.792C56.5271 60.824 56.5377 60.8667 56.5271 60.92L56.2871 62.808C56.2871 62.8613 56.2657 62.9093 56.2231 62.952C56.1804 62.984 56.1324 63 56.0791 63H49.3911C49.3377 63 49.2951 62.984 49.2631 62.952C49.2311 62.9093 49.2204 62.8613 49.2311 62.808L49.4551 60.952C49.4657 60.8667 49.5084 60.7867 49.5831 60.712C51.2471 59.0907 52.4364 57.88 53.1511 57.08C53.5671 56.632 53.8871 56.232 54.1111 55.88C54.3457 55.528 54.4791 55.208 54.5111 54.92C54.5217 54.8773 54.5271 54.8133 54.5271 54.728C54.5271 54.4827 54.4577 54.2907 54.3191 54.152C54.1804 54.0133 53.9937 53.944 53.7591 53.944C53.4924 53.944 53.2631 54.0347 53.0711 54.216C52.8897 54.3867 52.7831 54.6107 52.7511 54.888L52.6871 55.432C52.6764 55.4853 52.6497 55.5333 52.6071 55.576C52.5751 55.608 52.5324 55.624 52.4791 55.624H50.2391C50.1857 55.624 50.1431 55.608 50.1111 55.576C50.0791 55.5333 50.0684 55.4853 50.0791 55.432L50.1751 54.632C50.3457 53.7467 50.7937 53.032 51.5191 52.488C52.2444 51.944 53.1031 51.672 54.0951 51.672C55.0337 51.672 55.7751 51.928 56.3191 52.44C56.8737 52.952 57.1511 53.6187 57.1511 54.44C57.1511 55.048 57.0231 55.6187 56.7671 56.152C56.5217 56.6747 56.1324 57.24 55.5991 57.848C55.2577 58.2427 54.8257 58.6907 54.3031 59.192C53.7911 59.6827 53.2844 60.1627 52.7831 60.632ZM65.4729 57.848C65.5263 57.848 65.5689 57.8693 65.6009 57.912C65.6329 57.944 65.6436 57.9867 65.6329 58.04L65.3929 60.04C65.3823 60.0933 65.3556 60.1413 65.3129 60.184C65.2809 60.216 65.2383 60.232 65.1849 60.232H64.5929C64.5396 60.232 64.5129 60.2587 64.5129 60.312L64.2089 62.808C64.1983 62.8613 64.1716 62.9093 64.1289 62.952C64.0863 62.984 64.0383 63 63.9849 63H61.7929C61.7396 63 61.6969 62.984 61.6649 62.952C61.6329 62.9093 61.6223 62.8613 61.6329 62.808L61.9369 60.312C61.9369 60.2587 61.9103 60.232 61.8569 60.232H57.4729C57.4196 60.232 57.3769 60.216 57.3449 60.184C57.3129 60.1413 57.3023 60.0933 57.3129 60.04L57.5049 58.472C57.5049 58.4187 57.5316 58.3387 57.5849 58.232L60.6569 51.944C60.7103 51.848 60.7903 51.8 60.8969 51.8H63.2489C63.3983 51.8 63.4409 51.8747 63.3769 52.024L60.5929 57.752C60.5609 57.816 60.5769 57.848 60.6409 57.848H62.1609C62.2143 57.848 62.2409 57.8213 62.2409 57.768L62.4329 56.184C62.4436 56.1307 62.4649 56.088 62.4969 56.056C62.5396 56.0133 62.5876 55.992 62.6409 55.992H64.8489C64.9023 55.992 64.9449 56.0133 64.9769 56.056C65.0089 56.088 65.0196 56.1307 65.0089 56.184L64.8169 57.768C64.8169 57.8213 64.8383 57.848 64.8809 57.848H65.4729ZM21.3049 67.992C21.3049 67.9387 21.3262 67.896 21.3689 67.864C21.4115 67.8213 21.4595 67.8 21.5129 67.8H23.7049C23.8222 67.8 23.8809 67.864 23.8809 67.992L22.5529 78.808C22.5422 78.8613 22.5155 78.9093 22.4729 78.952C22.4302 78.984 22.3822 79 22.3289 79H20.0409C19.9342 79 19.8649 78.952 19.8329 78.856L18.0089 72.936C17.9875 72.904 17.9662 72.8933 17.9449 72.904C17.9235 72.904 17.9129 72.9253 17.9129 72.968L17.2249 78.808C17.2142 78.8613 17.1875 78.9093 17.1449 78.952C17.1129 78.984 17.0702 79 17.0169 79H14.8249C14.7715 79 14.7289 78.984 14.6969 78.952C14.6649 78.9093 14.6542 78.8613 14.6649 78.808L15.9929 67.992C16.0035 67.9387 16.0249 67.896 16.0569 67.864C16.0995 67.8213 16.1475 67.8 16.2009 67.8H18.4889C18.5849 67.8 18.6489 67.848 18.6809 67.944L20.5049 73.832C20.5155 73.864 20.5315 73.88 20.5529 73.88C20.5742 73.88 20.5902 73.8587 20.6009 73.816L21.3049 67.992ZM31.1804 73.736C31.127 74.3867 31.063 74.9467 30.9884 75.416C30.9777 75.544 30.9084 75.608 30.7804 75.608H26.7164C26.663 75.608 26.6364 75.6347 26.6364 75.688V75.832C26.6364 75.9707 26.6417 76.072 26.6524 76.136C26.6737 76.36 26.7484 76.536 26.8764 76.664C27.015 76.792 27.2017 76.856 27.4364 76.856C27.863 76.856 28.183 76.6747 28.3964 76.312C28.4497 76.2053 28.5297 76.1627 28.6364 76.184L30.5724 76.584C30.711 76.6053 30.7484 76.68 30.6844 76.808C30.343 77.5653 29.8737 78.1413 29.2764 78.536C28.6897 78.9307 28.0017 79.128 27.2124 79.128C26.1457 79.128 25.351 78.872 24.8284 78.36C24.3057 77.848 24.0444 77.1013 24.0444 76.12C24.0444 75.736 24.0764 75.3147 24.1404 74.856C24.1617 74.6213 24.1937 74.3653 24.2364 74.088C24.2897 73.8107 24.3484 73.5707 24.4124 73.368C24.6257 72.5253 25.063 71.8533 25.7244 71.352C26.3857 70.8507 27.175 70.6 28.0924 70.6C29.0844 70.6 29.8577 70.888 30.4124 71.464C30.967 72.04 31.223 72.7973 31.1804 73.736ZM27.8364 72.872C27.623 72.872 27.4364 72.9413 27.2764 73.08C27.1164 73.208 26.999 73.3893 26.9244 73.624L26.8284 74.072C26.8177 74.1253 26.839 74.152 26.8924 74.152H28.4764C28.5297 74.152 28.5564 74.1253 28.5564 74.072V73.624C28.5457 73.4 28.4764 73.2187 28.3484 73.08C28.231 72.9413 28.0604 72.872 27.8364 72.872ZM32.9401 79C32.8228 79 32.7588 78.9467 32.7481 78.84L31.7561 70.92V70.888C31.7561 70.7707 31.8201 70.712 31.9481 70.712H34.1241C34.2415 70.712 34.3001 70.7707 34.3001 70.888L34.5401 74.984C34.5401 75.016 34.5508 75.032 34.5721 75.032C34.5935 75.032 34.6095 75.016 34.6201 74.984L35.8841 70.888C35.9161 70.7707 35.9908 70.712 36.1081 70.712H38.0601C38.1135 70.712 38.1561 70.728 38.1881 70.76C38.2201 70.792 38.2361 70.8347 38.2361 70.888L38.5401 75C38.5401 75.032 38.5508 75.048 38.5721 75.048C38.6041 75.048 38.6255 75.032 38.6361 75L39.9161 70.888C39.9481 70.7707 40.0228 70.712 40.1401 70.712L42.2841 70.744C42.4228 70.744 42.4708 70.8133 42.4281 70.952L39.5001 78.84C39.4575 78.9467 39.3775 79 39.2601 79H37.0521C36.9348 79 36.8761 78.9413 36.8761 78.824L36.5401 75.224C36.5295 75.1813 36.5135 75.16 36.4921 75.16C36.4815 75.16 36.4655 75.1813 36.4441 75.224L35.3241 78.824C35.2921 78.9413 35.2175 79 35.1001 79H32.9401ZM45.5094 79C45.456 79 45.4134 78.984 45.3814 78.952C45.3494 78.9093 45.3387 78.8613 45.3494 78.808L46.6774 67.992C46.688 67.9387 46.7094 67.896 46.7414 67.864C46.784 67.8213 46.832 67.8 46.8854 67.8H49.0934C49.1467 67.8 49.1894 67.8213 49.2214 67.864C49.2534 67.896 49.264 67.9387 49.2534 67.992L47.9254 78.808C47.9147 78.8613 47.888 78.9093 47.8454 78.952C47.8134 78.984 47.7707 79 47.7174 79H45.5094ZM54.2224 70.92C54.233 70.8667 54.2544 70.824 54.2864 70.792C54.329 70.7493 54.377 70.728 54.4304 70.728H56.6384C56.6917 70.728 56.7344 70.7493 56.7664 70.792C56.7984 70.824 56.809 70.8667 56.7984 70.92L55.8384 78.808C55.8277 78.8613 55.801 78.9093 55.7584 78.952C55.7264 78.984 55.6837 79 55.6304 79H53.4224C53.369 79 53.3264 78.984 53.2944 78.952C53.2624 78.9093 53.2517 78.8613 53.2624 78.808L53.3264 78.28C53.3264 78.2053 53.2944 78.2 53.2304 78.264C52.793 78.84 52.217 79.128 51.5024 79.128C50.7877 79.128 50.2384 78.8987 49.8544 78.44C49.4704 77.9707 49.273 77.3253 49.2624 76.504C49.2517 76.4613 49.2464 76.376 49.2464 76.248C49.2464 75.9707 49.2837 75.5067 49.3584 74.856C49.4544 74.024 49.5717 73.448 49.7104 73.128L49.7424 73.032C49.945 72.2747 50.2917 71.6827 50.7824 71.256C51.273 70.8187 51.8757 70.6 52.5904 70.6C53.2944 70.6 53.7904 70.872 54.0784 71.416C54.089 71.448 54.105 71.4587 54.1264 71.448C54.1477 71.4373 54.1637 71.416 54.1744 71.384L54.2224 70.92ZM53.4704 76.136C53.5877 75.8053 53.6784 75.384 53.7424 74.872C53.785 74.5627 53.8064 74.2587 53.8064 73.96C53.8064 73.7893 53.801 73.6613 53.7904 73.576C53.769 73.3627 53.6997 73.192 53.5824 73.064C53.465 72.936 53.305 72.872 53.1024 72.872C52.9104 72.872 52.7344 72.936 52.5744 73.064C52.425 73.192 52.3184 73.3627 52.2544 73.576C52.137 73.9067 52.0464 74.3387 51.9824 74.872C51.9397 75.3413 51.9184 75.656 51.9184 75.816C51.9184 75.9653 51.9237 76.072 51.9344 76.136C51.9557 76.36 52.025 76.536 52.1424 76.664C52.2597 76.792 52.4144 76.856 52.6064 76.856C52.8197 76.856 53.001 76.792 53.1504 76.664C53.2997 76.5253 53.4064 76.3493 53.4704 76.136ZM62.0159 70.92C62.0159 70.8667 62.0372 70.824 62.0799 70.792C62.1225 70.7493 62.1705 70.728 62.2239 70.728H64.4159C64.5332 70.728 64.5919 70.792 64.5919 70.92L63.6159 78.808C63.6052 78.8613 63.5785 78.9093 63.5359 78.952C63.5039 78.984 63.4612 79 63.4079 79H61.1999C61.1465 79 61.1039 78.984 61.0719 78.952C61.0399 78.9093 61.0292 78.8613 61.0399 78.808L61.0879 78.424C61.0985 78.392 61.0932 78.376 61.0719 78.376C61.0505 78.3653 61.0292 78.376 61.0079 78.408C60.5919 78.888 60.0105 79.128 59.2639 79.128C58.6345 79.128 58.1225 78.9467 57.7279 78.584C57.3439 78.2107 57.1519 77.6667 57.1519 76.952C57.1519 76.856 57.1625 76.6907 57.1839 76.456L57.8719 70.92C57.8719 70.8667 57.8932 70.824 57.9359 70.792C57.9785 70.7493 58.0265 70.728 58.0799 70.728H60.2719C60.3892 70.728 60.4479 70.792 60.4479 70.92L59.8399 75.864C59.8292 75.9173 59.8239 75.992 59.8239 76.088C59.8239 76.3227 59.8825 76.5093 59.9999 76.648C60.1172 76.776 60.2825 76.84 60.4959 76.84C60.7092 76.84 60.8959 76.7707 61.0559 76.632C61.2159 76.4933 61.3225 76.3067 61.3759 76.072L62.0159 70.92ZM70.0208 70.6C70.7034 70.6 71.2314 70.8027 71.6048 71.208C71.9781 71.6027 72.1648 72.168 72.1648 72.904C72.1648 73.1493 72.1541 73.3413 72.1328 73.48L71.4768 78.808C71.4661 78.8613 71.4394 78.9093 71.3968 78.952C71.3648 78.984 71.3221 79 71.2688 79H69.0608C69.0074 79 68.9648 78.984 68.9328 78.952C68.9008 78.9093 68.8901 78.8613 68.9008 78.808L69.5088 73.864C69.5194 73.8213 69.5248 73.752 69.5248 73.656C69.5248 73.4107 69.4608 73.2187 69.3328 73.08C69.2154 72.9413 69.0501 72.872 68.8368 72.872C68.6021 72.872 68.3994 72.9627 68.2288 73.144C68.0688 73.3147 67.9674 73.5547 67.9248 73.864L67.3168 78.808C67.3061 78.8613 67.2794 78.9093 67.2368 78.952C67.2048 78.984 67.1621 79 67.1088 79H64.9008C64.8474 79 64.8048 78.984 64.7728 78.952C64.7408 78.9093 64.7301 78.8613 64.7408 78.808L65.7168 70.92C65.7168 70.8667 65.7381 70.824 65.7808 70.792C65.8234 70.7493 65.8714 70.728 65.9248 70.728H68.1168C68.2341 70.728 68.2928 70.792 68.2928 70.92L68.2288 71.368C68.2288 71.4 68.2394 71.4213 68.2608 71.432C68.2821 71.432 68.3088 71.4107 68.3408 71.368C68.7674 70.856 69.3274 70.6 70.0208 70.6ZM75.85 79.128C74.9327 79.128 74.202 78.8987 73.658 78.44C73.1247 77.9707 72.842 77.3253 72.81 76.504C72.7993 76.4187 72.794 76.28 72.794 76.088C72.794 75.6827 72.8207 75.2667 72.874 74.84C72.938 74.2533 73.05 73.6987 73.21 73.176C73.4553 72.3867 73.9033 71.7627 74.554 71.304C75.2047 70.8347 75.9833 70.6 76.89 70.6C77.7753 70.6 78.49 70.824 79.034 71.272C79.578 71.72 79.8767 72.3227 79.93 73.08C79.9407 73.1333 79.946 73.2187 79.946 73.336C79.946 73.4427 79.9407 73.528 79.93 73.592C79.93 73.7093 79.866 73.7787 79.738 73.8L77.514 74.024H77.482C77.3967 74.024 77.354 73.9813 77.354 73.896V73.8L77.338 73.544C77.3167 73.3413 77.242 73.1813 77.114 73.064C76.986 72.936 76.8153 72.872 76.602 72.872C76.1647 72.872 75.8607 73.1227 75.69 73.624C75.594 73.9547 75.5193 74.36 75.466 74.84C75.4127 75.2667 75.386 75.5973 75.386 75.832C75.386 75.9707 75.3913 76.072 75.402 76.136C75.4233 76.36 75.4927 76.536 75.61 76.664C75.7273 76.792 75.8927 76.856 76.106 76.856C76.3513 76.856 76.5487 76.792 76.698 76.664C76.8473 76.5253 76.9487 76.3493 77.002 76.136C77.0233 76.0827 77.0447 76.0027 77.066 75.896C77.0767 75.832 77.1033 75.784 77.146 75.752C77.1887 75.72 77.2367 75.7093 77.29 75.72L79.45 75.912C79.5887 75.9333 79.642 76.0027 79.61 76.12L79.53 76.488C79.306 77.32 78.8633 77.9707 78.202 78.44C77.5513 78.8987 76.7673 79.128 75.85 79.128ZM85.4583 70.6C86.1409 70.6 86.6689 70.8027 87.0423 71.208C87.4156 71.6027 87.6023 72.168 87.6023 72.904C87.6023 73.1493 87.5916 73.3413 87.5703 73.48L86.9143 78.808C86.9036 78.8613 86.8769 78.9093 86.8343 78.952C86.8023 78.984 86.7596 79 86.7063 79H84.4983C84.4449 79 84.4023 78.984 84.3703 78.952C84.3383 78.9093 84.3276 78.8613 84.3383 78.808L84.9463 73.864C84.9569 73.8213 84.9623 73.752 84.9623 73.656C84.9623 73.4107 84.8983 73.2187 84.7703 73.08C84.6529 72.9413 84.4876 72.872 84.2743 72.872C84.0396 72.872 83.8369 72.9627 83.6663 73.144C83.5063 73.3147 83.4049 73.5547 83.3623 73.864L82.7543 78.808C82.7436 78.8613 82.7169 78.9093 82.6743 78.952C82.6423 78.984 82.5996 79 82.5463 79H80.3383C80.2849 79 80.2423 78.984 80.2103 78.952C80.1783 78.9093 80.1676 78.8613 80.1783 78.808L81.5063 67.992C81.5169 67.9387 81.5383 67.896 81.5703 67.864C81.6129 67.8213 81.6609 67.8 81.7143 67.8H83.9223C83.9756 67.8 84.0183 67.8213 84.0503 67.864C84.0823 67.896 84.0929 67.9387 84.0823 67.992L83.6663 71.368C83.6663 71.4 83.6769 71.4213 83.6983 71.432C83.7196 71.432 83.7463 71.4107 83.7783 71.368C84.2049 70.856 84.7649 70.6 85.4583 70.6Z" fill="black"/>
</svg>
