<svg width="101" height="120" viewBox="0 0 101 120" fill="none" xmlns="http://www.w3.org/2000/svg">
<path d="M25.4444 112.671L29.7808 74.6453L53.0627 86.1759L25.4444 112.671Z" fill="white"/>
<circle cx="50.5" cy="50.5" r="50.5" fill="white"/>
<path d="M32.6977 46C32.4043 46 32.2577 45.8533 32.2577 45.56L31.8977 42.04C31.871 41.9333 31.8177 41.88 31.7377 41.88H25.1777C25.0977 41.88 25.0177 41.9333 24.9377 42.04L23.7377 45.56C23.6577 45.8533 23.471 46 23.1777 46H17.4977C17.1777 46 17.071 45.8267 17.1777 45.48L27.4177 18.4C27.5243 18.1333 27.7243 18 28.0177 18H34.8177C35.111 18 35.271 18.1333 35.2977 18.4L38.9377 45.48V45.56C38.9377 45.8533 38.7777 46 38.4577 46H32.6977ZM26.7777 36.56C26.751 36.6933 26.8177 36.76 26.9777 36.76H31.0977C31.2577 36.76 31.3377 36.68 31.3377 36.52L30.3777 26.6C30.3777 26.4933 30.351 26.44 30.2977 26.44C30.2443 26.44 30.191 26.4933 30.1377 26.6L26.7777 36.56ZM49.9464 46.32C47.4397 46.32 45.4531 45.6267 43.9864 44.24C42.5197 42.8267 41.7864 40.9333 41.7864 38.56C41.7864 37.9467 41.8131 37.48 41.8664 37.16L44.1464 18.48C44.1731 18.3467 44.2264 18.24 44.3064 18.16C44.4131 18.0533 44.5331 18 44.6664 18H50.1864C50.3197 18 50.4264 18.0533 50.5064 18.16C50.5864 18.24 50.6131 18.3467 50.5864 18.48L48.2664 37.48C48.2397 37.6133 48.2264 37.8 48.2264 38.04C48.2264 38.84 48.4397 39.48 48.8664 39.96C49.3197 40.4133 49.9197 40.64 50.6664 40.64C51.4931 40.64 52.1864 40.3467 52.7464 39.76C53.3331 39.1733 53.6797 38.4133 53.7864 37.48L56.1464 18.48C56.1731 18.3467 56.2264 18.24 56.3064 18.16C56.4131 18.0533 56.5331 18 56.6664 18H62.1864C62.3197 18 62.4264 18.0533 62.5064 18.16C62.5864 18.24 62.6131 18.3467 62.5864 18.48L60.2664 37.16C60.0531 38.9733 59.4797 40.5733 58.5464 41.96C57.6131 43.3467 56.3997 44.4267 54.9064 45.2C53.4397 45.9467 51.7864 46.32 49.9464 46.32ZM70.9927 46.32C68.406 46.32 66.366 45.6933 64.8727 44.44C63.3793 43.16 62.6327 41.4533 62.6327 39.32C62.6327 39.1067 62.6593 38.76 62.7127 38.28L62.8727 37.24C62.8993 37.1067 62.9527 37 63.0327 36.92C63.1393 36.8133 63.2593 36.76 63.3927 36.76H68.8327C68.966 36.76 69.0727 36.8133 69.1527 36.92C69.2327 37 69.2593 37.1067 69.2327 37.24L69.1527 37.96C69.046 38.7067 69.246 39.3467 69.7527 39.88C70.2593 40.3867 70.9927 40.64 71.9527 40.64C72.8327 40.64 73.4993 40.4 73.9527 39.92C74.4327 39.4133 74.6727 38.8267 74.6727 38.16C74.6727 37.5467 74.406 37.0267 73.8727 36.6C73.3393 36.1733 72.3127 35.5467 70.7927 34.72C69.5127 34.0267 68.4193 33.3733 67.5127 32.76C66.6327 32.12 65.8727 31.2933 65.2327 30.28C64.5927 29.2667 64.2727 28.08 64.2727 26.72C64.2727 24.96 64.7127 23.4 65.5927 22.04C66.4727 20.6533 67.6727 19.5867 69.1927 18.84C70.7127 18.0667 72.3927 17.68 74.2327 17.68C76.7393 17.68 78.7393 18.3467 80.2327 19.68C81.7527 21.0133 82.5127 22.7733 82.5127 24.96C82.5127 25.1733 82.486 25.5467 82.4327 26.08L82.3527 26.84C82.326 26.9733 82.2593 27.0933 82.1527 27.2C82.046 27.28 81.926 27.32 81.7927 27.32H76.3927C76.0993 27.32 75.9527 27.16 75.9527 26.84L76.0727 26.16C76.1527 25.3867 75.9527 24.7333 75.4727 24.2C74.9927 23.64 74.286 23.36 73.3527 23.36C72.6327 23.36 72.0327 23.56 71.5527 23.96C71.0993 24.36 70.8193 24.9067 70.7127 25.6C70.6593 26.1067 70.7527 26.56 70.9927 26.96C71.2327 27.3333 71.6327 27.7067 72.1927 28.08C72.7527 28.4533 73.6193 28.96 74.7927 29.6L75.9127 30.28C77.1127 31.0267 78.046 31.6667 78.7127 32.2C79.406 32.7333 79.9927 33.4133 80.4727 34.24C80.9527 35.0667 81.1927 36.04 81.1927 37.16C81.1927 37.3733 81.166 37.72 81.1127 38.2C80.7927 40.7067 79.6993 42.6933 77.8327 44.16C75.9927 45.6 73.7127 46.32 70.9927 46.32Z" fill="black"/>
<path d="M37.3924 60.632C37.3711 60.6533 37.3658 60.6747 37.3764 60.696C37.3871 60.7173 37.4084 60.728 37.4404 60.728H40.9764C41.0298 60.728 41.0724 60.7493 41.1044 60.792C41.1364 60.824 41.1471 60.8667 41.1364 60.92L40.8964 62.808C40.8964 62.8613 40.8751 62.9093 40.8324 62.952C40.7898 62.984 40.7418 63 40.6884 63H34.0004C33.9471 63 33.9044 62.984 33.8724 62.952C33.8404 62.9093 33.8298 62.8613 33.8404 62.808L34.0644 60.952C34.0751 60.8667 34.1178 60.7867 34.1924 60.712C35.8564 59.0907 37.0458 57.88 37.7604 57.08C38.1764 56.632 38.4964 56.232 38.7204 55.88C38.9551 55.528 39.0884 55.208 39.1204 54.92C39.1311 54.8773 39.1364 54.8133 39.1364 54.728C39.1364 54.4827 39.0671 54.2907 38.9284 54.152C38.7898 54.0133 38.6031 53.944 38.3684 53.944C38.1018 53.944 37.8724 54.0347 37.6804 54.216C37.4991 54.3867 37.3924 54.6107 37.3604 54.888L37.2964 55.432C37.2858 55.4853 37.2591 55.5333 37.2164 55.576C37.1844 55.608 37.1418 55.624 37.0884 55.624H34.8484C34.7951 55.624 34.7524 55.608 34.7204 55.576C34.6884 55.5333 34.6778 55.4853 34.6884 55.432L34.7844 54.632C34.9551 53.7467 35.4031 53.032 36.1284 52.488C36.8538 51.944 37.7124 51.672 38.7044 51.672C39.6431 51.672 40.3844 51.928 40.9284 52.44C41.4831 52.952 41.7604 53.6187 41.7604 54.44C41.7604 55.048 41.6324 55.6187 41.3764 56.152C41.1311 56.6747 40.7418 57.24 40.2084 57.848C39.8671 58.2427 39.4351 58.6907 38.9124 59.192C38.4004 59.6827 37.8938 60.1627 37.3924 60.632ZM45.2023 63.192C44.2423 63.192 43.485 62.9253 42.9303 62.392C42.3863 61.848 42.1143 61.112 42.1143 60.184C42.1143 59.928 42.125 59.7307 42.1463 59.592L42.6743 55.208C42.813 54.12 43.2396 53.256 43.9543 52.616C44.669 51.9653 45.5596 51.64 46.6263 51.64C47.597 51.64 48.3596 51.9067 48.9143 52.44C49.4796 52.9733 49.7623 53.6987 49.7623 54.616C49.7623 54.872 49.7516 55.0693 49.7303 55.208L49.1863 59.592C49.0476 60.6907 48.6156 61.5653 47.8903 62.216C47.1756 62.8667 46.2796 63.192 45.2023 63.192ZM45.4903 60.904C45.789 60.904 46.0343 60.8027 46.2263 60.6C46.429 60.3867 46.5516 60.0987 46.5943 59.736L47.1703 55.096C47.181 55.0427 47.1863 54.9733 47.1863 54.888C47.1863 54.5893 47.1116 54.3547 46.9623 54.184C46.813 54.0133 46.6103 53.928 46.3543 53.928C46.077 53.928 45.837 54.0347 45.6343 54.248C45.4316 54.4507 45.309 54.7333 45.2663 55.096L44.7063 59.736C44.6956 59.7893 44.6903 59.8693 44.6903 59.976C44.6903 60.264 44.7596 60.4933 44.8983 60.664C45.0476 60.824 45.245 60.904 45.4903 60.904ZM53.2831 60.632C53.2617 60.6533 53.2564 60.6747 53.2671 60.696C53.2777 60.7173 53.2991 60.728 53.3311 60.728H56.8671C56.9204 60.728 56.9631 60.7493 56.9951 60.792C57.0271 60.824 57.0377 60.8667 57.0271 60.92L56.7871 62.808C56.7871 62.8613 56.7657 62.9093 56.7231 62.952C56.6804 62.984 56.6324 63 56.5791 63H49.8911C49.8377 63 49.7951 62.984 49.7631 62.952C49.7311 62.9093 49.7204 62.8613 49.7311 62.808L49.9551 60.952C49.9657 60.8667 50.0084 60.7867 50.0831 60.712C51.7471 59.0907 52.9364 57.88 53.6511 57.08C54.0671 56.632 54.3871 56.232 54.6111 55.88C54.8457 55.528 54.9791 55.208 55.0111 54.92C55.0217 54.8773 55.0271 54.8133 55.0271 54.728C55.0271 54.4827 54.9577 54.2907 54.8191 54.152C54.6804 54.0133 54.4937 53.944 54.2591 53.944C53.9924 53.944 53.7631 54.0347 53.5711 54.216C53.3897 54.3867 53.2831 54.6107 53.2511 54.888L53.1871 55.432C53.1764 55.4853 53.1497 55.5333 53.1071 55.576C53.0751 55.608 53.0324 55.624 52.9791 55.624H50.7391C50.6857 55.624 50.6431 55.608 50.6111 55.576C50.5791 55.5333 50.5684 55.4853 50.5791 55.432L50.6751 54.632C50.8457 53.7467 51.2937 53.032 52.0191 52.488C52.7444 51.944 53.6031 51.672 54.5951 51.672C55.5337 51.672 56.2751 51.928 56.8191 52.44C57.3737 52.952 57.6511 53.6187 57.6511 54.44C57.6511 55.048 57.5231 55.6187 57.2671 56.152C57.0217 56.6747 56.6324 57.24 56.0991 57.848C55.7577 58.2427 55.3257 58.6907 54.8031 59.192C54.2911 59.6827 53.7844 60.1627 53.2831 60.632ZM65.9729 57.848C66.0263 57.848 66.0689 57.8693 66.1009 57.912C66.1329 57.944 66.1436 57.9867 66.1329 58.04L65.8929 60.04C65.8823 60.0933 65.8556 60.1413 65.8129 60.184C65.7809 60.216 65.7383 60.232 65.6849 60.232H65.0929C65.0396 60.232 65.0129 60.2587 65.0129 60.312L64.7089 62.808C64.6983 62.8613 64.6716 62.9093 64.6289 62.952C64.5863 62.984 64.5383 63 64.4849 63H62.2929C62.2396 63 62.1969 62.984 62.1649 62.952C62.1329 62.9093 62.1223 62.8613 62.1329 62.808L62.4369 60.312C62.4369 60.2587 62.4103 60.232 62.3569 60.232H57.9729C57.9196 60.232 57.8769 60.216 57.8449 60.184C57.8129 60.1413 57.8023 60.0933 57.8129 60.04L58.0049 58.472C58.0049 58.4187 58.0316 58.3387 58.0849 58.232L61.1569 51.944C61.2103 51.848 61.2903 51.8 61.3969 51.8H63.7489C63.8983 51.8 63.9409 51.8747 63.8769 52.024L61.0929 57.752C61.0609 57.816 61.0769 57.848 61.1409 57.848H62.6609C62.7143 57.848 62.7409 57.8213 62.7409 57.768L62.9329 56.184C62.9436 56.1307 62.9649 56.088 62.9969 56.056C63.0396 56.0133 63.0876 55.992 63.1409 55.992H65.3489C65.4023 55.992 65.4449 56.0133 65.4769 56.056C65.5089 56.088 65.5196 56.1307 65.5089 56.184L65.3169 57.768C65.3169 57.8213 65.3383 57.848 65.3809 57.848H65.9729ZM24.2346 67.992C24.2346 67.9387 24.2559 67.896 24.2986 67.864C24.3412 67.8213 24.3892 67.8 24.4426 67.8H26.6346C26.7519 67.8 26.8106 67.864 26.8106 67.992L25.4826 78.808C25.4719 78.8613 25.4452 78.9093 25.4026 78.952C25.3599 78.984 25.3119 79 25.2586 79H22.9706C22.8639 79 22.7946 78.952 22.7626 78.856L20.9386 72.936C20.9172 72.904 20.8959 72.8933 20.8746 72.904C20.8532 72.904 20.8426 72.9253 20.8426 72.968L20.1546 78.808C20.1439 78.8613 20.1172 78.9093 20.0746 78.952C20.0426 78.984 19.9999 79 19.9466 79H17.7546C17.7012 79 17.6586 78.984 17.6266 78.952C17.5946 78.9093 17.5839 78.8613 17.5946 78.808L18.9226 67.992C18.9332 67.9387 18.9546 67.896 18.9866 67.864C19.0292 67.8213 19.0772 67.8 19.1306 67.8H21.4186C21.5146 67.8 21.5786 67.848 21.6106 67.944L23.4346 73.832C23.4452 73.864 23.4612 73.88 23.4826 73.88C23.5039 73.88 23.5199 73.8587 23.5306 73.816L24.2346 67.992ZM34.1101 73.736C34.0567 74.3867 33.9927 74.9467 33.9181 75.416C33.9074 75.544 33.8381 75.608 33.7101 75.608H29.6461C29.5927 75.608 29.5661 75.6347 29.5661 75.688V75.832C29.5661 75.9707 29.5714 76.072 29.5821 76.136C29.6034 76.36 29.6781 76.536 29.8061 76.664C29.9447 76.792 30.1314 76.856 30.3661 76.856C30.7927 76.856 31.1127 76.6747 31.3261 76.312C31.3794 76.2053 31.4594 76.1627 31.5661 76.184L33.5021 76.584C33.6407 76.6053 33.6781 76.68 33.6141 76.808C33.2727 77.5653 32.8034 78.1413 32.2061 78.536C31.6194 78.9307 30.9314 79.128 30.1421 79.128C29.0754 79.128 28.2807 78.872 27.7581 78.36C27.2354 77.848 26.9741 77.1013 26.9741 76.12C26.9741 75.736 27.0061 75.3147 27.0701 74.856C27.0914 74.6213 27.1234 74.3653 27.1661 74.088C27.2194 73.8107 27.2781 73.5707 27.3421 73.368C27.5554 72.5253 27.9927 71.8533 28.6541 71.352C29.3154 70.8507 30.1047 70.6 31.0221 70.6C32.0141 70.6 32.7874 70.888 33.3421 71.464C33.8967 72.04 34.1527 72.7973 34.1101 73.736ZM30.7661 72.872C30.5527 72.872 30.3661 72.9413 30.2061 73.08C30.0461 73.208 29.9287 73.3893 29.8541 73.624L29.7581 74.072C29.7474 74.1253 29.7687 74.152 29.8221 74.152H31.4061C31.4594 74.152 31.4861 74.1253 31.4861 74.072V73.624C31.4754 73.4 31.4061 73.2187 31.2781 73.08C31.1607 72.9413 30.9901 72.872 30.7661 72.872ZM35.8698 79C35.7525 79 35.6885 78.9467 35.6778 78.84L34.6858 70.92V70.888C34.6858 70.7707 34.7498 70.712 34.8778 70.712H37.0538C37.1711 70.712 37.2298 70.7707 37.2298 70.888L37.4698 74.984C37.4698 75.016 37.4805 75.032 37.5018 75.032C37.5231 75.032 37.5391 75.016 37.5498 74.984L38.8138 70.888C38.8458 70.7707 38.9205 70.712 39.0378 70.712H40.9898C41.0431 70.712 41.0858 70.728 41.1178 70.76C41.1498 70.792 41.1658 70.8347 41.1658 70.888L41.4698 75C41.4698 75.032 41.4805 75.048 41.5018 75.048C41.5338 75.048 41.5551 75.032 41.5658 75L42.8458 70.888C42.8778 70.7707 42.9525 70.712 43.0698 70.712L45.2138 70.744C45.3525 70.744 45.4005 70.8133 45.3578 70.952L42.4298 78.84C42.3871 78.9467 42.3071 79 42.1898 79H39.9818C39.8645 79 39.8058 78.9413 39.8058 78.824L39.4698 75.224C39.4591 75.1813 39.4431 75.16 39.4218 75.16C39.4111 75.16 39.3951 75.1813 39.3738 75.224L38.2538 78.824C38.2218 78.9413 38.1471 79 38.0298 79H35.8698ZM53.7031 70.728C53.7564 70.728 53.7991 70.7493 53.8311 70.792C53.8631 70.824 53.8737 70.8667 53.8631 70.92L53.6551 72.536C53.6444 72.5893 53.6177 72.6373 53.5751 72.68C53.5431 72.712 53.5004 72.728 53.4471 72.728H52.3431C52.2897 72.728 52.2631 72.7547 52.2631 72.808L51.5271 78.808C51.5164 78.8613 51.4897 78.9093 51.4471 78.952C51.4151 78.984 51.3724 79 51.3191 79H49.1111C49.0577 79 49.0151 78.984 48.9831 78.952C48.9511 78.9093 48.9404 78.8613 48.9511 78.808L49.6871 72.808C49.6871 72.7547 49.6657 72.728 49.6231 72.728H48.9831C48.9297 72.728 48.8871 72.712 48.8551 72.68C48.8231 72.6373 48.8124 72.5893 48.8231 72.536L49.0151 70.92C49.0257 70.8667 49.0471 70.824 49.0791 70.792C49.1217 70.7493 49.1697 70.728 49.2231 70.728H49.8631C49.9164 70.728 49.9431 70.7013 49.9431 70.648L50.0071 70.184C50.1244 69.2453 50.4604 68.6 51.0151 68.248C51.5697 67.896 52.4231 67.7413 53.5751 67.784H53.8791C53.9964 67.784 54.0551 67.848 54.0551 67.976L53.8631 69.448C53.8524 69.5013 53.8257 69.5493 53.7831 69.592C53.7511 69.624 53.7084 69.64 53.6551 69.64H53.3671C53.1111 69.6507 52.9191 69.72 52.7911 69.848C52.6631 69.976 52.5831 70.1627 52.5511 70.408L52.5191 70.648C52.5191 70.7013 52.5457 70.728 52.5991 70.728H53.7031ZM53.8791 79C53.8257 79 53.7831 78.984 53.7511 78.952C53.7191 78.9093 53.7084 78.8613 53.7191 78.808L55.0471 67.992C55.0577 67.9387 55.0791 67.896 55.1111 67.864C55.1537 67.8213 55.2017 67.8 55.2551 67.8H57.4631C57.5164 67.8 57.5591 67.8213 57.5911 67.864C57.6231 67.896 57.6337 67.9387 57.6231 67.992L56.2951 78.808C56.2844 78.8613 56.2577 78.9093 56.2151 78.952C56.1831 78.984 56.1404 79 56.0871 79H53.8791ZM62.6208 70.92C62.6315 70.8667 62.6528 70.824 62.6848 70.792C62.7275 70.7493 62.7755 70.728 62.8288 70.728H65.0368C65.0901 70.728 65.1328 70.7493 65.1648 70.792C65.1968 70.824 65.2075 70.8667 65.1968 70.92L64.2368 78.808C64.2261 78.8613 64.1995 78.9093 64.1568 78.952C64.1248 78.984 64.0821 79 64.0288 79H61.8208C61.7675 79 61.7248 78.984 61.6928 78.952C61.6608 78.9093 61.6501 78.8613 61.6608 78.808L61.7248 78.28C61.7248 78.2053 61.6928 78.2 61.6288 78.264C61.1915 78.84 60.6155 79.128 59.9008 79.128C59.1861 79.128 58.6368 78.8987 58.2528 78.44C57.8688 77.9707 57.6715 77.3253 57.6608 76.504C57.6501 76.4613 57.6448 76.376 57.6448 76.248C57.6448 75.9707 57.6821 75.5067 57.7568 74.856C57.8528 74.024 57.9701 73.448 58.1088 73.128L58.1408 73.032C58.3435 72.2747 58.6901 71.6827 59.1808 71.256C59.6715 70.8187 60.2741 70.6 60.9888 70.6C61.6928 70.6 62.1888 70.872 62.4768 71.416C62.4875 71.448 62.5035 71.4587 62.5248 71.448C62.5461 71.4373 62.5621 71.416 62.5728 71.384L62.6208 70.92ZM61.8688 76.136C61.9861 75.8053 62.0768 75.384 62.1408 74.872C62.1835 74.5627 62.2048 74.2587 62.2048 73.96C62.2048 73.7893 62.1995 73.6613 62.1888 73.576C62.1675 73.3627 62.0981 73.192 61.9808 73.064C61.8635 72.936 61.7035 72.872 61.5008 72.872C61.3088 72.872 61.1328 72.936 60.9728 73.064C60.8235 73.192 60.7168 73.3627 60.6528 73.576C60.5355 73.9067 60.4448 74.3387 60.3808 74.872C60.3381 75.3413 60.3168 75.656 60.3168 75.816C60.3168 75.9653 60.3221 76.072 60.3328 76.136C60.3541 76.36 60.4235 76.536 60.5408 76.664C60.6581 76.792 60.8128 76.856 61.0048 76.856C61.2181 76.856 61.3995 76.792 61.5488 76.664C61.6981 76.5253 61.8048 76.3493 61.8688 76.136ZM67.3903 79C67.273 79 67.2036 78.9467 67.1823 78.84L66.0143 70.92V70.888C66.0143 70.7707 66.073 70.712 66.1903 70.712H68.6063C68.7236 70.712 68.7823 70.7707 68.7823 70.888L69.0383 75.176C69.0383 75.208 69.049 75.224 69.0703 75.224C69.0916 75.224 69.1076 75.208 69.1183 75.176L70.4303 70.888C70.4623 70.7707 70.537 70.712 70.6543 70.712L73.0543 70.744C73.1823 70.744 73.225 70.8133 73.1823 70.952L70.0943 78.84C70.041 78.9467 69.961 79 69.8543 79H67.3903ZM75.9047 79.128C74.9447 79.128 74.1927 78.8773 73.6487 78.376C73.1047 77.8747 72.8327 77.192 72.8327 76.328C72.8114 75.912 72.8434 75.4213 72.9287 74.856C72.982 74.28 73.078 73.7733 73.2167 73.336C73.43 72.4933 73.8674 71.8267 74.5287 71.336C75.19 70.8453 75.9954 70.6 76.9447 70.6C77.894 70.6 78.6354 70.8453 79.1687 71.336C79.702 71.8267 79.9794 72.488 80.0007 73.32C80.0327 73.7147 80.006 74.2213 79.9207 74.84C79.878 75.2667 79.7927 75.752 79.6647 76.296C79.4514 77.1813 79.0087 77.8747 78.3367 78.376C77.6754 78.8773 76.8647 79.128 75.9047 79.128ZM76.1767 76.856C76.4114 76.856 76.614 76.776 76.7847 76.616C76.9554 76.4453 77.0834 76.2213 77.1687 75.944C77.2434 75.5707 77.302 75.208 77.3447 74.856C77.3767 74.6 77.4034 74.2267 77.4247 73.736C77.414 73.4693 77.3447 73.2613 77.2167 73.112C77.0887 72.952 76.9074 72.872 76.6727 72.872C76.438 72.872 76.2354 72.952 76.0647 73.112C75.894 73.2613 75.7714 73.4693 75.6967 73.736C75.6327 73.9707 75.5687 74.344 75.5047 74.856C75.462 75.24 75.43 75.6027 75.4087 75.944C75.43 76.2213 75.5047 76.4453 75.6327 76.616C75.7607 76.776 75.942 76.856 76.1767 76.856ZM85.5084 70.616C85.8071 70.616 86.0524 70.68 86.2444 70.808C86.3191 70.872 86.3404 70.952 86.3084 71.048L85.6844 73.288C85.6418 73.4053 85.5618 73.448 85.4444 73.416C85.2738 73.3733 85.1191 73.352 84.9804 73.352C84.8204 73.352 84.6764 73.3733 84.5484 73.416C84.2818 73.4693 84.0471 73.6027 83.8444 73.816C83.6524 74.0187 83.5404 74.2693 83.5084 74.568L82.9804 78.808C82.9698 78.8613 82.9431 78.9093 82.9004 78.952C82.8684 78.984 82.8258 79 82.7724 79H80.5644C80.5111 79 80.4684 78.984 80.4364 78.952C80.4044 78.9093 80.3938 78.8613 80.4044 78.808L81.3804 70.92C81.3804 70.8667 81.4018 70.824 81.4444 70.792C81.4871 70.7493 81.5351 70.728 81.5884 70.728H83.7804C83.8978 70.728 83.9564 70.792 83.9564 70.92L83.8924 71.448C83.8818 71.4907 83.8818 71.5173 83.8924 71.528C83.9138 71.528 83.9351 71.512 83.9564 71.48C84.3724 70.904 84.8898 70.616 85.5084 70.616Z" fill="black"/>
</svg>
