<svg width="115" height="103" viewBox="0 0 115 103" fill="none" xmlns="http://www.w3.org/2000/svg">
<path d="M9.77062 11.3814L45.5474 24.9743L28.6242 44.6874L9.77062 11.3814Z" fill="white"/>
<circle cx="64.4995" cy="52.5" r="50.5" fill="white"/>
<path d="M43.3195 48C43.1862 48 43.0795 47.96 42.9995 47.88C42.9195 47.7733 42.8928 47.6533 42.9195 47.52L46.2395 20.48C46.2662 20.3467 46.3195 20.24 46.3995 20.16C46.5062 20.0533 46.6262 20 46.7595 20H55.3995C57.9595 20 59.9862 20.6533 61.4795 21.96C62.9728 23.24 63.7195 24.9733 63.7195 27.16C63.7195 27.4 63.6928 27.7867 63.6395 28.32L62.2395 39.68C62.0262 41.3333 61.4528 42.7867 60.5195 44.04C59.6128 45.2933 58.4128 46.2667 56.9195 46.96C55.4528 47.6533 53.7995 48 51.9595 48H43.3195ZM49.9995 42.12C49.9995 42.2533 50.0662 42.32 50.1995 42.32L52.7595 42.28C53.5328 42.28 54.1995 41.9733 54.7595 41.36C55.3462 40.7467 55.7195 39.92 55.8795 38.88L57.0795 29.08C57.1062 28.9467 57.1195 28.7333 57.1195 28.44C57.1195 27.5867 56.9062 26.92 56.4795 26.44C56.0795 25.9333 55.5062 25.68 54.7595 25.68H52.2395C52.1328 25.68 52.0528 25.7467 51.9995 25.88L49.9995 42.12ZM84.0095 25.2C83.9828 25.3333 83.9162 25.4533 83.8095 25.56C83.7295 25.64 83.6228 25.68 83.4895 25.68H73.4895C73.3828 25.68 73.3028 25.7467 73.2495 25.88L72.6495 30.88C72.6495 31.0133 72.7028 31.08 72.8095 31.08H78.8495C79.1428 31.08 79.2895 31.24 79.2895 31.56L78.6895 36.28C78.6628 36.4133 78.5962 36.5333 78.4895 36.64C78.4095 36.72 78.3028 36.76 78.1695 36.76H72.1295C72.0228 36.76 71.9428 36.8267 71.8895 36.96L71.2495 42.12C71.2495 42.2533 71.3162 42.32 71.4495 42.32H81.4495C81.5828 42.32 81.6895 42.3733 81.7695 42.48C81.8495 42.56 81.8762 42.6667 81.8495 42.8L81.2895 47.52C81.2628 47.6533 81.1962 47.7733 81.0895 47.88C80.9828 47.96 80.8628 48 80.7295 48H64.5695C64.4362 48 64.3295 47.96 64.2495 47.88C64.1695 47.7733 64.1428 47.6533 64.1695 47.52L67.4895 20.48C67.5162 20.3467 67.5695 20.24 67.6495 20.16C67.7562 20.0533 67.8762 20 68.0095 20H84.1695C84.4628 20 84.6095 20.16 84.6095 20.48L84.0095 25.2Z" fill="black"/>
<path d="M50.8919 62.632C50.8706 62.6533 50.8653 62.6747 50.8759 62.696C50.8866 62.7173 50.9079 62.728 50.9399 62.728H54.4759C54.5293 62.728 54.5719 62.7493 54.6039 62.792C54.6359 62.824 54.6466 62.8667 54.6359 62.92L54.3959 64.808C54.3959 64.8613 54.3746 64.9093 54.3319 64.952C54.2893 64.984 54.2413 65 54.1879 65H47.4999C47.4466 65 47.4039 64.984 47.3719 64.952C47.3399 64.9093 47.3293 64.8613 47.3399 64.808L47.5639 62.952C47.5746 62.8667 47.6173 62.7867 47.6919 62.712C49.3559 61.0907 50.5453 59.88 51.2599 59.08C51.6759 58.632 51.9959 58.232 52.2199 57.88C52.4546 57.528 52.5879 57.208 52.6199 56.92C52.6306 56.8773 52.6359 56.8133 52.6359 56.728C52.6359 56.4827 52.5666 56.2907 52.4279 56.152C52.2893 56.0133 52.1026 55.944 51.8679 55.944C51.6013 55.944 51.3719 56.0347 51.1799 56.216C50.9986 56.3867 50.8919 56.6107 50.8599 56.888L50.7959 57.432C50.7853 57.4853 50.7586 57.5333 50.7159 57.576C50.6839 57.608 50.6413 57.624 50.5879 57.624H48.3479C48.2946 57.624 48.2519 57.608 48.2199 57.576C48.1879 57.5333 48.1773 57.4853 48.1879 57.432L48.2839 56.632C48.4546 55.7467 48.9026 55.032 49.6279 54.488C50.3533 53.944 51.2119 53.672 52.2039 53.672C53.1426 53.672 53.8839 53.928 54.4279 54.44C54.9826 54.952 55.2599 55.6187 55.2599 56.44C55.2599 57.048 55.1319 57.6187 54.8759 58.152C54.6306 58.6747 54.2413 59.24 53.7079 59.848C53.3666 60.2427 52.9346 60.6907 52.4119 61.192C51.8999 61.6827 51.3933 62.1627 50.8919 62.632ZM58.7018 65.192C57.7418 65.192 56.9845 64.9253 56.4298 64.392C55.8858 63.848 55.6138 63.112 55.6138 62.184C55.6138 61.928 55.6245 61.7307 55.6458 61.592L56.1738 57.208C56.3125 56.12 56.7392 55.256 57.4538 54.616C58.1685 53.9653 59.0592 53.64 60.1258 53.64C61.0965 53.64 61.8592 53.9067 62.4138 54.44C62.9792 54.9733 63.2618 55.6987 63.2618 56.616C63.2618 56.872 63.2512 57.0693 63.2298 57.208L62.6858 61.592C62.5472 62.6907 62.1152 63.5653 61.3898 64.216C60.6752 64.8667 59.7792 65.192 58.7018 65.192ZM58.9898 62.904C59.2885 62.904 59.5338 62.8027 59.7258 62.6C59.9285 62.3867 60.0512 62.0987 60.0938 61.736L60.6698 57.096C60.6805 57.0427 60.6858 56.9733 60.6858 56.888C60.6858 56.5893 60.6112 56.3547 60.4618 56.184C60.3125 56.0133 60.1098 55.928 59.8538 55.928C59.5765 55.928 59.3365 56.0347 59.1338 56.248C58.9312 56.4507 58.8085 56.7333 58.7658 57.096L58.2058 61.736C58.1952 61.7893 58.1898 61.8693 58.1898 61.976C58.1898 62.264 58.2592 62.4933 58.3978 62.664C58.5472 62.824 58.7445 62.904 58.9898 62.904ZM66.7826 62.632C66.7612 62.6533 66.7559 62.6747 66.7666 62.696C66.7772 62.7173 66.7986 62.728 66.8306 62.728H70.3666C70.4199 62.728 70.4626 62.7493 70.4946 62.792C70.5266 62.824 70.5372 62.8667 70.5266 62.92L70.2866 64.808C70.2866 64.8613 70.2652 64.9093 70.2226 64.952C70.1799 64.984 70.1319 65 70.0786 65H63.3906C63.3372 65 63.2946 64.984 63.2626 64.952C63.2306 64.9093 63.2199 64.8613 63.2306 64.808L63.4546 62.952C63.4652 62.8667 63.5079 62.7867 63.5826 62.712C65.2466 61.0907 66.4359 59.88 67.1506 59.08C67.5666 58.632 67.8866 58.232 68.1106 57.88C68.3452 57.528 68.4786 57.208 68.5106 56.92C68.5212 56.8773 68.5266 56.8133 68.5266 56.728C68.5266 56.4827 68.4572 56.2907 68.3186 56.152C68.1799 56.0133 67.9932 55.944 67.7586 55.944C67.4919 55.944 67.2626 56.0347 67.0706 56.216C66.8892 56.3867 66.7826 56.6107 66.7506 56.888L66.6866 57.432C66.6759 57.4853 66.6492 57.5333 66.6066 57.576C66.5746 57.608 66.5319 57.624 66.4786 57.624H64.2386C64.1852 57.624 64.1426 57.608 64.1106 57.576C64.0786 57.5333 64.0679 57.4853 64.0786 57.432L64.1746 56.632C64.3452 55.7467 64.7932 55.032 65.5186 54.488C66.2439 53.944 67.1026 53.672 68.0946 53.672C69.0332 53.672 69.7746 53.928 70.3186 54.44C70.8732 54.952 71.1506 55.6187 71.1506 56.44C71.1506 57.048 71.0226 57.6187 70.7666 58.152C70.5212 58.6747 70.1319 59.24 69.5986 59.848C69.2572 60.2427 68.8252 60.6907 68.3026 61.192C67.7906 61.6827 67.2839 62.1627 66.7826 62.632ZM79.4724 59.848C79.5258 59.848 79.5684 59.8693 79.6004 59.912C79.6324 59.944 79.6431 59.9867 79.6325 60.04L79.3924 62.04C79.3818 62.0933 79.3551 62.1413 79.3124 62.184C79.2804 62.216 79.2378 62.232 79.1844 62.232H78.5924C78.5391 62.232 78.5124 62.2587 78.5124 62.312L78.2084 64.808C78.1978 64.8613 78.1711 64.9093 78.1284 64.952C78.0858 64.984 78.0378 65 77.9844 65H75.7924C75.7391 65 75.6964 64.984 75.6644 64.952C75.6324 64.9093 75.6218 64.8613 75.6324 64.808L75.9364 62.312C75.9364 62.2587 75.9098 62.232 75.8564 62.232H71.4724C71.4191 62.232 71.3764 62.216 71.3444 62.184C71.3124 62.1413 71.3018 62.0933 71.3124 62.04L71.5044 60.472C71.5044 60.4187 71.5311 60.3387 71.5844 60.232L74.6564 53.944C74.7098 53.848 74.7898 53.8 74.8964 53.8H77.2484C77.3978 53.8 77.4404 53.8747 77.3764 54.024L74.5924 59.752C74.5604 59.816 74.5764 59.848 74.6404 59.848H76.1604C76.2138 59.848 76.2404 59.8213 76.2404 59.768L76.4324 58.184C76.4431 58.1307 76.4644 58.088 76.4964 58.056C76.5391 58.0133 76.5871 57.992 76.6404 57.992H78.8484C78.9018 57.992 78.9444 58.0133 78.9764 58.056C79.0084 58.088 79.0191 58.1307 79.0084 58.184L78.8164 59.768C78.8164 59.8213 78.8378 59.848 78.8804 59.848H79.4724ZM35.3044 69.992C35.3044 69.9387 35.3257 69.896 35.3684 69.864C35.4111 69.8213 35.4591 69.8 35.5124 69.8H37.7044C37.8217 69.8 37.8804 69.864 37.8804 69.992L36.5524 80.808C36.5417 80.8613 36.5151 80.9093 36.4724 80.952C36.4297 80.984 36.3817 81 36.3284 81H34.0404C33.9337 81 33.8644 80.952 33.8324 80.856L32.0084 74.936C31.9871 74.904 31.9657 74.8933 31.9444 74.904C31.9231 74.904 31.9124 74.9253 31.9124 74.968L31.2244 80.808C31.2137 80.8613 31.1871 80.9093 31.1444 80.952C31.1124 80.984 31.0697 81 31.0164 81H28.8244C28.7711 81 28.7284 80.984 28.6964 80.952C28.6644 80.9093 28.6537 80.8613 28.6644 80.808L29.9924 69.992C30.0031 69.9387 30.0244 69.896 30.0564 69.864C30.0991 69.8213 30.1471 69.8 30.2004 69.8H32.4884C32.5844 69.8 32.6484 69.848 32.6804 69.944L34.5044 75.832C34.5151 75.864 34.5311 75.88 34.5524 75.88C34.5737 75.88 34.5897 75.8587 34.6004 75.816L35.3044 69.992ZM45.1799 75.736C45.1266 76.3867 45.0626 76.9467 44.9879 77.416C44.9772 77.544 44.9079 77.608 44.7799 77.608H40.7159C40.6626 77.608 40.6359 77.6347 40.6359 77.688V77.832C40.6359 77.9707 40.6412 78.072 40.6519 78.136C40.6732 78.36 40.7479 78.536 40.8759 78.664C41.0146 78.792 41.2012 78.856 41.4359 78.856C41.8626 78.856 42.1826 78.6747 42.3959 78.312C42.4492 78.2053 42.5292 78.1627 42.6359 78.184L44.5719 78.584C44.7106 78.6053 44.7479 78.68 44.6839 78.808C44.3426 79.5653 43.8732 80.1413 43.2759 80.536C42.6892 80.9307 42.0012 81.128 41.2119 81.128C40.1452 81.128 39.3506 80.872 38.8279 80.36C38.3052 79.848 38.0439 79.1013 38.0439 78.12C38.0439 77.736 38.0759 77.3147 38.1399 76.856C38.1612 76.6213 38.1932 76.3653 38.2359 76.088C38.2892 75.8107 38.3479 75.5707 38.4119 75.368C38.6252 74.5253 39.0626 73.8533 39.7239 73.352C40.3852 72.8507 41.1746 72.6 42.0919 72.6C43.0839 72.6 43.8572 72.888 44.4119 73.464C44.9666 74.04 45.2226 74.7973 45.1799 75.736ZM41.8359 74.872C41.6226 74.872 41.4359 74.9413 41.2759 75.08C41.1159 75.208 40.9986 75.3893 40.9239 75.624L40.8279 76.072C40.8172 76.1253 40.8386 76.152 40.8919 76.152H42.4759C42.5292 76.152 42.5559 76.1253 42.5559 76.072V75.624C42.5452 75.4 42.4759 75.2187 42.3479 75.08C42.2306 74.9413 42.0599 74.872 41.8359 74.872ZM46.9396 81C46.8223 81 46.7583 80.9467 46.7476 80.84L45.7556 72.92V72.888C45.7556 72.7707 45.8196 72.712 45.9476 72.712H48.1236C48.241 72.712 48.2996 72.7707 48.2996 72.888L48.5396 76.984C48.5396 77.016 48.5503 77.032 48.5716 77.032C48.593 77.032 48.609 77.016 48.6196 76.984L49.8836 72.888C49.9156 72.7707 49.9903 72.712 50.1076 72.712H52.0596C52.113 72.712 52.1556 72.728 52.1876 72.76C52.2196 72.792 52.2356 72.8347 52.2356 72.888L52.5396 77C52.5396 77.032 52.5503 77.048 52.5716 77.048C52.6036 77.048 52.625 77.032 52.6356 77L53.9156 72.888C53.9476 72.7707 54.0223 72.712 54.1396 72.712L56.2836 72.744C56.4223 72.744 56.4703 72.8133 56.4276 72.952L53.4996 80.84C53.457 80.9467 53.377 81 53.2596 81H51.0516C50.9343 81 50.8756 80.9413 50.8756 80.824L50.5396 77.224C50.529 77.1813 50.513 77.16 50.4916 77.16C50.481 77.16 50.465 77.1813 50.4436 77.224L49.3236 80.824C49.2916 80.9413 49.217 81 49.0996 81H46.9396ZM59.5089 81C59.4556 81 59.4129 80.984 59.3809 80.952C59.3489 80.9093 59.3382 80.8613 59.3489 80.808L60.6769 69.992C60.6876 69.9387 60.7089 69.896 60.7409 69.864C60.7836 69.8213 60.8316 69.8 60.8849 69.8H63.0929C63.1462 69.8 63.1889 69.8213 63.2209 69.864C63.2529 69.896 63.2636 69.9387 63.2529 69.992L61.9249 80.808C61.9142 80.8613 61.8876 80.9093 61.8449 80.952C61.8129 80.984 61.7702 81 61.7169 81H59.5089ZM68.2219 72.92C68.2326 72.8667 68.2539 72.824 68.2859 72.792C68.3286 72.7493 68.3766 72.728 68.4299 72.728H70.6379C70.6912 72.728 70.7339 72.7493 70.7659 72.792C70.7979 72.824 70.8086 72.8667 70.7979 72.92L69.8379 80.808C69.8272 80.8613 69.8006 80.9093 69.7579 80.952C69.7259 80.984 69.6832 81 69.6299 81H67.4219C67.3686 81 67.3259 80.984 67.2939 80.952C67.2619 80.9093 67.2512 80.8613 67.2619 80.808L67.3259 80.28C67.3259 80.2053 67.2939 80.2 67.2299 80.264C66.7926 80.84 66.2166 81.128 65.5019 81.128C64.7872 81.128 64.2379 80.8987 63.8539 80.44C63.4699 79.9707 63.2726 79.3253 63.2619 78.504C63.2512 78.4613 63.2459 78.376 63.2459 78.248C63.2459 77.9707 63.2832 77.5067 63.3579 76.856C63.4539 76.024 63.5712 75.448 63.7099 75.128L63.7419 75.032C63.9446 74.2747 64.2912 73.6827 64.7819 73.256C65.2726 72.8187 65.8752 72.6 66.5899 72.6C67.2939 72.6 67.7899 72.872 68.0779 73.416C68.0886 73.448 68.1046 73.4587 68.1259 73.448C68.1472 73.4373 68.1632 73.416 68.1739 73.384L68.2219 72.92ZM67.4699 78.136C67.5872 77.8053 67.6779 77.384 67.7419 76.872C67.7846 76.5627 67.8059 76.2587 67.8059 75.96C67.8059 75.7893 67.8006 75.6613 67.7899 75.576C67.7686 75.3627 67.6992 75.192 67.5819 75.064C67.4646 74.936 67.3046 74.872 67.1019 74.872C66.9099 74.872 66.7339 74.936 66.5739 75.064C66.4246 75.192 66.3179 75.3627 66.2539 75.576C66.1366 75.9067 66.0459 76.3387 65.9819 76.872C65.9392 77.3413 65.9179 77.656 65.9179 77.816C65.9179 77.9653 65.9232 78.072 65.9339 78.136C65.9552 78.36 66.0246 78.536 66.1419 78.664C66.2592 78.792 66.4139 78.856 66.6059 78.856C66.8192 78.856 67.0006 78.792 67.1499 78.664C67.2992 78.5253 67.4059 78.3493 67.4699 78.136ZM76.0154 72.92C76.0154 72.8667 76.0367 72.824 76.0794 72.792C76.1221 72.7493 76.1701 72.728 76.2234 72.728H78.4154C78.5327 72.728 78.5914 72.792 78.5914 72.92L77.6154 80.808C77.6047 80.8613 77.5781 80.9093 77.5354 80.952C77.5034 80.984 77.4607 81 77.4074 81H75.1994C75.1461 81 75.1034 80.984 75.0714 80.952C75.0394 80.9093 75.0287 80.8613 75.0394 80.808L75.0874 80.424C75.0981 80.392 75.0927 80.376 75.0714 80.376C75.0501 80.3653 75.0287 80.376 75.0074 80.408C74.5914 80.888 74.0101 81.128 73.2634 81.128C72.6341 81.128 72.1221 80.9467 71.7274 80.584C71.3434 80.2107 71.1514 79.6667 71.1514 78.952C71.1514 78.856 71.1621 78.6907 71.1834 78.456L71.8714 72.92C71.8714 72.8667 71.8927 72.824 71.9354 72.792C71.9781 72.7493 72.0261 72.728 72.0794 72.728H74.2714C74.3887 72.728 74.4474 72.792 74.4474 72.92L73.8394 77.864C73.8287 77.9173 73.8234 77.992 73.8234 78.088C73.8234 78.3227 73.8821 78.5093 73.9994 78.648C74.1167 78.776 74.2821 78.84 74.4954 78.84C74.7087 78.84 74.8954 78.7707 75.0554 78.632C75.2154 78.4933 75.3221 78.3067 75.3754 78.072L76.0154 72.92ZM84.0203 72.6C84.7029 72.6 85.2309 72.8027 85.6043 73.208C85.9776 73.6027 86.1643 74.168 86.1643 74.904C86.1643 75.1493 86.1536 75.3413 86.1323 75.48L85.4763 80.808C85.4656 80.8613 85.4389 80.9093 85.3963 80.952C85.3643 80.984 85.3216 81 85.2683 81H83.0603C83.0069 81 82.9643 80.984 82.9323 80.952C82.9003 80.9093 82.8896 80.8613 82.9003 80.808L83.5083 75.864C83.5189 75.8213 83.5243 75.752 83.5243 75.656C83.5243 75.4107 83.4603 75.2187 83.3323 75.08C83.2149 74.9413 83.0496 74.872 82.8363 74.872C82.6016 74.872 82.3989 74.9627 82.2283 75.144C82.0683 75.3147 81.9669 75.5547 81.9243 75.864L81.3163 80.808C81.3056 80.8613 81.2789 80.9093 81.2363 80.952C81.2043 80.984 81.1616 81 81.1083 81H78.9003C78.8469 81 78.8043 80.984 78.7723 80.952C78.7403 80.9093 78.7296 80.8613 78.7403 80.808L79.7163 72.92C79.7163 72.8667 79.7376 72.824 79.7803 72.792C79.8229 72.7493 79.8709 72.728 79.9243 72.728H82.1163C82.2336 72.728 82.2923 72.792 82.2923 72.92L82.2283 73.368C82.2283 73.4 82.2389 73.4213 82.2603 73.432C82.2816 73.432 82.3083 73.4107 82.3403 73.368C82.7669 72.856 83.3269 72.6 84.0203 72.6ZM89.8495 81.128C88.9322 81.128 88.2015 80.8987 87.6575 80.44C87.1242 79.9707 86.8415 79.3253 86.8095 78.504C86.7988 78.4187 86.7935 78.28 86.7935 78.088C86.7935 77.6827 86.8202 77.2667 86.8735 76.84C86.9375 76.2533 87.0495 75.6987 87.2095 75.176C87.4548 74.3867 87.9028 73.7627 88.5535 73.304C89.2042 72.8347 89.9828 72.6 90.8895 72.6C91.7748 72.6 92.4895 72.824 93.0335 73.272C93.5775 73.72 93.8762 74.3227 93.9295 75.08C93.9402 75.1333 93.9455 75.2187 93.9455 75.336C93.9455 75.4427 93.9402 75.528 93.9295 75.592C93.9295 75.7093 93.8655 75.7787 93.7375 75.8L91.5135 76.024H91.4815C91.3962 76.024 91.3535 75.9813 91.3535 75.896V75.8L91.3375 75.544C91.3162 75.3413 91.2415 75.1813 91.1135 75.064C90.9855 74.936 90.8148 74.872 90.6015 74.872C90.1642 74.872 89.8602 75.1227 89.6895 75.624C89.5935 75.9547 89.5188 76.36 89.4655 76.84C89.4122 77.2667 89.3855 77.5973 89.3855 77.832C89.3855 77.9707 89.3908 78.072 89.4015 78.136C89.4228 78.36 89.4922 78.536 89.6095 78.664C89.7268 78.792 89.8922 78.856 90.1055 78.856C90.3508 78.856 90.5482 78.792 90.6975 78.664C90.8468 78.5253 90.9482 78.3493 91.0015 78.136C91.0228 78.0827 91.0442 78.0027 91.0655 77.896C91.0762 77.832 91.1028 77.784 91.1455 77.752C91.1882 77.72 91.2362 77.7093 91.2895 77.72L93.4495 77.912C93.5882 77.9333 93.6415 78.0027 93.6095 78.12L93.5295 78.488C93.3055 79.32 92.8628 79.9707 92.2015 80.44C91.5508 80.8987 90.7668 81.128 89.8495 81.128ZM99.4578 72.6C100.14 72.6 100.668 72.8027 101.042 73.208C101.415 73.6027 101.602 74.168 101.602 74.904C101.602 75.1493 101.591 75.3413 101.57 75.48L100.914 80.808C100.903 80.8613 100.876 80.9093 100.834 80.952C100.802 80.984 100.759 81 100.706 81H98.4978C98.4444 81 98.4018 80.984 98.3698 80.952C98.3378 80.9093 98.3271 80.8613 98.3378 80.808L98.9458 75.864C98.9564 75.8213 98.9618 75.752 98.9618 75.656C98.9618 75.4107 98.8978 75.2187 98.7698 75.08C98.6524 74.9413 98.4871 74.872 98.2738 74.872C98.0391 74.872 97.8364 74.9627 97.6658 75.144C97.5058 75.3147 97.4044 75.5547 97.3618 75.864L96.7538 80.808C96.7431 80.8613 96.7164 80.9093 96.6738 80.952C96.6418 80.984 96.5991 81 96.5458 81H94.3378C94.2844 81 94.2418 80.984 94.2098 80.952C94.1778 80.9093 94.1671 80.8613 94.1778 80.808L95.5058 69.992C95.5164 69.9387 95.5378 69.896 95.5698 69.864C95.6124 69.8213 95.6604 69.8 95.7138 69.8H97.9218C97.9751 69.8 98.0178 69.8213 98.0498 69.864C98.0818 69.896 98.0924 69.9387 98.0818 69.992L97.6658 73.368C97.6658 73.4 97.6764 73.4213 97.6978 73.432C97.7191 73.432 97.7458 73.4107 97.7778 73.368C98.2044 72.856 98.7644 72.6 99.4578 72.6Z" fill="black"/>
</svg>
