<svg width="309" height="247" viewBox="0 0 309 247" fill="none" xmlns="http://www.w3.org/2000/svg">
<path d="M185.722 246.316C253.643 246.316 308.703 191.255 308.703 123.335C308.703 55.414 253.643 0.353516 185.722 0.353516C117.802 0.353516 62.7412 55.414 62.7412 123.335C62.7412 191.255 117.802 246.316 185.722 246.316Z" fill="#FEDD00"/>
<path fill-rule="evenodd" clip-rule="evenodd" d="M228.603 195.685C233.409 199.946 234.115 197.132 236.84 197.557C240.221 197.808 240.473 195.097 241.505 196.975C243.483 202.713 241.01 203.007 239.42 205.404C238.258 209.248 238.44 209.26 234.966 210.555C232.862 211.369 232.517 207.964 231.753 206.685C228.635 202.628 227.187 197.198 228.603 195.685ZM103.717 106.853C107.517 103.977 115.657 98.4085 120.241 96.6865C129.107 94.2285 132.729 95.7575 132.238 84.4775C132.212 82.9205 132.598 80.0085 133.259 80.0155C137.744 81.5485 139.032 85.0685 140.265 78.7215C142.018 74.0435 145.51 67.9835 149.963 65.2035C155.665 61.2725 159.234 71.9335 163.876 69.3035C165.907 68.0565 168.432 62.9585 170.53 59.4265C173.952 52.6435 178.068 57.1645 177.804 51.7355C177.929 51.3715 178.255 51.1525 179.049 51.1145C186.454 52.3865 191.03 56.9525 200.818 54.3945C201.459 54.2465 201.941 54.1945 201.901 54.4935C198.063 61.5155 191.589 65.8635 199.997 70.2575C204.153 72.6275 209.648 83.2705 215.871 81.5255C226.642 78.3155 221.646 67.6925 224.219 61.6045C228.68 53.5105 226.943 53.8595 228.751 50.7715C229.067 50.3925 229.115 50.2355 229.272 50.7015C236.007 65.1275 232.953 61.7485 234.534 65.5895C234.847 66.2305 235.268 66.5655 235.801 66.8855C242.564 69.6405 239.542 69.4475 243.457 84.0515C246.681 97.6085 255.554 91.4035 256.756 102.902C256.968 104.202 257.205 105.444 257.791 106.547C258.198 107.359 258.955 108.105 259.724 108.664C266.481 112.646 262.564 115.279 266.247 119.694C274.018 129.351 273.709 126.316 271.094 143.227C269.933 152.498 260.29 160.537 254.741 168.711C253.272 171.26 252.042 176.725 251.293 179.812C250.837 183.326 248.897 183.027 244.407 183.308C238.618 183.432 239.863 189.195 234.141 185.187C233.48 184.76 232.841 184.411 232.093 184.351C228.725 184.122 226.048 187.104 222.835 187.208C218.829 187.438 212.5 180.804 210.519 178.066C209.202 176.551 208.912 173.702 207.375 172.007C201.496 166.882 195.818 170.941 192.259 161.406C190.508 156.813 189.332 154.447 185.312 152.894C181.646 151.476 175.757 150.439 174.024 150.367C171.676 150.559 166.222 152.316 161.235 154.13C146.681 159.193 150.397 160.266 144.813 162.627C137.639 164.578 134.463 161.932 128.165 166.086C123.078 169.283 118.652 172.564 112.943 169.085C111.682 167.425 113.902 160.921 112.693 157.704C110.399 153.327 108.742 148.488 106.431 144.078C97.7732 130.142 97.4232 132.499 100.284 125.993C100.999 116.434 95.8582 113.743 103.714 106.852L103.717 106.853Z" fill="white"/>
<path d="M168.27 155C167.588 155 167.247 154.659 167.247 153.977L166.41 145.793C166.348 145.545 166.224 145.421 166.038 145.421H150.786C150.6 145.421 150.414 145.545 150.228 145.793L147.438 153.977C147.252 154.659 146.818 155 146.136 155H132.93C132.186 155 131.938 154.597 132.186 153.791L155.994 90.83C156.242 90.21 156.707 89.9 157.389 89.9H173.199C173.881 89.9 174.253 90.21 174.315 90.83L182.778 153.791V153.977C182.778 154.659 182.406 155 181.662 155H168.27ZM154.506 133.052C154.444 133.362 154.599 133.517 154.971 133.517H164.55C164.922 133.517 165.108 133.331 165.108 132.959L162.876 109.895C162.876 109.647 162.814 109.523 162.69 109.523C162.566 109.523 162.442 109.647 162.318 109.895L154.506 133.052ZM208.373 155.744C202.545 155.744 197.926 154.132 194.516 150.908C191.106 147.622 189.401 143.22 189.401 137.702C189.401 136.276 189.463 135.191 189.587 134.447L194.888 91.016C194.95 90.706 195.074 90.458 195.26 90.272C195.508 90.024 195.787 89.9 196.097 89.9H208.931C209.241 89.9 209.489 90.024 209.675 90.272C209.861 90.458 209.923 90.706 209.861 91.016L204.467 135.191C204.405 135.501 204.374 135.935 204.374 136.493C204.374 138.353 204.87 139.841 205.862 140.957C206.916 142.011 208.311 142.538 210.047 142.538C211.969 142.538 213.581 141.856 214.883 140.492C216.247 139.128 217.053 137.361 217.301 135.191L222.788 91.016C222.85 90.706 222.974 90.458 223.16 90.272C223.408 90.024 223.687 89.9 223.997 89.9H236.831C237.141 89.9 237.389 90.024 237.575 90.272C237.761 90.458 237.823 90.706 237.761 91.016L232.367 134.447C231.871 138.663 230.538 142.383 228.368 145.607C226.198 148.831 223.377 151.342 219.905 153.14C216.495 154.876 212.651 155.744 208.373 155.744ZM257.306 155.744C251.292 155.744 246.549 154.287 243.077 151.373C239.605 148.397 237.869 144.429 237.869 139.469C237.869 138.973 237.931 138.167 238.055 137.051L238.427 134.633C238.489 134.323 238.613 134.075 238.799 133.889C239.047 133.641 239.326 133.517 239.636 133.517H252.284C252.594 133.517 252.842 133.641 253.028 133.889C253.214 134.075 253.276 134.323 253.214 134.633L253.028 136.307C252.78 138.043 253.245 139.531 254.423 140.771C255.601 141.949 257.306 142.538 259.538 142.538C261.584 142.538 263.134 141.98 264.188 140.864C265.304 139.686 265.862 138.322 265.862 136.772C265.862 135.346 265.242 134.137 264.002 133.145C262.762 132.153 260.375 130.696 256.841 128.774C253.865 127.162 251.323 125.643 249.215 124.217C247.169 122.729 245.402 120.807 243.914 118.451C242.426 116.095 241.682 113.336 241.682 110.174C241.682 106.082 242.705 102.455 244.751 99.293C246.797 96.069 249.587 93.589 253.121 91.853C256.655 90.055 260.561 89.156 264.839 89.156C270.667 89.156 275.317 90.706 278.789 93.806C282.323 96.906 284.09 100.998 284.09 106.082C284.09 106.578 284.028 107.446 283.904 108.686L283.718 110.453C283.656 110.763 283.501 111.042 283.253 111.29C283.005 111.476 282.726 111.569 282.416 111.569H269.861C269.179 111.569 268.838 111.197 268.838 110.453L269.117 108.872C269.303 107.074 268.838 105.555 267.722 104.315C266.606 103.013 264.963 102.362 262.793 102.362C261.119 102.362 259.724 102.827 258.608 103.757C257.554 104.687 256.903 105.958 256.655 107.57C256.531 108.748 256.748 109.802 257.306 110.732C257.864 111.6 258.794 112.468 260.096 113.336C261.398 114.204 263.413 115.382 266.141 116.87L268.745 118.451C271.535 120.187 273.705 121.675 275.255 122.915C276.867 124.155 278.231 125.736 279.347 127.658C280.463 129.58 281.021 131.843 281.021 134.447C281.021 134.943 280.959 135.749 280.835 136.865C280.091 142.693 277.549 147.312 273.209 150.722C268.931 154.07 263.63 155.744 257.306 155.744Z" fill="black"/>
<path d="M94.8503 60.346V45.256C94.8503 40.7152 91.1265 37 86.5751 37H40.4248C35.8735 37 32.1497 40.7152 32.1497 45.256V60.346H0V99.9516H5.17562V184H121.824V99.9526H127V60.346H94.8503Z" fill="#FEDD00"/>
<path d="M75.8385 71.4361V63.2911L71.724 71.4361H75.8385ZM83.1942 46.4297V71.4361H87.1616V78.7747H83.1942V86.3344H75.8385V78.7747H59.7793L76.119 46.4297H83.1942Z" fill="#231815"/>
<path d="M39.1534 82.6343C39.1534 82.4939 39.1653 81.0051 39.1653 77.0551C39.1653 70.3393 44.4927 67.1397 48.7727 64.5693C53.268 61.8696 55.3846 60.2762 55.3846 57.3344C55.3846 55.1649 54.6554 53.8201 51.0282 53.8201C46.738 53.8201 46.521 56.118 46.521 56.5785V57.9545H39.1653V56.5785C39.1653 53.0862 41.6442 46.4814 51.0282 46.4814C58.2524 46.4814 62.7402 50.6397 62.7402 57.3344C62.7402 64.7445 56.8594 68.2762 52.5673 70.8558C48.3636 73.3812 46.521 74.7306 46.521 77.0551L46.5192 78.9952H59.8053V86.3339H39.123L39.1534 82.6343Z" fill="#231815"/>
<path d="M32.1495 67.6846H7.35547V76.4799H32.1495V67.6846Z" fill="#231815"/>
<path d="M7.35547 83.8184H32.1495V91.2992C32.1495 91.6487 32.179 91.9918 32.2213 92.3302H7.35547V83.8193V83.8184Z" fill="#231815"/>
<path d="M59.2204 119.876H36.6128V176.661H59.2204V119.876Z" fill="#231815"/>
<path d="M89.1847 119.876H66.5762V176.661H89.1847V119.876Z" fill="#231815"/>
<path d="M114.469 176.661H96.5402V112.537H29.2571V176.661H12.5312V99.9521H114.469V176.661Z" fill="#231815"/>
<path d="M119.645 92.3293H94.7778C94.821 91.9908 94.8505 91.6486 94.8505 91.2982V83.8174H119.645V92.3284V92.3293Z" fill="#231815"/>
<path d="M119.644 67.6846H94.8501V76.4799H119.644V67.6846Z" fill="#231815"/>
</svg>
