<svg width="226" height="175" viewBox="0 0 226 175" fill="none" xmlns="http://www.w3.org/2000/svg">
<path d="M87.175 174.67C135.32 174.67 174.35 135.641 174.35 87.4953C174.35 39.3499 135.32 0.320312 87.175 0.320312C39.0296 0.320312 0 39.3499 0 87.4953C0 135.641 39.0296 174.67 87.175 174.67Z" fill="#FEDD00"/>
<path fill-rule="evenodd" clip-rule="evenodd" d="M60.7532 115.944C62.2872 116.233 63.7632 117.08 65.3292 117.318C68.9782 117.615 70.0922 116.928 67.7442 120.716C67.2992 121.422 66.9162 121.977 66.7142 122.591C66.1442 127.404 64.1142 127.139 62.8372 130.613C62.4322 131.779 62.7302 133.049 62.7492 134.256C62.6592 136.719 61.2202 139.61 62.9862 141.569C65.3042 144.717 72.4902 139.132 75.5892 139.17C77.2162 139.279 86.6862 140.826 87.1592 141.402C89.8342 143.813 90.6532 147.603 93.2622 144.388C97.2412 137.946 99.4202 144.84 103.235 143.967C111.44 141.687 112.662 136.655 120.47 141.791C123.41 143.794 119.403 133.576 119.872 133.473C119.999 131.986 122.279 130.955 123.573 129.966C126.67 126.963 124.235 126 128.578 123.553C128.909 123.289 129.131 122.994 129.181 122.573C129.431 120.172 123.685 115.765 121.669 114.216C118.29 111.521 114.916 112.496 115.202 107.225C115.279 105.556 115.125 103.968 113.968 102.759C112.779 101.483 107.349 97.0887 112.478 98.5907C114.238 99.2197 115.341 97.9877 116.404 96.7257C119.774 92.0397 120.524 93.5937 124.819 92.1137C127.789 90.4657 130.959 88.7917 132.652 85.5317C133.026 85.0317 133.433 84.7037 133.961 84.6247C135.843 84.3497 137.589 87.5807 139.949 84.5557C140.889 83.2907 141.158 82.4727 141.272 81.6597C141.697 77.8527 136.138 76.0527 135.921 71.7847C135.689 69.4017 136.556 67.3187 135.648 65.1887C132.767 60.4117 134.025 61.5057 133.375 58.3997C133.027 57.3147 131.63 56.2907 130.813 55.3407C128.772 53.1227 132.317 50.0207 132.588 47.1637C132.782 40.2837 129.707 41.7857 125.633 38.3097C122.162 35.2927 125.373 33.4857 119.985 31.9567C117.486 30.5647 116.031 30.2977 114.565 30.7857C112.8 31.4057 110.023 33.5947 107.694 34.2377C106.219 34.8817 105.2 36.3017 103.666 37.2457C102.088 38.3877 99.7522 37.9047 99.5252 36.7467C99.2782 35.4237 101.323 33.3527 99.5352 31.3887C98.7772 30.2307 95.4342 32.2617 94.2392 31.5677C88.8332 29.7247 89.8622 29.7037 89.1572 26.5777C88.5282 23.8287 87.8992 24.4337 85.6282 23.7367C82.5002 22.9957 77.5512 22.0297 76.4832 21.9097C75.2742 21.7537 75.0962 23.2457 75.2932 24.6757C75.5552 28.1097 78.9862 27.5097 80.4502 29.4177C80.6492 29.6757 80.5012 29.8717 80.2552 30.2617C79.7242 31.0297 78.6382 32.1127 78.3972 32.7337C78.0062 34.0777 79.1132 36.9147 78.9042 38.6067C78.8452 40.5427 75.9382 39.7537 74.8902 41.1917C74.2482 41.8987 73.9312 42.7187 73.2262 43.3517C72.9492 43.6047 70.3622 43.2937 69.5842 43.3317C66.6452 43.7037 60.5002 44.3647 58.8912 46.9577C59.0802 48.0597 61.8852 49.5167 61.4292 51.0527C59.9952 61.9937 59.2122 58.7227 57.0412 60.1647C56.7542 60.4497 57.0742 60.7817 57.4832 61.2997C59.8802 63.8057 59.6462 63.7117 57.7682 67.2737C54.9382 72.3517 53.1482 69.9897 49.7732 71.7537C49.0692 72.0257 50.1362 74.3057 50.5912 75.8967C52.0032 79.6917 46.8502 82.9137 47.9132 87.2157C48.3812 91.7127 48.8892 91.1177 51.3772 92.9067C52.2182 93.5137 52.5892 94.0957 52.3622 94.9577C51.6682 97.3817 47.4172 98.9377 49.2382 101.603C50.0922 102.823 51.9232 103.681 52.4602 105.019C53.2942 107.062 50.3142 108.307 50.5652 109.832C50.7202 110.89 52.6402 113.667 53.9032 115.227C54.3642 115.756 54.5722 116.11 54.9222 116.207C56.1162 116.554 60.0952 116.051 60.7532 115.942V115.944Z" fill="white"/>
<path d="M43.178 112C42.958 112 42.782 111.934 42.65 111.802C42.518 111.626 42.474 111.428 42.518 111.208L47.996 66.592C48.04 66.372 48.128 66.196 48.26 66.064C48.436 65.888 48.634 65.8 48.854 65.8H63.11C67.334 65.8 70.678 66.878 73.142 69.034C75.606 71.146 76.838 74.006 76.838 77.614C76.838 78.01 76.794 78.648 76.706 79.528L74.396 98.272C74.044 101 73.098 103.398 71.558 105.466C70.062 107.534 68.082 109.14 65.618 110.284C63.198 111.428 60.47 112 57.434 112H43.178ZM54.2 102.298C54.2 102.518 54.31 102.628 54.53 102.628L58.754 102.562C60.03 102.562 61.13 102.056 62.054 101.044C63.022 100.032 63.638 98.668 63.902 96.952L65.882 80.782C65.926 80.562 65.948 80.21 65.948 79.726C65.948 78.318 65.596 77.218 64.892 76.426C64.232 75.59 63.286 75.172 62.054 75.172H57.896C57.72 75.172 57.588 75.282 57.5 75.502L54.2 102.298ZM110.317 74.38C110.273 74.6 110.163 74.798 109.986 74.974C109.855 75.106 109.679 75.172 109.459 75.172H92.9585C92.7825 75.172 92.6505 75.282 92.5625 75.502L91.5725 83.752C91.5725 83.972 91.6605 84.082 91.8365 84.082H101.803C102.287 84.082 102.529 84.346 102.529 84.874L101.539 92.662C101.495 92.882 101.385 93.08 101.209 93.256C101.077 93.388 100.901 93.454 100.681 93.454H90.7145C90.5385 93.454 90.4065 93.564 90.3185 93.784L89.2625 102.298C89.2625 102.518 89.3725 102.628 89.5925 102.628H106.093C106.313 102.628 106.489 102.716 106.621 102.892C106.753 103.024 106.797 103.2 106.753 103.42L105.829 111.208C105.785 111.428 105.675 111.626 105.499 111.802C105.323 111.934 105.125 112 104.905 112H78.2405C78.0205 112 77.8445 111.934 77.7125 111.802C77.5805 111.626 77.5365 111.428 77.5805 111.208L83.0585 66.592C83.1025 66.372 83.1905 66.196 83.3225 66.064C83.4985 65.888 83.6965 65.8 83.9165 65.8H110.581C111.065 65.8 111.307 66.064 111.307 66.592L110.317 74.38Z" fill="black"/>
<path d="M200.938 48.1051V36.4026C200.938 32.8812 198.036 30 194.488 30H158.512C154.964 30 152.062 32.8812 152.062 36.4026V48.1051H127V78.8196H131.035V144H221.965V78.8204H226V48.1051H200.938Z" fill="#FEDD00"/>
<path d="M186.118 56.7062V50.3897L182.911 56.7062H186.118ZM191.852 37.3135V56.7062H194.945V62.3973H191.852V68.26H186.118V62.3973H173.6L186.337 37.3135H191.852Z" fill="#231815"/>
<path d="M157.521 65.3894C157.521 65.2806 157.531 64.126 157.531 61.0627C157.531 55.8546 161.683 53.3732 165.02 51.3799C168.524 49.2862 170.174 48.0505 170.174 45.7691C170.174 44.0866 169.605 43.0437 166.778 43.0437C163.434 43.0437 163.264 44.8258 163.264 45.1829V46.25H157.531V45.1829C157.531 42.4746 159.463 37.3525 166.778 37.3525C172.409 37.3525 175.908 40.5773 175.908 45.7691C175.908 51.5157 171.324 54.2546 167.978 56.2551C164.701 58.2136 163.264 59.26 163.264 61.0627L163.263 62.5673H173.62V68.2585H157.498L157.521 65.3894Z" fill="#231815"/>
<path d="M152.062 53.7959H132.734V60.6168H152.062V53.7959Z" fill="#231815"/>
<path d="M132.734 66.3086H152.062V72.11C152.062 72.3811 152.084 72.6471 152.117 72.9097H132.734V66.3093V66.3086Z" fill="#231815"/>
<path d="M173.164 94.2715H155.541V138.309H173.164V94.2715Z" fill="#231815"/>
<path d="M196.522 94.2715H178.898V138.309H196.522V94.2715Z" fill="#231815"/>
<path d="M216.232 138.309H202.256V88.58H149.807V138.309H136.769V78.8203H216.232V138.309Z" fill="#231815"/>
<path d="M220.266 72.9087H200.882C200.916 72.6462 200.938 72.3808 200.938 72.1091V66.3076H220.266V72.908V72.9087Z" fill="#231815"/>
<path d="M220.266 53.7959H200.938V60.6168H220.266V53.7959Z" fill="#231815"/>
</svg>
