<svg width="395" height="386" viewBox="0 0 395 386" fill="none" xmlns="http://www.w3.org/2000/svg">
<path d="M162.596 1.38061C162.596 1.38061 95.5459 10.011 49.9492 62.4539C49.9492 62.4539 85.0774 26.0236 106.5 26.0236L111.286 28.0487C111.286 28.0487 110.605 29.8535 109.941 30.5346C109.231 31.2585 106.502 34.8946 106.502 35.796C106.502 36.7137 106.737 39.6748 106.737 39.6748L105.18 41.9364C105.18 41.9364 103.555 42.6257 103.092 43.317C102.632 43.9777 101.726 44.2163 101.726 45.8192C101.726 47.4364 102.175 49.4777 102.175 49.4777L102.402 53.3443L101.281 55.6344L98.2789 57.4433C98.2789 57.4433 94.8989 58.1183 93.5049 57.4433C92.1394 56.7479 91.6802 54.0315 91.6802 54.0315L95.5459 51.5232C95.5459 51.5232 96.0194 50.8053 94.8989 50.1344C93.7396 49.4798 93.9804 47.1815 91.9006 47.6587C89.8596 48.0992 86.6878 50.8053 86.6878 50.8053L83.2487 53.1199C83.2487 53.1199 81.6791 57.2067 82.3465 57.2067C83.0385 57.2067 84.859 58.3712 84.859 58.3712C84.859 58.3712 85.3101 59.4887 85.3101 60.6348C85.3101 61.7809 84.1549 64.0302 84.1549 64.0302C84.1549 64.0302 83.4895 65.1947 81.2158 64.7481C78.8849 64.2709 76.8582 63.81 75.5152 63.3675C74.1273 62.8923 72.7496 62.2091 71.4066 62.6741C70.0105 63.1289 69.5533 63.5877 69.3451 64.2688C69.1023 64.9642 64.3405 67.6867 64.3405 67.6867C64.3405 67.6867 62.7199 68.3719 62.7199 69.2733C62.7199 70.2094 61.3422 73.613 61.3422 73.613C61.3422 73.613 59.7584 75.2118 56.8009 75.897C53.8108 76.572 53.1495 77.4734 53.1495 77.4734L51.5473 80.8953C51.5473 80.8953 49.2899 82.5044 47.6898 84.5559C46.0794 86.5891 41.2728 90.0335 40.64 90.2578C39.9297 90.4842 38.0928 92.5296 37.4091 94.3507C36.7355 96.1718 36.9662 98.9086 36.2661 99.8059C35.5742 100.707 34.7006 103.226 34.4679 105.065C34.223 106.892 33.0964 109.15 32.1799 109.847C31.239 110.508 29.9144 111.879 29.2184 112.111C28.5224 112.356 24.4056 113.712 23.0483 114.656C21.7053 115.529 21.0032 117.827 21.0032 118.508C21.0032 119.208 23.0483 120.78 23.7464 120.78C24.4056 120.78 26.4752 121.469 26.4752 121.469C26.4752 121.469 26.7018 125.132 26.7018 125.776C26.7018 126.454 25.3139 129.886 26.7018 129.886C28.0591 129.886 30.1205 130.355 30.1205 130.355L33.7658 131.276L36.9662 133.318L38.7704 134.694C38.7704 134.694 38.3255 136.711 37.8867 137.429C37.4091 138.092 36.4784 139.715 35.8416 139.46C35.1354 139.222 35.364 139.222 34.7006 137.639C34.0005 136.051 34.223 135.375 32.6371 134.89C31.0104 134.437 29.4368 136.048 28.7224 135.579C28.057 135.151 26.9304 135.151 25.7629 133.983C24.6567 132.845 24.4036 134.89 24.6567 132.845C24.869 130.805 25.7629 129.886 25.3119 128.99C24.869 128.075 23.5096 126.031 22.5871 126.031C21.7013 126.031 23.0463 127.838 21.7013 126.031C20.3093 124.174 19.3724 123.478 18.703 123.733C18.0213 123.972 17.1355 124.174 17.1355 123.05C17.1355 121.91 17.807 119.616 17.807 118.506C17.807 117.348 18.4866 115.527 18.4866 114.654C18.4866 113.71 19.3724 108.234 19.3724 108.234C19.3724 108.234 13.3167 120.181 11.2001 129.278C11.2001 129.278 13.6167 128.988 13.6167 130.504C13.6167 132.019 14.2474 133.522 13.9066 135.047C13.6167 136.579 13.6167 136.267 13.6167 141.132C13.6167 145.998 14.8067 147.183 14.2474 148.715C13.6167 150.222 12.7248 152.347 12.4248 154.178C12.1104 156.001 13.6167 160.553 14.2474 161.497C14.8067 162.384 14.8067 162.725 15.7557 163.608C16.6436 164.519 14.2474 168.161 16.6436 164.519C19.0867 160.867 20.0072 159.364 20.0072 159.364L21.5421 157.514C21.5421 157.514 21.5421 155.114 24.5628 155.714C27.5856 156.307 27.8999 155.714 28.8122 156.913C29.7246 158.138 27.5856 161.171 29.1449 161.497C30.6573 161.787 35.2252 159.641 36.4518 159.994C37.6275 160.257 39.1786 160.553 39.7746 162.725C40.3706 164.825 41.2707 167.866 42.5035 168.476C43.7261 169.071 43.4036 171.804 44.0302 173.647C44.6262 175.446 48.9205 176.68 49.79 176.68C50.7227 176.68 54.9763 177.291 56.1968 177.889C57.4214 178.484 56.1968 180.636 58.6154 181.223C61.0402 181.839 61.6668 186.705 61.6668 186.705C61.6668 186.705 62.5852 190.963 61.9586 192.183C61.3402 193.357 61.6668 195.505 63.1914 195.829C64.6977 196.088 68.6675 196.714 68.6675 196.714C68.6675 196.714 66.5714 199.765 69.8493 200.966C73.2333 202.193 76.5684 203.393 77.4725 204.029C78.3747 204.61 75.3397 207.343 79.3115 207.059C83.2466 206.751 86.9103 206.117 88.7268 207.657C90.5393 209.166 89.0371 211.297 93.909 214.038C98.7544 216.76 100.271 217.696 101.496 218.284C102.73 218.92 105.178 218.59 104.545 222.24C103.914 225.9 103.326 228.309 101.496 229.832C99.6831 231.345 97.2134 236.217 96.0174 237.749C94.8091 239.266 93.5845 241.984 94.8091 244.424C96.0174 246.85 97.5543 249.585 97.5543 251.09C97.5543 252.605 98.1339 257.183 97.2134 259.005C96.3337 260.834 94.5111 264.162 94.5111 264.162C94.5111 264.162 97.8686 266.903 95.4092 269.334C92.9967 271.758 89.3269 274.491 87.5287 275.085C85.6836 275.696 82.02 279.049 82.02 279.049C82.02 279.049 82.3445 286.649 82.02 288.159C81.7301 289.672 74.7457 301.84 77.1684 304.573C79.6013 307.304 79.8932 310.334 79.3136 312.171C78.6992 314.011 77.7787 313.67 77.1684 315.194C76.5684 316.733 72.023 315.471 74.7437 319.772C77.4725 324.016 78.985 324.901 80.2075 327.352C81.4322 329.769 81.1178 330.69 82.9201 333.142C84.7631 335.573 85.6836 337.997 87.8145 339.796C89.9412 341.631 92.3599 342.843 92.3599 344.984C92.3599 347.095 96.9236 351.946 91.4659 348.306C85.9755 344.664 90.8332 348.014 83.861 342.245C76.8562 336.466 75.0437 338.893 72.0209 335.24C68.9737 331.61 73.5231 344.35 67.7205 329.167C61.9607 314.011 60.4401 315.812 58.9236 312.455C57.4235 309.125 58.6175 312.769 54.3782 305.179C50.1002 297.562 53.7761 302.438 50.1002 297.562C46.4651 292.694 46.1488 299.405 44.3384 290.583C42.5076 281.761 42.181 287.565 39.7787 277.548C37.3621 267.498 41.6075 267.211 36.1416 262.357C30.6614 257.467 30.9533 259.906 29.149 256.588C27.2998 253.229 29.7287 256.284 24.873 247.739C20.0092 239.268 13.3228 235.887 13.6208 221.326C13.9106 206.753 13.9106 204.323 13.9106 204.323C13.9106 204.323 6.62822 198.541 9.06726 190.025C11.4859 181.531 12.4288 184.239 11.4859 181.531C10.5654 178.809 9.66528 179.416 7.26094 176.052C4.80762 172.721 4.4831 173.056 3.90752 170.913C3.29113 168.765 2.39104 164.205 2.39104 164.205L0.554103 165.718C0.554103 165.718 -18.8908 357.74 172.599 385.968C172.599 385.968 128.39 376.42 124.761 367.755C124.761 367.755 123.847 359.553 125.668 359.553C127.488 359.553 130.231 360.911 132.972 358.647C135.716 356.369 138.893 353.645 138.893 353.645L139.344 357.285C139.344 357.285 136.636 357.74 145.306 356.369C153.95 354.977 153.95 355.927 157.163 354.548C160.365 353.186 163.994 346.328 165.831 350.429C167.639 354.548 163.5 352.697 167.639 354.548C171.744 356.369 179.475 353.645 179.475 353.645C179.475 353.645 192.701 354.548 194.048 353.186C195.436 351.805 195.436 349.536 197.73 349.97C200.004 350.431 201.382 354.089 201.382 354.089L194.048 358.19L187.235 363.203C187.235 363.203 184.043 364.096 186.801 365.473C189.525 366.837 190.881 366.376 194.048 366.837C197.32 367.286 205.039 373.234 206.833 369.574C208.67 365.932 209.132 365.473 210.495 363.203C211.858 360.911 211.415 358.19 214.604 358.19C217.792 358.19 220.992 359.11 220.992 359.11L218.239 364.988C218.239 364.988 223.741 364.574 225.997 364.574C228.297 364.574 228.74 368.197 231.942 364.988C235.13 361.823 235.594 361.823 238.808 361.372C241.982 360.911 246.513 359.551 247.901 360.01C249.264 360.47 252.016 360.909 253.373 360.909C254.751 360.909 261.547 365.93 262.935 364.985C264.325 364.092 272.526 364.571 272.526 364.571C272.526 364.571 250.187 385.079 202.749 385.964C202.749 385.964 308.879 390.832 368.469 287.557C428.033 184.233 386.712 51.8311 250.475 5.63461C250.475 5.63461 352.347 43.3149 379.25 140.818L378.319 142.654C375.615 139.905 375.615 141.281 373.304 136.705C371.047 132.143 372.872 133.071 371.047 129.88C369.253 126.706 369.645 128.986 367.379 125.77C365.107 122.587 364.669 123.044 362.84 121.225C361.007 119.404 359.195 113.481 357.78 111.646C356.462 109.841 352.349 109.364 350.514 108.922C348.669 108.461 349.596 106.164 348.669 108.461C347.777 110.741 351.422 114.399 351.422 114.399V121.686C351.422 121.686 354.196 128.501 354.196 130.347C354.196 132.141 351.871 137.172 351.871 137.172C351.871 137.172 350.983 142.654 349.163 143.574C347.332 144.432 336.841 146.296 336.841 146.296C336.841 146.296 333.629 142.654 331.816 139.454C329.989 136.263 324.064 135.369 323.176 133.977C322.24 132.586 324.54 129.88 321.782 126.25C319.037 122.587 321.782 123.474 318.133 120.297L314.49 117.124C314.49 117.124 306.285 114.399 308.989 118.926C311.741 123.472 308.571 128.501 310.83 128.986C313.11 129.431 314.49 127.616 316.312 131.692C318.135 135.798 318.57 137.633 319.941 138.993C321.323 140.384 321.782 146.296 323.623 146.736C325.422 147.181 330.434 146.736 329.991 149.037C329.54 151.282 326.809 154.463 329.991 155.436C333.18 156.305 333.629 157.684 335.463 157.243C337.282 156.758 336.364 157.686 339.586 156.305C342.734 154.943 346.405 154.943 346.405 154.943C346.405 154.943 350.516 158.134 350.516 159.49C350.516 160.867 349.165 168.596 349.165 168.596L345.05 176.359C345.05 176.359 345.485 190.021 343.193 190.021C340.925 190.021 338.194 195.961 336.843 196.861C335.463 197.78 335.021 206.906 335.021 206.906L330.9 211.897C330.9 211.897 330.434 218.732 330.9 220.568C331.363 222.391 332.284 229.677 331.363 233.291C330.434 236.978 325.422 240.618 325.422 240.618C325.422 240.618 332.281 247.001 328.628 247.921C324.983 248.845 321.323 254.284 320.425 255.648C319.482 257.014 319.941 259.769 317.69 260.21C315.386 260.652 311.287 261.144 311.287 262.488V269.328L304.005 279.83L295.327 287.063C295.327 287.063 296.243 292.119 293.498 292.555C290.82 293.004 281.645 296.66 280.27 298.031C278.906 299.397 272.059 302.581 269.812 302.581C267.511 302.581 271.157 308.964 267.511 302.581C263.884 296.181 266.593 300.319 263.425 293.004C260.202 285.715 260.202 291.205 260.202 285.715C260.202 280.273 260.664 285.273 260.202 280.273C259.751 275.268 261.549 278.91 258.847 272.978C256.1 267.05 256.573 268.861 252.928 265.22C249.269 261.574 246.517 265.22 248.817 259.312C251.11 253.382 249.726 259.312 251.11 253.382C252.432 247.458 250.638 246.557 254.285 243.818C257.967 241.095 261.107 240.618 260.666 236.976C260.204 233.289 260.204 231.947 259.302 229.675C258.374 227.393 254.755 223.778 254.285 222.389C253.84 221.014 253.84 221.93 251.11 217.839C248.366 213.712 246.517 211.448 246.517 211.448C246.517 211.448 245.629 201.898 245.629 198.231C245.629 194.564 244.286 200.523 245.629 194.581C246.987 188.679 247.452 185.02 247.452 185.02C247.452 185.02 240.598 180.475 237.855 180.915C235.132 181.378 235.598 185.477 231.471 182.302C227.382 179.121 228.299 176.831 226.936 175.931C225.556 174.995 222.831 174.553 220.545 176.359C218.241 178.217 213.224 178.217 209.134 180.016C205.041 181.839 203.678 181.378 198.175 181.378C192.705 181.378 186.329 183.201 182.233 180.915C178.136 178.637 177.665 181.837 175.818 177.291C174.011 172.719 175.818 173.168 171.748 170.91C167.643 168.596 166.709 170.45 166.264 166.349C165.835 162.229 168.078 163.149 164.874 159.492C161.712 155.848 166.707 161.316 161.712 155.848C156.724 150.375 154.865 154.947 156.724 150.375C158.52 145.847 159.867 148.578 159.867 143.086C159.867 137.637 168.076 145.364 163.059 134.437C158.051 123.478 157.165 125.776 161.712 117.572C166.262 109.368 172.205 106.646 173.126 104.816C174.011 102.995 175.816 98.4579 177.663 97.063C179.479 95.7211 178.134 94.3487 182.231 94.7994C186.329 95.2582 190.883 93.4371 193.636 90.6942C196.351 87.9656 200.006 83.8727 201.812 83.4118C203.678 82.953 202.749 83.8748 206.835 82.953C210.975 82.0333 211.86 81.5907 214.606 81.5907C217.351 81.5907 211.86 82.5023 219.629 81.1237C227.382 79.7717 225.556 79.7717 227.382 79.7717C229.219 79.7717 228.299 80.2061 231.471 80.6894C234.673 81.1237 234.22 74.2921 234.673 81.1237C235.132 87.9656 231.944 91.1592 237.412 91.5997C242.872 92.0524 237.412 92.0524 242.872 92.0524C248.366 92.0524 246.989 92.9966 249.726 94.3507C252.432 95.7232 253.84 97.5504 257.965 97.5504C262.043 97.5504 256.1 103.446 262.043 97.5504C267.962 91.5997 257.486 90.6963 267.962 91.5997C278.439 92.5296 279.811 94.7993 281.645 93.9C283.468 92.9966 283.927 94.7994 288.495 92.5296C293.059 90.2578 293.496 90.2578 295.324 91.1592C297.174 92.0524 297.174 96.1698 298.986 92.0524C300.792 87.9677 304.458 89.3544 298.986 86.5891C293.496 83.8748 291.681 87.0663 290.818 83.4118C289.873 79.7717 295.324 80.6894 289.873 79.7717C284.374 78.8621 285.293 78.8621 281.205 77.4734C277.082 76.1213 272.993 81.5928 271.64 77.4734C270.256 73.3866 262.519 80.2061 270.256 73.3866C278.027 66.5733 274.816 63.808 279.809 65.1947C284.85 66.5753 283.468 71.1005 286.67 68.3719C289.871 65.6311 295.79 63.81 289.871 59.7416C283.925 55.6344 288.054 57.4433 282.115 54.7024C276.177 51.9494 270.693 65.1967 267.96 63.3675C265.223 61.5464 263.88 60.2188 262.041 61.0855C260.2 61.9848 260.2 67.0097 259.749 70.66C259.298 74.2941 262.933 75.2118 257.018 72.475C251.107 69.7179 263.423 71.1026 250.185 66.0736C236.951 61.0855 232.395 62.4559 230.544 64.2688C228.738 66.0736 225.995 65.6311 224.629 67.0097C223.272 68.3719 228.74 71.5675 223.272 68.3719C217.786 65.1947 212.322 70.2094 212.322 70.2094C212.322 70.2094 210.495 69.2733 208.244 71.1026C205.941 72.9298 201.384 74.2941 198.645 73.3886C195.932 72.475 189.97 74.2941 194.979 67.9172C200.006 61.5464 196.351 65.1947 204.092 61.9848C211.86 58.8137 223.272 58.3712 213.224 56.0647C203.192 53.7644 218.726 53.7644 205.492 47.4384C192.266 41.0268 191.793 49.6674 192.266 41.0268C192.707 32.3761 191.356 31.8989 188.621 32.3761C185.849 32.8166 177.665 34.656 174.475 35.0986C171.291 35.5574 174.942 38.2982 169.023 34.656C163.061 31.0138 160.786 36.469 163.061 31.0138C165.343 25.5505 165.835 24.6471 169.468 21.4331C173.128 18.2498 172.207 6.39528 181.324 10.9491C190.458 15.5191 186.805 14.1569 194.052 14.5709C201.386 15.0481 204.588 13.7042 204.588 12.3256C204.588 10.947 196.353 6.84188 196.353 6.84188C196.353 6.84188 193.638 7.74734 194.538 6.3912C195.438 5.04933 197.324 2.31462 197.324 2.31462L194.538 0C194.538 0 169.023 0 162.606 1.37857L162.596 1.38061Z" fill="white" fill-opacity="0.25"/>
</svg>
