<svg width="226" height="175" viewBox="0 0 226 175" fill="none" xmlns="http://www.w3.org/2000/svg">
<path d="M87.175 174.35C135.32 174.35 174.35 135.32 174.35 87.175C174.35 39.0296 135.32 0 87.175 0C39.0296 0 0 39.0296 0 87.175C0 135.32 39.0296 174.35 87.175 174.35Z" fill="#FEDD00"/>
<path fill-rule="evenodd" clip-rule="evenodd" d="M63.0548 146.146C63.0548 146.146 66.4868 145.492 70.2478 144.675C74.0078 143.858 77.1128 145.329 81.8538 145.329C86.5948 145.329 75.8058 139.608 85.4498 138.953C95.0938 138.299 98.0358 136.991 106.864 136.828C115.691 136.665 121.353 137.845 123.641 136.211C125.929 134.577 132.364 127.348 130.73 127.02C129.096 126.692 118.798 130.289 120.922 125.385C123.047 120.482 128.932 116.558 128.932 115.577C128.932 114.596 133.183 111.816 130.241 107.566C127.299 103.317 121.415 104.46 120.597 104.624C119.78 104.788 114.222 107.403 115.203 103.316C116.184 99.2287 115.857 94.3247 114.059 92.6897C112.261 91.0557 110.953 83.3717 108.011 81.9007C105.068 80.4297 101.799 77.3237 101.636 74.7087C101.473 72.0937 97.0588 64.0827 95.2608 63.1027C93.4628 62.1217 89.5398 61.3047 89.5398 61.3047C89.5398 61.3047 88.0718 59.7917 90.4418 54.9687C92.8118 50.1457 95.6728 46.1417 95.9998 45.0787C96.3268 44.0157 98.9418 38.4577 94.3648 37.9677C89.7878 37.4777 85.4558 37.6407 84.2298 38.1307C83.0048 38.6207 79.8168 40.0927 79.8168 40.0927C79.8168 40.0927 78.1008 37.6407 80.4708 34.6987C82.8408 31.7557 85.2938 32.5727 86.6008 28.8137C87.9078 25.0537 87.9078 24.5637 87.9078 24.5637C87.9078 24.5637 85.4558 25.2177 81.6148 25.0547C77.7738 24.8917 75.8928 23.9917 74.4218 24.8087C72.9518 25.6257 71.2348 28.4867 70.4988 29.4677C69.7628 30.4487 68.7008 34.4537 67.6378 36.2517C66.5748 38.0497 67.6378 44.0157 66.4118 43.5257C65.1858 43.0347 62.2438 36.2517 59.9548 37.9677C57.6668 39.6847 57.2578 41.0737 58.4018 42.0537C59.5458 43.0337 63.5508 47.2847 63.9598 48.6747C64.3678 50.0637 62.1198 53.9467 62.1198 56.1527C62.1198 58.3587 66.6488 59.0957 66.3068 60.5957C66.0818 61.5827 65.5038 64.9317 65.5958 67.7637C65.6828 70.4467 66.3728 72.6657 68.5368 71.9657C69.9258 71.5167 71.9278 72.9467 71.9688 73.4367C72.0098 73.9267 71.5198 79.7287 72.1728 80.1377C72.8268 80.5457 80.7538 77.8497 81.3268 78.3397C81.8988 78.8307 81.1628 81.4457 83.0428 84.6327C84.9228 87.8207 87.0488 87.8207 87.7838 89.8637C88.5198 91.9067 86.7218 96.3207 86.7218 97.3007C86.7218 98.2807 88.8468 100.162 85.7408 100.08C82.6348 99.9977 78.1398 97.6267 76.5058 97.9547C74.8708 98.2807 73.6448 101.387 74.4618 102.041C75.2788 102.695 79.2018 102.694 77.6498 108.497C76.0968 114.301 75.4438 115.035 72.7458 116.67C70.0488 118.305 66.1258 123.046 67.9238 123.781C69.7218 124.517 72.6648 122.637 75.8518 125.007C79.0398 127.377 86.3128 128.358 86.3128 128.358C86.3128 128.358 76.7598 130.271 75.4618 131.79C74.1638 133.31 73.1628 137.308 69.5678 138.697C65.9708 140.088 61.3028 143.644 63.0528 146.143L63.0548 146.146Z" fill="white"/>
<path fill-rule="evenodd" clip-rule="evenodd" d="M54.969 73.803C54.969 73.803 60.036 75.519 60.772 77.971C61.508 80.423 63.796 85.654 63.796 86.88C63.796 88.106 62.979 88.515 60.118 91.212C57.257 93.909 53.906 91.375 51.781 90.15C49.656 88.924 48.758 91.866 45.488 92.52C42.219 93.174 37.314 92.275 36.906 89.823C36.498 87.371 36.007 85.654 39.358 83.121C42.709 80.587 43.935 75.683 44.997 74.13C46.059 72.577 50.473 72.905 51.699 72.986C52.924 73.067 54.968 73.803 54.968 73.803H54.969Z" fill="white"/>
<path d="M53.302 109.528C49.166 109.528 45.888 108.384 43.468 106.096C41.048 103.764 39.838 100.64 39.838 96.724C39.838 95.712 39.882 94.942 39.97 94.414L43.732 63.592C43.776 63.372 43.864 63.196 43.996 63.064C44.172 62.888 44.37 62.8 44.59 62.8H53.698C53.918 62.8 54.094 62.888 54.226 63.064C54.358 63.196 54.402 63.372 54.358 63.592L50.53 94.942C50.486 95.162 50.464 95.47 50.464 95.866C50.464 97.186 50.816 98.242 51.52 99.034C52.268 99.782 53.258 100.156 54.49 100.156C55.854 100.156 56.998 99.672 57.922 98.704C58.89 97.736 59.462 96.482 59.638 94.942L63.532 63.592C63.576 63.372 63.664 63.196 63.796 63.064C63.972 62.888 64.17 62.8 64.39 62.8H73.498C73.718 62.8 73.894 62.888 74.026 63.064C74.158 63.196 74.202 63.372 74.158 63.592L70.33 94.414C69.978 97.406 69.032 100.046 67.492 102.334C65.952 104.622 63.95 106.404 61.486 107.68C59.066 108.912 56.338 109.528 53.302 109.528ZM74.4983 109C74.2783 109 74.1023 108.934 73.9703 108.802C73.8383 108.626 73.7943 108.428 73.8383 108.208L79.3163 63.592C79.3603 63.372 79.4483 63.196 79.5803 63.064C79.7563 62.888 79.9543 62.8 80.1743 62.8H89.2823C89.5023 62.8 89.6783 62.888 89.8103 63.064C89.9423 63.196 89.9863 63.372 89.9423 63.592L87.9623 79.63C87.9183 79.806 87.9403 79.916 88.0283 79.96C88.1603 79.96 88.2703 79.894 88.3583 79.762L100.172 63.328C100.348 62.976 100.656 62.8 101.096 62.8H111.062C111.458 62.8 111.656 62.932 111.656 63.196C111.656 63.328 111.59 63.504 111.458 63.724L97.5983 82.996C97.5543 83.084 97.5323 83.238 97.5323 83.458L106.64 108.076L106.706 108.34C106.706 108.78 106.442 109 105.914 109H96.0143C95.6623 109 95.3763 108.802 95.1563 108.406L89.2163 91.906C89.0843 91.686 88.9303 91.686 88.7543 91.906L86.1143 95.47C86.0263 95.646 85.9823 95.778 85.9823 95.866L84.4643 108.208C84.4203 108.428 84.3103 108.626 84.1343 108.802C84.0023 108.934 83.8263 109 83.6063 109H74.4983Z" fill="black"/>
<path d="M200.938 45.1051V33.4026C200.938 29.8812 198.036 27 194.488 27H158.512C154.964 27 152.062 29.8812 152.062 33.4026V45.1051H127V75.8196H131.035V141H221.965V75.8204H226V45.1051H200.938Z" fill="#FEDD00"/>
<path d="M186.118 53.7062V47.3897L182.911 53.7062H186.118ZM191.852 34.3135V53.7062H194.945V59.3973H191.852V65.26H186.118V59.3973H173.6L186.337 34.3135H191.852Z" fill="#231815"/>
<path d="M157.521 62.3894C157.521 62.2806 157.531 61.126 157.531 58.0627C157.531 52.8546 161.683 50.3732 165.02 48.3799C168.524 46.2862 170.174 45.0505 170.174 42.7691C170.174 41.0866 169.605 40.0437 166.778 40.0437C163.434 40.0437 163.264 41.8258 163.264 42.1829V43.25H157.531V42.1829C157.531 39.4746 159.463 34.3525 166.778 34.3525C172.409 34.3525 175.908 37.5773 175.908 42.7691C175.908 48.5157 171.324 51.2546 167.978 53.2551C164.701 55.2136 163.264 56.26 163.264 58.0627L163.263 59.5673H173.62V65.2585H157.498L157.521 62.3894Z" fill="#231815"/>
<path d="M152.062 50.7959H132.734V57.6168H152.062V50.7959Z" fill="#231815"/>
<path d="M132.734 63.3086H152.062V69.11C152.062 69.3811 152.084 69.6471 152.117 69.9097H132.734V63.3093V63.3086Z" fill="#231815"/>
<path d="M173.164 91.2715H155.541V135.309H173.164V91.2715Z" fill="#231815"/>
<path d="M196.522 91.2715H178.898V135.309H196.522V91.2715Z" fill="#231815"/>
<path d="M216.232 135.309H202.256V85.58H149.807V135.309H136.769V75.8203H216.232V135.309Z" fill="#231815"/>
<path d="M220.266 69.9087H200.882C200.916 69.6462 200.938 69.3808 200.938 69.1091V63.3076H220.266V69.908V69.9087Z" fill="#231815"/>
<path d="M220.266 50.7959H200.938V57.6168H220.266V50.7959Z" fill="#231815"/>
</svg>
