<svg width="1049" height="607" viewBox="0 0 1049 607" fill="none" xmlns="http://www.w3.org/2000/svg">
<path d="M819.865 376.104C813.917 369.322 812.212 361.196 811.523 352.442C811.279 349.353 807.491 346.62 806.992 343.461C805.97 337 800.214 331.539 802.995 324.255C803.35 323.325 802.168 321.807 799.676 318.958C799.082 320.413 798.895 322.477 797.812 323.201C795.21 324.941 791.925 324.186 792.504 320.851C793.76 313.609 788.868 309.757 785.458 304.909C783.665 302.36 782.32 299.498 780.527 296.347C779.459 297.574 777.93 299.329 775.866 301.7C772.422 301.252 768.423 301.106 768.221 307.597C768.164 309.42 765.07 311.183 763.307 312.91C760.349 315.808 757.336 318.649 754.359 321.528C753.661 322.204 753.144 323.272 752.324 323.583C747.014 325.601 746.27 328.862 747.191 334.463C748.136 340.197 747.967 346.719 743.376 351.599C742.172 352.878 740.299 353.782 738.58 354.157C738.106 354.261 736.904 351.908 736.337 350.556C732.961 342.508 729.54 334.474 726.415 326.327C724.979 322.582 723.817 318.648 723.201 314.695C722.67 311.29 723.091 307.736 723.091 304.105C720.04 304.573 717.679 305.318 715.384 305.153C713.842 305.042 711.277 303.842 711.088 302.785C710.04 296.945 705.661 294.156 701.503 291.021C700.795 290.487 700.427 289.504 699.49 290.007C695.914 289.32 692.338 288.633 687.504 287.704C682.31 291.691 672.434 289.151 669.751 281.352C665.615 284.489 661.161 285.52 656.937 281.989C653.613 279.211 650.753 275.875 647.687 272.787C648.034 272.304 648.381 271.82 648.728 271.336H640.396C643.786 275.503 646.525 278.992 649.4 282.365C651.382 284.69 654.687 285.421 654.647 289.953C654.613 293.809 662.155 294.287 665.264 290.681C666.349 289.424 667.163 287.935 667.672 287.185C671.986 290.799 675.913 294.056 679.801 297.358C682.929 300.013 682.276 302.656 679.685 305.261C678.753 306.198 677.133 307.127 677.065 308.142C676.417 317.849 667.423 318.611 661.633 322.716C658.39 325.016 654.784 326.801 651.355 328.841C645.711 332.198 637.906 330.428 633.437 337.127C631.733 339.682 626.492 336.043 627.231 331.668C628.937 321.577 622.091 315.302 617.95 307.757C616.085 304.36 614.456 300.834 612.63 297.414C611.081 294.514 609.39 291.69 607.783 288.82C606.513 286.552 605.365 284.208 603.988 282.009C603.205 280.759 602.241 279.489 601.057 278.654C598.72 277.004 596.173 275.648 591.989 273.136C595.455 278.061 597.892 281.826 600.643 285.345C603.141 288.541 606.754 291.178 603.99 296.04C603.603 296.722 603.761 298.263 604.288 298.832C611.384 306.503 613.253 316.859 618.241 325.581C619.971 328.608 623.298 330.76 624.858 333.838C631.032 346.015 641.003 348.033 651.722 338.932C651.988 338.707 652.438 338.698 653.165 338.477C654.572 340.078 656.08 341.796 657.424 343.325C654.32 350.82 652.163 358.655 648.026 365.249C644.173 371.393 638.795 376.957 633.059 381.466C620.731 391.157 616.273 405.879 620.574 421.06C622.693 428.543 625.523 436.852 620.339 444.618C619.821 445.394 619.201 446.656 618.554 446.706C611.682 447.231 610.161 454.263 605.495 457.497C604.186 458.404 604.25 461.747 604.248 463.973C604.243 467.06 605.253 470.206 604.891 473.214C604.674 475.015 602.801 476.723 601.418 478.24C600.445 479.309 597.954 480.056 598.002 480.828C598.422 487.413 593.643 491.798 591.407 497.215C590.635 499.086 589.05 500.659 587.688 502.239C585.849 504.372 583.754 506.289 581.979 508.469C580.283 510.552 569.562 513.554 566.82 513.26C564.727 513.036 561.708 513.454 560.466 514.824C557.032 518.612 553.838 516.731 551.117 514.781C548.09 512.611 545.721 509.518 548.862 506.151C546.966 501.731 545.328 497.597 543.42 493.592C542.409 491.471 540.479 489.72 539.767 487.54C538.599 483.966 538.136 480.167 537.285 476.483C536.028 471.044 535.85 464.942 533.146 460.336C527.612 450.913 526.405 442.35 533.351 433.321C538.136 427.101 533.152 420.905 532.869 414.703C532.704 411.1 532.228 407.228 530.7 404.049C529.086 400.691 526.208 397.873 523.606 395.078C520.659 391.913 517.919 389.544 521.414 384.45C523.333 381.654 522.827 376.917 522.608 373.102C522.543 371.976 519.854 370.51 518.143 370.064C513.39 368.827 507.77 369.257 506.957 362.22C506.871 361.479 504.384 360.445 503.081 360.536C500.6 360.71 497.734 360.971 495.802 362.312C490.841 365.754 485.763 366.636 479.823 365.89C477.085 365.546 473.211 366.554 471.369 368.435C467.996 371.878 465.152 371.069 462.925 368.314C456.115 359.886 449.723 351.12 443.182 342.476C442.736 341.887 442.5 340.759 442 340.65C435.841 339.316 439.531 335.924 440.601 332.991C439.048 331.696 437.569 330.462 435.333 328.596C444.944 323.891 439.905 315.637 440.618 308.51C441.312 301.566 441.598 294.092 444.49 288.003C447.011 282.695 452.632 278.653 457.418 274.698C460.648 272.03 462.053 269.301 461.785 265.219C461.486 260.672 462.37 257.408 468.195 256.243C470.743 255.733 472.405 250.797 474.526 247.792C476.818 248.629 478.936 249.614 481.163 250.136C482.51 250.452 484.517 250.627 485.391 249.882C493.201 243.224 502.819 242.951 512.234 241.929C515.267 241.6 518.344 241.114 521.355 241.333C523.29 241.474 526.697 242.67 526.755 243.567C526.977 247.019 531.077 251.393 524.374 253.818C524.438 254.402 524.502 254.986 524.567 255.57C528.054 256.95 531.576 258.25 535.019 259.732C538.616 261.281 542.143 262.991 545.689 264.657C548.044 265.763 550.378 266.914 552.732 268.051C553.635 265.048 553.958 262.468 555.142 260.376C557.104 256.909 559.577 256.669 563.443 258.721C567.843 261.056 571.749 264.984 577.561 264.482C579.286 264.333 581.182 266.163 581.428 266.288C585.504 265.506 588.544 263.976 590.964 264.655C596.082 266.09 598.528 263.94 599.772 259.686C601.05 255.32 601.798 250.798 602.133 245.594C595.868 247.997 590.434 242.397 584.201 245.676C582.63 246.503 577.518 243.187 575.89 240.605C574.194 237.913 574.646 233.814 574.391 230.314C574.339 229.592 575.314 228.796 575.918 227.878C573.052 227.462 570.578 227.102 568.25 226.764C566.596 228.686 564.997 230.543 563.055 232.801C564.281 233.726 565.854 234.912 567.255 235.97C566.187 237.665 565.447 240.232 564.172 240.533C562.318 240.97 558.924 240.429 558.205 239.161C555.305 234.045 553.551 228.276 550.611 223.189C549.151 220.665 545.851 219.277 543.716 217.055C540.594 213.805 537.787 210.254 534.806 206.867C534.203 206.182 533.422 205.653 532.341 204.723C531.431 206.094 530.201 207.117 530.124 208.221C529.907 211.339 538.193 220.382 540.878 221.991C544.602 224.222 547.714 227.475 551.088 230.291C550.691 230.814 550.294 231.338 549.897 231.862C548.388 231.463 546.879 231.063 546.029 230.839C544.039 234.878 542.16 238.691 539.983 243.111C537.669 241.71 535.579 240.443 533.49 239.177C533.646 238.729 533.803 238.28 533.96 237.831C535.957 237.598 537.955 237.364 540.1 237.114C542.323 230.888 536.914 228.904 533.861 225.923C529.745 221.903 525.179 218.345 520.806 214.588C521.053 213.902 521.3 213.217 521.547 212.53C518.502 214.028 515.458 215.527 511.837 217.309C509.707 216.791 506.667 216.052 503.628 215.312C503.924 215.962 504.22 216.612 504.515 217.262C501.216 221.016 498.082 224.936 494.551 228.456C492.669 230.332 489.955 230.959 492.057 234.841C492.76 236.14 489.514 239.307 488.596 241.811C486.803 246.706 483.406 244.473 480.311 244.074C477.617 243.728 474.526 249.303 472.129 243.5C471.891 242.923 470.701 242.139 470.338 242.303C464.32 245.02 463.259 240.001 461.468 236.51C460.894 235.39 460.787 233.114 461.499 232.403C465.283 228.628 464.235 224.248 463.664 219.853C463.152 215.922 464.388 213.2 468.834 213.466C471.729 213.639 474.582 214.436 477.471 214.824C480.146 215.183 482.844 215.371 485.859 215.666C486.396 212.217 487.984 208.402 487.197 205.163C486.498 202.284 483.163 200.048 481.001 197.519C480.085 196.446 479.197 195.35 478.296 194.264C479.364 193.618 480.442 192.987 481.499 192.324C483.57 191.024 485.629 189.707 487.487 188.527C490.409 187.374 493.328 186.658 495.756 185.15C498.527 183.428 500.861 181.001 504.699 177.776C504.285 170.596 512.574 171.987 518.729 169.262C518.23 167.204 518.213 164.762 517.107 163.004C513.488 157.253 513.653 156.349 520.422 154.045C520.03 153.065 519.403 152.125 519.348 151.152C519.308 150.442 519.852 149.431 520.452 149.039C520.902 148.746 522.447 149.116 522.493 149.374C523.038 152.374 523.456 155.402 523.773 158.436C524.058 161.156 523.484 164.255 524.648 166.474C525.255 167.631 528.801 167.196 531.003 167.576C537.152 168.635 541.959 163.337 548.86 164.814C553.765 165.863 553.488 158.429 554.856 154.452C555.541 152.465 555.728 150.307 556.189 147.983C559.035 149.72 560.942 150.884 562.849 152.048C563.373 151.656 563.897 151.263 564.42 150.87C560.563 147.443 559.282 144.1 565.699 140.3C556.548 140.282 553.29 135.416 552.886 128.862C552.736 126.428 555.05 123.739 556.537 121.35C557.309 120.11 558.774 119.318 559.843 118.242C561.476 116.596 563.037 114.879 565.483 112.288C563.272 111.637 560.571 109.965 558.39 110.484C556.748 110.874 555.916 114.186 554.467 115.991C552.296 118.695 550.341 121.967 547.497 123.648C542.779 126.437 540.942 130.788 544.532 134.882C548.808 139.758 549.295 143.401 543.912 148.145C540.608 151.057 539.183 156.025 536.544 159.813C535.766 160.932 533.728 161.173 532.267 161.816C531.773 160.57 531.338 159.296 530.772 158.084C529.252 154.826 528.181 151.16 525.919 148.525C524.689 147.092 521.3 146.789 519.059 147.128C516.167 147.566 513.449 149.157 510.633 150.26C508.67 144.9 506.818 140.443 505.421 135.848C504.135 131.622 506.987 127.109 511.677 125.412C519.905 122.433 524.687 116.499 528.343 108.622C530.804 103.317 533.975 97.7853 541.535 96.7617C545.844 96.1784 549.793 92.9358 554.367 90.6605C552.62 88.3878 551.695 87.1854 549.618 84.4837H561.8V81.1559C566.605 79.5548 571.085 84.7485 575.63 81.1871C575.924 80.9569 577.386 81.5148 577.627 82.0256C581.459 90.152 590.799 89.6608 596.836 94.3383C598.799 95.8596 601.581 96.3049 603.608 97.7695C605.153 98.8863 607.304 101.101 607.029 102.352C606.607 104.262 604.551 106.839 602.785 107.209C599.183 107.963 595.312 107.435 591.204 107.435C591.431 112.569 593.758 117.14 598.045 119.847C598.218 117.478 598.393 115.074 598.568 112.671C600.847 113.738 603.126 114.806 605.405 115.873C610.388 115.713 600.221 109.931 607.445 108.818C610.69 108.318 613.834 107.158 617.815 106.084C616.978 103.589 615.677 99.7129 614.278 95.5415C619.051 94.018 621.983 94.8588 622.685 99.7468C623.234 103.566 625.644 104.336 627.789 101.782C633.483 95.0003 641.368 95.4629 648.879 94.3233C651.741 93.8888 654.525 92.9323 658.046 92.0345C658.437 92.536 659.427 93.8063 660.416 95.077C660.792 95.0134 661.168 94.9501 661.544 94.8865C661.343 92.6914 661.141 90.4962 660.907 87.9441C670.046 86.1726 677.482 88.9916 683.222 96.8727C683.663 96.3538 684.104 95.8353 684.545 95.3164C683.354 93.3718 682.233 91.3795 680.956 89.4923C678.276 85.5296 674.087 81.9072 680.119 77.0971C681.454 76.0319 680.932 72.8953 681.936 71.0853C683.018 69.1357 684.826 66.3449 686.43 66.2678C688.163 66.1842 691.038 68.4834 691.643 70.3254C693.458 75.8446 694.416 81.6462 695.686 87.3427C695.812 87.9109 695.608 88.6083 695.86 89.0848C699.428 95.8129 701.154 101.974 690.09 104.504C690.59 105.131 691.09 105.758 691.59 106.385C693.837 105.926 696.45 106.017 698.223 104.842C699.813 103.788 700.744 101.443 701.505 99.4893C704.318 92.2689 704.246 92.2407 710.682 95.6672C709.852 90.8077 708.567 90.1188 703.856 91.2815C702.635 91.583 700.028 90.9003 699.901 90.2884C698.642 84.2003 697.748 78.0358 696.84 71.8799C696.775 71.44 697.41 70.8968 698.037 69.8937C700.628 73.9443 703.121 77.8412 705.613 81.738C706.179 81.4674 706.744 81.1963 707.309 80.9249C707.095 79.6014 706.24 77.6538 706.798 77.0801C708.063 75.7794 710.675 73.9636 711.589 74.4632C715.499 76.5975 718.993 79.4958 723.561 81.5992C721.483 79.1901 719.296 76.8639 717.365 74.3418C716.091 72.6775 714.098 70.5016 714.421 68.9765C714.738 67.4772 717.449 65.7906 719.33 65.469C722.647 64.9023 726.131 65.3102 730.14 65.3102C728.341 62.644 727.189 60.9353 726.036 59.2267C728.018 58.0994 729.959 56.8905 731.99 55.8615C736.614 53.5199 741.96 54.6668 746.914 51.854C750.554 49.7869 756.443 51.6551 761.328 51.8239C762.246 51.8556 763.155 52.1435 764.183 52.334C764.541 50.5961 764.485 48.9291 765.214 47.7455C766.522 45.6229 768.028 42.6066 769.959 42.1601C772.013 41.6855 775.273 43.1659 776.901 44.8568C779.51 47.5647 780.947 49.7564 785.282 46.882C788.884 44.4937 800.51 49.2988 801.212 53.5056C801.65 56.1237 799.095 59.7807 796.952 62.1185C795.253 63.9725 792.086 64.4289 789.676 65.7042C788.348 66.407 787.237 67.5192 786.32 68.8076C804.261 63.2839 812.276 63.6213 830.206 71.0279C835.174 64.7655 842.137 63.3822 846.514 68.2683C847.689 69.5791 847.063 72.5021 847.392 76.0824C853.113 79.9889 857.712 80.093 859.69 76.4683C866.88 77.1472 873.494 77.7718 881.093 78.4892C877.384 72.7118 880.591 70.7707 883.903 69.7317C890.345 70.9095 894.811 75.4822 901.371 73.8614C903.758 73.2716 907.01 74.5453 909.383 75.8499C915.302 79.1037 920.398 83.4231 928.274 80.5521C932.78 78.9094 937.873 80.6269 941.3 85.0858C942.782 87.0142 944.874 88.4742 946.55 90.019C954.307 82.5927 961.949 89.2298 969.886 88.3358C970.749 84.6622 973.238 84.8619 977.536 84.7273C986.061 84.4609 992.718 89.4681 1000.58 90.4276C1001.52 90.5425 1002.71 90.8393 1003.27 91.4928C1007.33 96.195 1013.61 96.6861 1018.49 99.7503C1019.84 100.598 1020.62 102.359 1020.94 102.774C1026.94 103.369 1032.33 103.809 1037.65 104.641C1038.01 104.696 1038.59 108.298 1037.83 109.241C1036.77 110.542 1034.53 110.881 1032.46 111.782C1032.98 112.686 1033.83 113.576 1033.99 114.575C1034.2 115.914 1033.87 117.337 1033.77 118.724C1032.23 118.593 1030.53 118.829 1029.17 118.263C1024.94 116.501 1020.6 114.798 1016.76 112.354C1014.32 110.805 1012.7 107.975 1009.87 104.759V112.529C1008.17 113.717 1006.3 115.014 1004.31 116.407C1007.58 120.261 1015.61 120.499 1013.07 128.337C1002.03 126.135 997.351 128.929 993.39 139.228C989.734 138.364 985.59 135.955 982.842 137.05C978.019 138.971 971.313 140.327 971.616 147.302C974.123 149.773 976.331 151.95 978.845 154.429C975.027 163.314 971.43 171.687 967.478 180.884C965.355 179.199 963.638 178.53 963.189 177.369C960.145 169.52 953.768 162.067 956.523 153.262C958.322 147.514 962.693 142.348 966.698 137.581C970.244 133.36 970.736 133.686 967.585 129.47C966.781 130.642 965.952 131.639 965.358 132.761C963.926 135.464 962.709 135.158 960.442 133.301C958.408 131.634 954.651 129.475 953.189 130.29C950.742 131.652 948.631 134.999 947.947 137.882C946.054 145.863 943.858 146.88 937.306 142.194C936.206 141.407 933.967 141.967 932.316 142.257C929.924 142.677 927.612 143.775 925.222 143.94C921.537 144.194 917.669 143.258 914.154 144.051C911.451 144.661 908.73 146.765 906.831 148.922C904.965 151.043 904.301 154.173 902.785 156.664C901.401 158.939 899.584 160.951 897.819 163.26C900.4 165.421 902.788 167.422 905.235 169.47C908.843 166.055 911.823 166.18 914.767 170.506C916.045 172.383 917.213 174.741 917.322 176.936C917.86 187.732 918.407 198.585 911.626 208.113C908.245 212.864 906.432 219.533 898.095 217.209C896.995 216.902 894.543 218.999 893.75 220.52C891.81 224.245 890.475 228.284 889.116 231.651C891.709 235.883 895.157 240.345 897.3 245.364C899.163 249.729 896.057 254.179 891.772 254.18C890.418 254.181 888.012 252.397 887.883 251.23C887.16 244.705 885.197 239.166 878.367 236.217C879.471 234.739 880.353 233.558 881.409 232.144C876.311 227.7 873.568 235.333 868.985 233.948C868.495 231.816 867.957 229.475 867.248 226.389C864.44 229.06 861.877 231.042 859.99 233.535C859.321 234.421 859.756 237.252 860.651 237.938C861.842 238.852 863.994 238.807 865.698 238.685C867.993 238.52 870.658 236.932 872.437 237.682C875.117 238.81 875.764 241.332 872.484 243.369C866.061 247.356 865.182 250.272 870.601 255.808C876.151 261.476 874.822 268.87 877.261 275.242C877.59 276.101 877.025 277.557 876.445 278.46C874.48 281.517 871.475 283.631 871.489 288.206C871.495 290.388 867.161 292.345 865.372 294.821C862.159 299.269 858.388 300.492 852.78 300.504C848.711 300.513 844.651 304.261 840.205 306.537C839.587 305.591 838.621 304.112 837.412 302.262C836.236 304.112 835.568 305.725 834.427 306.861C828.901 312.359 828.764 314.547 835.068 319.649C842.201 325.421 844.96 332.873 841.453 340.945C839.244 346.033 834.036 349.817 829.626 354.806C826.501 350.163 831.523 340.916 821.763 344.067C821.357 343.472 821.103 343.183 820.943 342.85C819.926 340.719 819.078 338.48 817.787 336.534C817.558 336.188 814.524 336.926 814.467 337.375C814.167 339.752 814.191 342.223 814.496 344.611C815.412 351.773 821.351 355.547 825.676 360.283C830.07 365.096 828.665 370.555 828.173 375.857C828.116 376.472 824.029 376.712 821.81 377.127C821.161 376.785 820.512 376.442 819.863 376.1L819.865 376.104ZM592.574 206.42C590.727 204.065 589.168 202.077 586.836 199.106C585.969 201.915 585.521 203.697 584.863 205.397C584.313 206.818 583.749 209.135 582.794 209.358C574.239 211.363 577.886 218.706 574.663 224.911C583.501 222.984 590.57 221.354 597.689 219.985C598.778 219.776 600.087 220.817 601.316 221.211C605.778 222.641 610.197 224.267 614.749 225.31C616.051 225.609 618.793 224.443 619.03 223.491C619.434 221.865 618.988 219.149 617.824 218.177C614.086 215.054 610.052 212.133 605.722 209.945C603.971 209.06 601.147 210.179 598.837 210.55C595.484 211.088 592.156 211.775 588.817 212.4C588.377 211.52 587.938 210.641 587.499 209.762C589.069 208.728 590.639 207.694 592.574 206.42H592.574ZM655.357 202.257C654.938 201.804 654.518 201.352 654.098 200.899C652.095 200.899 649.748 200.222 648.156 201.032C644.165 203.062 639.912 205.217 636.995 208.438C635.634 209.94 636.236 214.521 637.52 216.834C639.898 221.117 643.433 224.757 646.593 228.801C641.109 236.364 641.246 238.309 649.077 242.781C650.741 243.731 653.839 243.281 655.711 242.345C656.85 241.775 657.583 238.93 657.316 237.302C656.692 233.51 655.334 229.841 654.324 226.108C654.191 225.618 654.352 225.049 654.399 224.064C655.951 224.699 657.219 225.219 658.591 225.781C658.676 225.034 656.806 223.812 652.98 222.115C652.76 220.837 652.506 219.358 652.255 217.904C645.606 217.156 644.544 214.988 648.503 209.521C650.439 206.847 653.051 204.663 655.356 202.257L655.357 202.257ZM677.059 212.299C680.483 213.751 682.314 214.876 684.295 215.293C687.972 216.068 687.758 213.266 687.61 210.972C687.475 208.889 686.989 206.829 686.685 204.754C686.601 204.181 686.753 203.146 686.557 203.084C685.046 202.608 682.363 201.647 682.101 202.08C680.188 205.24 678.758 208.692 677.059 212.299ZM596.546 204.312C596.689 204.924 596.832 205.536 596.974 206.148C598.937 206.662 600.899 207.177 602.313 207.549C605.005 204.725 607.247 202.374 609.488 200.022C609.281 199.757 609.075 199.491 608.868 199.226C604.76 200.921 600.654 202.617 596.546 204.312Z" fill="black" style="mix-blend-mode:multiply"/>
<path d="M224.107 90.151C224.795 85.4264 228.138 82.5003 231.902 80.6205C232.932 80.1062 236.764 82.7162 237.483 84.5929C238.909 88.3105 239.062 92.5157 239.9 97.4519C243.146 95.2996 245.89 90.5411 246.956 97.0976C247.287 99.1305 247.007 101.263 248.169 103.771C250.338 99.9243 252.027 95.6516 254.893 92.4251C256.183 90.9729 260.177 90.7485 262.269 91.6082C263.607 92.1576 263.973 95.6774 264.262 97.9311C264.419 99.1513 263.464 100.499 263.075 101.808C262.427 103.983 262.449 107.372 261.07 108.084C258.824 109.243 255.678 108.709 252.91 108.787C251.645 108.822 249.301 108.368 249.261 108.547C247.69 115.48 243.053 111.821 240.093 111.246C241.243 113.331 243.846 116.026 243.277 117.499C242.453 119.636 239.044 120.617 237.254 122.567C230.423 130.007 219.534 133.932 216.805 144.943C217.321 144.94 217.837 144.937 218.353 144.934C219.65 147.334 221.553 149.605 222.095 152.165C222.812 155.557 224.401 155.824 227.409 155.9C229.793 155.96 232.392 157.294 234.447 158.713C239.031 161.878 243.019 166.176 249.619 165.021C251.885 170.772 245.277 177.339 251.034 182.672C257.913 182.519 260.016 178.806 259.324 172.451C258.942 168.942 259.41 165.848 263.37 163.569C264.863 162.709 264.67 158.014 264.366 155.162C263.959 151.334 260.958 147.481 266.174 144.398C267.097 143.852 266.579 140.865 266.724 139.005C266.931 136.334 266.677 133.519 267.452 131.023C268.58 127.393 270.744 125.145 274.782 128.393C275.703 129.134 277.323 128.943 278.555 129.374C281.126 130.272 283.823 131.006 286.151 132.354C288.544 133.739 290.56 135.775 291.22 137.651C291.74 141.429 290.957 147.359 293.013 148.605C300.77 153.306 301.691 143.911 305.837 140.539C308.595 144.909 310.906 149.212 313.86 153.018C315.714 155.409 310.226 157.024 314.063 159.903C316.032 161.382 317.22 164.088 320.172 165.053C321.227 165.398 321.697 167.531 322.982 169.825C326.394 170.89 329.246 177.113 327.044 181.47C326.806 181.941 326.33 182.567 325.897 182.625C316.774 183.851 309.039 190.511 298.712 188.238C294.94 187.408 290.007 191.852 285.98 194.842C290.866 195.305 294.303 187.581 299.817 193.268C297.209 198.939 298.467 201.165 304.712 203.087C306.515 203.641 308.047 205.079 309.704 206.113C308.115 207.346 306.568 208.637 304.929 209.799C302.405 211.589 299.959 213.578 297.207 214.923C295.553 215.73 293.38 215.473 291.44 215.696C291.237 214.976 291.034 214.256 290.831 213.535L300.73 205.29C300.327 204.717 299.923 204.144 299.52 203.572C297.538 204.957 295.499 206.268 293.587 207.743C290.384 210.215 287.616 213.678 284.023 215.113C278.742 217.223 276.09 219.649 278.638 224.398C274.213 226.866 270.16 228.961 266.308 231.375C265.125 232.118 264.356 233.662 263.634 234.969C262.309 237.368 261.16 239.864 259.403 243.392C260.629 251.355 260.548 251.511 251.768 256.327C240.107 262.723 238.752 265.878 241.458 279.282C242.5 284.44 243.183 289.671 244.244 296.185C235.88 292.144 233.408 286.785 233.809 279.763C233.862 278.835 233.968 277.792 233.626 276.98C231.651 272.29 218.113 269.058 214.585 272.588C213.7 273.474 214.002 275.546 213.501 278.692C210.285 276.952 207.532 275.463 204.294 273.711C204.379 273.565 203.669 274.787 202.738 276.391C201.416 275.458 200.084 274.519 198.758 273.576C198.415 273.695 197.937 273.71 197.737 273.954C192.748 280.036 185.121 284.739 185.24 293.689C185.324 299.998 186.102 306.563 188.189 312.439C188.935 314.539 194.515 316.037 197.746 315.807C200.624 315.602 204.523 313.252 205.803 310.743C208.005 306.423 210.658 304.209 215.307 304.621C218.362 304.892 219.728 306.642 218.825 309.879C217.322 315.274 215.953 320.707 214.73 325.356C220.436 326.491 224.823 327.363 229.554 328.303C228.629 333.024 227.721 336.568 227.273 340.169C226.291 348.069 230.627 351.313 238.472 350.279C241.559 349.872 245.054 352.562 248.92 354.056C249.96 347.132 256.821 344.113 262.353 340.281C264.383 338.876 269.529 339.618 271.777 341.325C278.307 346.283 284.553 349.547 292.767 345.497C294.316 344.734 296.564 345.388 297.584 346.698C300.11 349.679 302.492 352.798 305.202 355.602C307.935 358.429 310.992 360.943 314.023 363.698C319.418 358.37 323.214 364.198 326.791 367.176C334.745 373.796 336.08 379.951 332.791 386.144C335.133 386.789 337.594 387.554 340.101 388.11C341.1 388.331 342.216 388.19 343.254 388.04C347.579 387.414 350.877 388.511 354.335 391.697C356.737 393.91 361.184 393.819 364.631 395.009C368.054 396.19 371.783 397.115 374.634 399.179C378.85 402.23 383.874 405.478 384.24 411.195C384.448 414.459 382.696 418.164 380.956 421.167C378.054 426.174 374.425 430.758 371.184 435.576C370.79 436.162 370.629 437.165 370.82 437.845C373.889 448.741 367.68 458.111 365.407 468.044C364.88 470.345 359.609 472.204 356.215 473.083C346.816 475.517 344.205 479.78 342.102 489.39C340.866 495.043 339.433 502.006 333.209 505.634C332.436 506.085 332.144 507.327 331.569 508.161C329.261 511.507 327.499 515.628 324.387 517.87C322.579 519.173 318.591 517.45 315.641 517.095C316.236 521.234 323.403 525.235 318.398 529.9C314.885 533.174 309.216 534.136 304.074 536.315C303.274 543.12 300.477 545.451 295.684 543.309C295.511 543.613 295.11 544.049 295.199 544.204C299.447 551.602 298.726 556.961 292.031 562.667C288.988 565.261 288.751 566.5 292.547 568.353C293.842 568.985 295.276 571.41 295.03 572.711C294.416 575.965 293.16 579.188 291.652 582.165C287.93 589.515 287.815 589.456 288.659 595.659C293.434 598.43 297.53 600.807 302.183 603.506C291.883 608.51 287.753 607.239 286.962 599.049C286.146 600.537 285.571 601.586 284.4 603.724C279.276 597.526 274.558 591.869 269.912 586.151C269.059 585.101 267.7 583.603 267.941 582.662C269.482 576.644 265.96 570.536 268.757 564.457C270.434 560.813 271.063 556.595 267.074 553.388C266.483 552.913 266.168 551.859 266.075 551.033C265.448 545.469 264.671 539.904 264.461 534.319C264.366 531.771 265.237 529.11 266.048 526.623C267.732 521.457 270.016 516.568 267.044 510.91C266.016 508.953 266.51 505.919 266.975 503.505C268.415 496.038 271.157 488.683 271.551 481.188C271.992 472.805 270.908 464.229 269.438 455.923C268.961 453.228 265.599 449.986 262.825 448.95C253.903 445.616 250.043 438.527 246.733 430.496C243.954 423.757 240.749 417.183 237.452 410.677C236.629 409.052 233.564 407.985 233.551 406.642C233.521 403.537 234.729 400.421 235.804 395.68C233.402 391.129 234.182 386.497 239.556 381.155C247.263 373.495 248.467 365.725 243.285 357.878C242.54 356.751 242.3 355.29 240.896 354.249C238.911 359.981 236.928 360.195 233.23 357.656C229.439 355.054 224.451 354.055 220.993 351.156C218.451 349.025 217.179 345.087 215.97 341.729C214.24 336.923 210.297 335.805 206.133 334.483C203.713 333.715 201.057 332.68 199.336 330.944C196.256 327.836 193.511 325.644 188.691 327.285C186.758 327.943 183.838 327.289 181.951 326.211C174.504 321.958 167.248 317.361 160.038 312.71C159.151 312.138 158.355 310.355 158.557 309.34C159.655 303.805 156.102 300.388 153.417 296.374C148.678 289.292 142.668 282.983 140.583 274.216C139.996 271.747 137.101 269.828 135.264 267.657C134.653 268.011 134.041 268.366 133.43 268.721C138.96 279.213 144.491 289.706 150.409 300.934C143.804 302.198 140.923 298.067 140.31 294.808C139.181 288.812 135.812 285.696 130.053 283.656C133.706 278.878 132.287 275.34 128.664 272.229C128.235 271.86 127.743 271.329 127.669 270.817C126.628 263.615 125.467 256.523 117.015 254.035C117.981 250.01 110.549 248.12 114.266 243.305C114.484 243.023 113.894 241.732 113.363 241.313C105.432 235.061 109.931 227.193 110.907 220.05C111.655 214.577 113.931 209.322 115.363 203.926C115.723 202.565 115.9 200.859 115.402 199.616C112.367 192.049 110.937 184.12 109.625 176.143C109.521 175.514 108.943 174.858 108.416 174.42C104.939 171.532 102.757 168.262 104.752 164.435C102.192 161.326 100.045 158.635 97.8033 156.026C96.4926 154.5 95.2554 152.719 93.5827 151.742C91.1589 150.327 87.7686 150.166 85.8649 148.346C82.0444 144.694 78.5023 141.481 72.647 142.548C71.785 142.705 70.699 140.474 69.4861 140.106C67.0173 139.356 64.2693 133.767 61.849 140.879C60.8038 143.951 56.8993 146.27 53.8911 148.348C52.6678 149.192 50.3736 148.487 48.5667 148.487C48.2393 147.884 47.9117 147.282 47.5844 146.679C50.4052 143.526 53.2264 140.372 56.2867 136.951C55.5118 136.797 54.2434 136.15 53.2064 136.414C50.4179 137.122 42.0279 148.67 41.9427 151.696C41.9245 152.347 42.7368 153.029 42.7033 153.673C42.5934 155.781 42.4785 157.942 41.8736 159.933C41.7329 160.396 38.6688 160.565 38.6091 160.367C38.0763 158.607 37.9163 156.733 37.5662 154.347C34.9709 156.437 32.2804 159.22 29.0551 161.072C22.4989 164.837 15.7685 168.359 8.85424 171.4C6.91661 172.251 4.08574 171.072 0 170.654C9.84387 161.926 24.0364 162.85 30.0559 149.456C25.4871 150.004 22.504 150.97 19.7155 150.572C13.4176 149.673 18.9483 145.885 18.279 143.527C12.157 143.979 11.7734 143.463 12.4392 138.016C12.5865 136.813 10.9538 135.392 10.5135 134.677C12.5868 131.788 13.9146 128.636 16.2863 126.992C18.7444 125.287 22.3355 125.319 25.2022 124.068C27.2482 123.174 28.9159 121.415 30.4642 118.928C21.5629 125.091 17.3025 120.077 13.8903 112.695C19.7818 105.074 28.8199 110.52 37.4841 108.145C35.5268 107.191 34.5642 106.558 33.5071 106.241C31.6543 105.686 29.335 105.847 27.9498 104.763C25.73 103.027 24.1127 100.52 22.241 98.339C24.5838 97.5101 26.8781 96.2198 29.2818 95.9669C32.4434 95.6338 35.1467 95.3601 35.7138 91.5084C35.8221 90.7716 36.1421 89.6706 36.663 89.4524C40.8929 87.6836 45.1598 85.9893 49.488 84.4792C51.4334 83.8007 53.5314 83.5084 55.5843 83.2097C56.6923 83.0485 58.7162 82.9302 58.8597 83.3257C61.0363 89.3171 64.0464 85.5363 67.2085 83.6137C69.6627 89.6741 74.4802 87.2557 78.9028 87.5788C90.593 88.4335 102.032 90.8029 112.706 96.0093C113.905 96.5941 115.246 96.8887 116.469 97.3004C121.182 89.8688 127.205 86.3189 132.171 88.5526C130.599 89.7057 129.296 90.6618 127.993 91.6182C128.157 91.9409 128.322 92.2636 128.487 92.5863C130.219 91.6857 132.157 91.0319 133.622 89.8098C134.881 88.76 135.598 87.0618 136.979 85.0255C140.271 91.7308 145.39 91.7169 151.016 90.3248C151.882 90.1105 152.925 90.4559 153.854 90.6756C159.658 92.0485 165.425 93.5871 171.259 94.813C175.293 95.6608 176.063 96.4839 175.673 102.146C182.286 94.4426 185.107 103.956 189.926 104.871C191.577 96.6288 193.192 95.9769 199.956 100.337C203.876 102.863 211.597 102.238 215.633 99.2041C218.487 97.0587 221.272 96.3856 223.847 101.976C225.87 98.9794 228.185 96.923 228.458 94.623C228.62 93.2702 225.539 91.5315 223.917 89.9659L224.108 90.1517L224.107 90.151Z" fill="black" style="mix-blend-mode:multiply"/>
<path d="M430.657 83.1388C427.072 94.4661 417.881 100.241 406.407 98.0954C401.714 97.2176 399.655 99.7177 399.2 103.562C398.698 107.784 396.263 109.213 392.641 109.71C389.545 110.135 386.452 110.673 383.339 110.88C379.032 111.168 377.501 112.889 376.427 117.528C374.764 124.71 371.215 131.524 367.86 138.189C367.186 139.528 362.705 140.702 361.854 139.918C356.103 134.617 347.818 131.537 347.166 121.593C346.837 116.565 343.55 111.791 342.099 106.759C340.908 102.627 341.187 98.7176 345.683 96.0587C347.573 94.9407 348.767 92.6484 350.279 90.8896C348.516 89.5172 346.767 88.1262 344.982 86.7831C344.399 86.3447 343.723 86.0313 342.401 85.2587C344.584 84.0181 346.303 83.042 348.022 82.0655C348.07 81.508 348.119 80.9502 348.168 80.3927C346.314 80.1949 344.46 79.9972 342.651 79.8036C340.866 73.5015 339.479 66.6778 336.979 60.2905C334.177 53.1333 331.394 52.116 323.694 52.9788C317.494 53.6735 311.125 54.9368 305.832 50.0569C305.075 49.3591 304.574 48.3837 303.517 46.9392C307.285 46.4399 310.312 46.0386 313.34 45.6373C313.349 44.889 313.358 44.1407 313.367 43.392C311.171 43.1819 308.977 42.966 306.78 42.7632C304.331 42.5373 301.881 42.3241 299.431 42.1052C301.412 40.7751 303.33 39.3367 305.387 38.137C310.017 35.4368 314.716 32.855 320.122 29.8109C319.191 24.8724 321.656 21.8796 328.001 22.1055C329.261 22.1503 331.201 20.8742 331.762 19.6983C334.215 14.5644 339.317 13.7941 343.773 12.5254C345.917 11.9147 348.736 13.6727 351.523 14.4325C353.988 11.4471 356.541 11.4097 358.102 14.6866C358.723 15.9893 359.997 16.9808 360.973 18.1142C361.534 16.6793 362.103 15.2471 362.651 13.8076C362.847 13.2941 362.994 12.7617 363.48 11.2589C367.209 12.1876 370.872 13.099 374.97 14.1195C375.179 12.1726 375.459 9.55956 375.744 6.89947C376.487 6.7337 377.203 6.32582 377.551 6.53361C382.931 9.75386 386.476 8.47008 391.482 4.20237C397.262 -0.726502 405.735 -0.474758 413.434 0.743485C414.451 0.904247 415.264 2.34763 417.049 4.01886C412.92 5.35585 409.777 6.37362 406.633 7.39178C406.667 7.86635 406.702 8.34093 406.736 8.81589C415.638 8.57147 424.798 0.706089 433.465 7.40026C433.49 8.02018 433.515 8.64009 433.54 9.26001C429.414 9.92657 425.288 10.5931 421.543 11.1984C422.495 13.2004 423.52 15.3539 424.709 17.8548C427.304 16.6123 430.307 15.175 433.31 13.7374C433.763 14.1573 434.217 14.5775 434.671 14.9969C433.163 17.4947 431.655 19.9925 429.346 23.8169C431.793 22.6437 433.342 22.3326 434.245 21.3973C439.635 15.8142 446.74 15.3346 453.726 14.9634C455.919 14.847 458.206 16.5039 460.449 17.349C458.779 18.9601 457.379 21.2905 455.385 22.0419C450.314 23.9526 444.976 25.1569 439.216 26.7942C440.868 27.7461 442.245 28.5403 444.575 29.8826C441.549 31.9999 438.914 33.5297 436.697 35.5243C435.566 36.5433 435.183 38.3949 434.461 39.8703C435.798 40.2697 437.191 40.543 438.459 41.0986C440.324 41.9163 442.101 42.9356 443.915 43.8689C443.005 45.4249 442.425 47.381 441.119 48.457C438.068 50.9717 438.257 53.2185 442.053 55.113C442.914 55.5428 443.706 56.1123 446.113 57.5888C440.969 62.1133 436.293 66.2256 431.664 70.2967C429.734 69.654 427.957 69.0619 426.179 68.4697C425.712 68.942 425.246 69.4142 424.779 69.8865C425.935 71.087 427.137 72.247 428.236 73.4973C430.132 75.6523 432.059 77.7989 433.662 80.1606C433.808 80.3765 431.707 82.1179 430.649 83.1522C428.516 82.074 426.331 81.0859 424.265 79.8931C421.163 78.1023 418.959 78.3059 417.361 83.9106C422.318 83.623 426.489 83.3812 430.659 83.1395L430.657 83.1388Z" fill="black" style="mix-blend-mode:multiply"/>
<path d="M951.477 420.715C952.251 423.306 952.934 425.235 953.393 427.216C953.954 429.638 953.526 432.801 954.934 434.416C958.918 438.989 960.983 443.963 960.578 449.939C960.343 453.413 961.014 456.134 964.89 457.085C965.604 457.26 966.487 457.672 966.839 458.251C970.75 464.671 974.635 471.109 978.352 477.642C978.955 478.704 978.918 480.27 978.809 481.572C978.304 487.601 977.694 493.623 977.062 499.64C976.943 500.774 976.861 502.113 976.228 502.957C972.891 507.41 969.273 511.654 965.981 516.138C964.237 518.512 962.981 521.241 961.455 523.779C960.86 524.77 960.289 525.87 959.431 526.591C951.693 533.089 936.464 533.471 928.865 527.2C927.748 526.278 926.679 523.934 927.083 522.764C929.076 516.994 926.068 516.242 920.977 516.732C922.116 514.455 923.094 512.501 924.722 509.248C921.218 512.227 918.754 514.32 915.723 516.897C915.063 515.115 914.646 514.311 914.469 513.458C912.896 505.862 904.613 501.9 897.405 505.082C895.191 506.059 892.58 506.096 890.204 506.755C887.847 507.41 884.361 507.623 883.449 509.218C879.848 515.523 874.26 514.637 868.594 514.73C865.922 514.774 863.268 515.936 860.606 516.592C860.639 517.155 860.672 517.717 860.704 518.28C858.936 517.544 857.064 516.987 855.419 516.038C850.724 513.331 850.482 510.794 854.027 506.718C855.023 505.573 856.058 503.778 855.885 502.434C855.451 499.053 855.136 495.227 853.339 492.537C848.968 485.994 851.681 478.765 850.393 471.976C849.732 468.494 850.307 465.009 855.459 465.746C855.824 465.798 856.418 465.743 856.577 465.513C861.327 458.588 869.935 459.733 876.075 456.04C879.499 453.98 881.451 449.47 884.804 445.103C886.852 443.372 890.575 441.091 893.118 437.876C897.17 432.75 898.406 432.217 902.451 436.905C904.693 439.505 906.434 438.965 906.75 436.086C907.37 430.449 910.407 428.374 916.596 429.031C915.108 427.012 914.166 425.734 912.491 423.462C915.137 423.462 916.801 423.158 918.305 423.521C922.183 424.456 925.951 425.856 929.838 426.746C933.215 427.519 932.799 429.253 931.391 431.371C930.054 433.38 928.57 435.292 926.854 437.656C931.204 440.83 934.968 443.757 938.951 446.349C939.876 446.951 942.432 446.871 942.719 446.317C944.094 443.667 945.841 440.732 945.798 437.924C945.709 432.167 944.883 426.501 951.477 420.715Z" fill="black" style="mix-blend-mode:multiply"/>
<path d="M298.414 123.626C299.783 125.723 301.152 127.819 303.225 130.992C300.786 130.992 299.044 131.509 297.93 130.893C294.869 129.199 291.823 127.307 289.227 124.983C285.161 121.344 281.769 116.753 275.301 121.026C274.55 121.522 271.795 118.982 269.97 117.851C271.219 116.009 272.161 113.783 273.821 112.456C275.028 111.49 277.19 111.741 278.917 111.401C284.453 110.311 288.053 106.249 287.764 101.456C287.51 97.2603 285.833 96.1925 278.591 95.8667C278.591 94.8011 279.009 93.4391 278.509 92.6889C277.206 90.7343 274.221 87.4223 274.138 87.4874C267.609 92.626 260.658 84.1083 254.009 88.201C252.184 89.3248 248.475 89.0777 249.781 84.5633C249.952 83.9707 249.362 82.7556 248.78 82.4105C243.42 79.2346 246.026 74.6808 247.372 71.0816C248.936 66.901 252.276 64.0952 257.704 66.0409C256.956 68.9308 256.271 71.5766 255.586 74.2225C256.062 74.4472 256.537 74.672 257.013 74.8967C259.977 69.8468 260.93 61.6425 269.729 65.2838C275.564 67.6979 268.706 71.0897 269.45 73.0798C273.127 71.9047 276.475 70.5527 279.953 69.7901C284.916 68.7018 285.964 72.6264 287.63 76.0386C288.391 77.5985 290.281 78.8186 291.926 79.6841C294.156 80.8565 296.648 81.5254 299.018 82.436C306.59 85.3459 307.43 87.9597 301.907 95.5637C305.176 97.3521 308.332 99.0311 311.441 100.794C313.91 102.194 318.51 104.013 318.353 105.095C317.862 108.492 315.695 111.704 313.806 114.759C313.592 115.106 310.671 114.398 309.63 113.475C307.912 111.953 306.946 109.548 305.167 108.145C304.419 107.555 302.405 108.571 300.966 108.857C301.337 110.371 301.248 112.318 302.179 113.303C303.833 115.052 307.358 115.891 307.831 117.704C308.584 120.587 307.475 123.956 306.996 128.664C303.433 126.121 301.24 124.556 299.047 122.99C298.836 123.202 298.625 123.414 298.414 123.626Z" fill="black" style="mix-blend-mode:multiply"/>
<path d="M285.219 22.8024C275.43 24.3129 263.911 32.7955 258.46 17.5374C261.759 15.7412 264.618 13.7018 267.804 12.6444C269.491 12.0842 271.731 13.4142 273.744 13.5557C275.772 13.6984 278.988 14.2038 279.666 13.1945C282.14 9.51317 285.27 9.72135 288.899 10.0194C290.535 10.1535 292.255 9.26258 294.581 8.67428C295.437 9.47423 296.979 10.9141 298.891 12.6999C302.146 6.58244 307.55 7.36968 312.865 7.75095C317.135 8.05744 321.483 7.87008 325.662 8.63611C327.784 9.02548 329.61 11.0352 331.57 12.3128C329.991 13.4389 328.556 15.1275 326.804 15.5735C323.25 16.4795 319.525 16.7131 315.865 17.2243C317.902 25.9209 310.863 32.5638 302.093 30.8047C300.024 30.3898 297.063 31.5453 295.317 32.9663C290.964 36.5065 287.074 40.6154 282.761 44.7219C284.823 47.973 283.623 52.3252 278.208 52.9532C271.328 53.7512 264.22 53.5002 257.324 52.7072C255.15 52.457 253.343 49.0101 252.274 47.9368C256.951 45.0631 260.295 42.405 264.086 40.8105C270.799 37.9877 264.777 32.9971 266.575 28.5544C268.79 29.3987 270.809 30.1686 271.745 30.5256C274.36 28.9283 276.234 27.446 278.359 26.5771C280.602 25.6595 283.084 25.3264 285.462 24.7381C285.381 24.0931 285.299 23.4478 285.218 22.8024H285.219Z" fill="black" style="mix-blend-mode:multiply"/>
<path d="M176.217 73.2368C179.551 72.4419 182.671 67.8673 186.324 72.662C190.953 69.0659 192.031 74.1624 195.254 77.0839C193.693 69.1703 201.053 69.3908 203.748 65.5156C204.048 65.0842 206.576 66.2026 206.913 66.2928C205.306 70.3612 202.491 73.994 203.083 76.9413C203.713 80.0724 207.574 82.554 210.353 85.6906C209.509 86.0164 208.293 86.4852 207.075 86.9548C208.687 94.0263 208.463 94.2291 200.874 94.472C195.025 94.659 189.073 95.8657 183.366 95.1085C177.444 94.3224 171.764 91.7194 165.978 89.9109C165.948 89.0443 165.917 88.178 165.887 87.3117C168.998 86.3449 172.108 85.3784 175.219 84.4119C175.225 84.1848 175.231 83.9577 175.237 83.731C173.157 83.731 171.008 84.0529 169.021 83.6231C167.581 83.3116 166.357 82.0043 165.036 81.1407C166.224 80.1981 167.37 79.1946 168.609 78.3257C171.103 76.5773 173.648 74.9026 176.17 73.1979C176.167 73.1986 176.217 73.2376 176.217 73.2376V73.2368Z" fill="black" style="mix-blend-mode:multiply"/>
<path d="M856.982 395.606C852.182 398.316 848.524 396.957 846.134 391.51C844.92 388.745 842.782 386.388 841.539 383.631C840.829 382.055 840.688 379.952 841.094 378.28C841.251 377.634 843.798 377.814 844.958 377.12C848.586 374.95 852.435 372.941 855.524 370.129C859.554 366.461 862.94 362.085 866.992 357.581C869.86 358.736 873.383 360.154 878.063 362.038C876.58 364.238 875.607 366.464 873.963 367.947C870.94 370.674 869.957 372.905 873.438 376.115C874.405 377.006 874.653 379.718 874.053 381.076C872.093 385.514 869.682 389.765 867.255 393.979C866.16 395.88 864.887 398.529 863.197 398.981C861.741 399.37 859.581 397.125 856.982 395.606Z" fill="black" style="mix-blend-mode:multiply"/>
<path d="M921.863 397.658C926.736 394.281 930.771 391.153 935.164 388.654C936.386 387.959 938.751 388.89 940.448 389.484C946.331 391.539 952.152 393.774 958.081 394.964C959.684 397.025 961.378 399.024 962.868 401.163C964.974 404.186 968.661 406.129 968.08 411.029C967.909 412.465 971.822 414.298 973.72 416.1C974.909 417.23 975.829 418.642 976.87 419.927C975.216 420.541 973.585 421.601 971.904 421.685C966.796 421.942 963.765 418.803 961.194 414.764C958.039 409.808 955.914 409.742 952.573 414.326C950.132 417.675 947.683 418.993 943.755 416.331C942.234 415.3 939.867 415.515 937.885 415.167C936.661 414.952 935.435 414.746 934.21 414.537C934.551 413.344 934.514 411.557 935.297 411.059C939.391 408.455 937.253 405.67 935.105 403.96C932.47 401.861 929.059 400.719 925.948 399.239C924.625 398.61 923.211 398.172 921.864 397.658H921.863Z" fill="black" style="mix-blend-mode:multiply"/>
<path d="M655.048 437.214C653.87 440.682 652.704 443.678 651.837 446.757C649.756 454.146 646.163 461.062 645.808 469.01C645.54 474.993 641.111 478.202 635.915 480.225C635.228 480.493 634.109 479.958 633.303 479.564C629.311 477.609 627.183 467.086 629.874 463.471C631.948 460.684 633.929 458.461 631.634 454.009C628.572 448.069 632.578 443.63 639.654 440.954C642.488 439.882 644.252 435.759 646.286 432.873C647.56 431.065 648.432 428.973 649.484 427.009C650.727 428.939 652.066 430.815 653.179 432.817C653.986 434.265 654.493 435.88 655.048 437.214Z" fill="black" style="mix-blend-mode:multiply"/>
<path d="M485.525 155.219C486.764 157.676 487.708 159.695 488.78 161.643C491.02 165.714 492.045 170.51 496.451 173.309C497.379 173.899 497.899 176.839 497.265 177.88C494.685 182.118 491.316 185.125 485.618 185.043C482.412 184.997 479.181 186.718 474.323 188.113C476.648 184.596 478.09 182.416 478.719 181.465C478.544 177.62 478.42 174.865 478.275 171.667C480.053 170.877 481.892 170.06 484.169 169.047C480.401 165.83 476.995 162.921 473.616 160.036C476.477 154.667 476.105 153.842 469.704 151.739C470.285 150.387 470.848 149.073 471.83 146.786C472.857 148.791 473.401 149.853 474.32 151.646C478.068 141.642 482.196 150.519 486.322 150.911C486.005 152.624 485.688 154.338 485.525 155.22V155.219Z" fill="black" style="mix-blend-mode:multiply"/>
<path d="M819.865 376.103C820.514 376.446 821.163 376.788 821.812 377.131C823.346 380.829 824.869 384.531 826.416 388.223C827.605 391.062 828.763 392.427 831.541 389.244C832.19 388.501 835.355 389.953 835.977 390.09C834.885 394.393 834.352 397.092 833.492 399.683C832.883 401.516 832.215 404.137 830.87 404.688C829.568 405.222 826.716 404.082 825.664 402.776C819.486 395.107 812.247 388.3 809.293 378.167C808.231 374.521 803.077 372.064 799.78 369.077C798.441 367.863 797.071 366.683 795.716 365.488C796.465 364.718 797.337 363.211 797.941 363.31C800.012 363.653 802.213 364.208 803.959 365.319C809.361 368.756 814.577 372.487 819.865 376.103Z" fill="black" style="mix-blend-mode:multiply"/>
<path d="M680.21 50.0188C677.71 51.0682 676.142 51.626 674.664 52.3635C667.745 55.8174 660.463 58.7304 654.036 62.9426C643.981 69.5319 643.754 74.1924 651.783 82.3562C648.435 86.3768 642.614 85.5954 639.444 82.0852C633.513 75.5186 636.76 70.2983 640.174 64.2749C645.401 55.0502 654.069 52.7217 663.431 51.0609C665.794 50.6414 668.216 49.5145 670.181 48.1101C673.729 45.5737 676.529 46.0776 680.21 50.0184L680.21 50.0188Z" fill="black" style="mix-blend-mode:multiply"/>
<path d="M531.586 30.0723C534.73 28.482 536.699 26.7414 538.66 26.751C540.022 26.7576 541.36 29.184 542.731 30.5052C544.466 32.1768 546.011 34.1788 548.027 35.3909C550.493 36.8736 553.476 37.482 555.995 38.8961C556.884 39.3949 557.775 41.5056 557.403 42.2566C556.844 43.387 555.253 44.4753 553.962 44.6696C551.827 44.9911 549.582 44.5867 548.07 44.5189C546.62 42.5477 545.404 40.895 544.188 39.2426C542.835 41.3938 541.445 43.5231 540.145 45.7059C539.414 46.9338 538.833 48.2499 538.183 49.5268C536.956 48.7453 535.351 48.231 534.572 47.1315C532.291 43.9117 526.993 41.582 531.754 36.4033C528.365 37.2109 525.633 38.647 523.374 38.1069C522.011 37.7815 520.93 34.4564 520.591 32.3403C520.382 31.0415 521.588 29.2608 522.646 28.1663C522.975 27.8258 524.857 29.2438 526.098 29.4685C528.294 29.8668 530.544 29.9674 531.585 30.073L531.586 30.0723Z" fill="black" style="mix-blend-mode:multiply"/>
<path d="M176.217 73.237C176.217 73.237 176.167 73.1976 176.169 73.1973C170.678 75.4067 165.063 77.3628 159.732 79.9126C156.03 81.6833 152.888 84.3785 148.614 81.0306C145.017 78.2133 143.396 75.6923 147.989 72.479C148.146 72.3692 148.301 72.2246 148.394 72.0604C150.005 69.1956 151.108 65.808 153.372 63.6221C155.112 61.9412 158.312 61.7712 160.43 61.0723C164.395 62.5318 168.098 63.9417 171.835 65.2582C175.713 66.6249 177.634 68.9966 176.217 73.2373L176.217 73.237Z" fill="black" style="mix-blend-mode:multiply"/>
<path d="M935.146 233.882C934.418 236.147 932.792 238.446 933.32 240.023C936.261 248.806 927.476 254.179 918.439 250.69C918.529 252.119 918.61 253.403 918.663 254.234C916.374 254.776 914.052 256.035 912.109 255.6C909.867 255.097 907.959 253.1 904.542 250.855C908.752 248.353 912.387 246.193 916.022 244.033C916.348 244.452 916.675 244.871 917.001 245.29C917.584 243.509 918.168 241.727 918.728 240.02C925.196 240.08 927.016 237.489 926.571 229.507C926.48 227.878 926.496 226.115 927.05 224.634C927.324 223.901 928.995 223.212 929.919 223.34C930.775 223.458 931.81 224.553 932.184 225.458C933.335 228.245 934.207 231.146 935.146 233.882H935.146Z" fill="black" style="mix-blend-mode:multiply"/>
<path d="M439.455 122.958C435.233 121.821 431.372 120.782 427.179 119.653C427.626 118.253 428.279 116.214 429.049 113.808C426.61 114.05 424.805 114.228 422.997 114.407C422.35 107.369 423.648 106.679 430.418 107.521C435.044 108.095 439.858 107.104 444.592 106.884C447.345 106.756 450.856 104.037 452.119 109.197C453.224 113.716 452.426 117.275 447.873 119.314C444.981 120.609 442.058 121.834 439.455 122.958Z" fill="black" style="mix-blend-mode:multiply"/>
<path d="M250.271 46.5881C250.433 54.4353 255.828 55.4165 261.522 55.834C263.856 56.0051 266.223 55.8317 268.57 55.711C275.331 55.3636 276.303 56.5649 274.911 62.7132C267.508 62.7132 260.313 62.7329 253.118 62.7047C249.688 62.6912 239.21 55.103 239.042 51.7899C238.958 50.1186 240.928 47.4801 242.591 46.7997C244.722 45.928 247.48 46.5881 250.271 46.5881Z" fill="black" style="mix-blend-mode:multiply"/>
<path d="M894.367 376.512C894.519 377.557 895.003 380.311 894.911 380.33C890.444 381.272 885.928 381.978 881.157 382.752C881.266 383.174 881.734 384.968 882.294 387.122C884.108 386.558 885.699 386.062 889.388 384.914C887.747 388.66 886.691 391.07 885.407 393.998C886.085 395.138 887.549 396.692 887.922 398.475C888.331 400.423 887.73 402.583 887.57 404.65C885.777 403.377 883.828 402.265 882.279 400.745C881.741 400.217 882.193 398.679 882.193 397.233C881.363 397.783 880.901 397.917 880.817 398.174C880.196 400.074 879.652 401.999 879.084 403.916C878.146 403.433 876.534 403.106 876.381 402.442C875.508 398.657 870.01 396.05 873.5 391.134C875.158 388.797 877.777 386.312 877.846 383.835C878.037 376.987 881.49 377.649 886.291 378.605C888.32 379.009 890.724 377.529 894.367 376.512Z" fill="black" style="mix-blend-mode:multiply"/>
<path d="M1026.84 537.928C1028.75 539.111 1031.4 539.871 1032.09 541.475C1032.61 542.678 1030.88 545.186 1029.67 546.73C1025.37 552.192 1021.02 557.632 1016.35 562.778C1014.54 564.771 1011.59 567.435 1009.62 567.099C1007.57 566.748 1004.88 563.259 1004.67 560.939C1004.47 558.791 1006.68 555.734 1008.69 554.204C1013.49 550.549 1018.94 547.754 1023.8 544.175C1025.24 543.119 1025.6 540.606 1026.84 537.928Z" fill="black" style="mix-blend-mode:multiply"/>
<path d="M251.318 41.4359C249.285 39.3094 247.213 37.2179 245.232 35.0443C243.953 33.6414 241.52 31.7158 241.831 30.7196C242.99 27.0093 244.637 23.2297 247.073 20.2789C247.779 19.4223 252.101 20.666 254.134 21.9482C261.184 26.3948 262.263 29.4639 260.339 35.2437C259.002 39.2604 256.521 40.917 251.318 41.4363L251.318 41.4359Z" fill="black" style="mix-blend-mode:multiply"/>
<path d="M211.676 59.8315C201.442 61.3405 193.112 62.8024 184.722 63.6998C180.98 64.1 178.559 62.2156 180.49 57.9579C180.888 57.0812 182.134 55.9636 182.941 56.0006C188.054 56.2358 191.732 54.213 194.494 49.9318C195.012 49.1303 197.377 48.4942 198.02 48.966C202.518 52.2669 206.789 55.8792 211.676 59.8311L211.676 59.8315Z" fill="black" style="mix-blend-mode:multiply"/>
<path d="M315.025 200.294C313.88 192.803 316.221 189.057 324.917 184.294C325.538 186.117 326.121 187.833 326.698 189.526C333.353 190.859 335.921 197.334 332.236 204.725C330.028 201.436 324.394 205.222 322.945 199.591C322.842 199.19 317.994 200.01 315.025 200.294Z" fill="black" style="mix-blend-mode:multiply"/>
<path d="M1037.06 543.686C1034.28 543.243 1031.4 536.01 1034.96 531.862C1038.68 527.525 1038.04 524.204 1035.51 520.022C1034.7 518.694 1034.82 516.763 1034.75 515.098C1034.74 514.927 1036.91 514.265 1037.14 514.558C1038.12 515.813 1038.89 517.284 1039.49 518.776C1041.16 522.967 1043.1 526.804 1048.45 527.239C1049.89 531.374 1048.44 534.077 1044.75 536.417C1042.14 538.071 1040.15 540.694 1037.06 543.686L1037.06 543.686Z" fill="black" style="mix-blend-mode:multiply"/>
<path d="M862.161 414.892C856.875 412.845 851.412 419.152 845.818 412.91C844.314 411.231 839.785 412.538 836.809 411.806C834.883 411.332 833.256 409.645 831.494 408.502C833.145 407.113 834.862 404.475 836.433 404.56C841.794 404.849 847.187 405.764 852.403 407.092C856.095 408.032 859.519 410.024 863.062 411.547C862.761 412.662 862.461 413.777 862.161 414.892Z" fill="black" style="mix-blend-mode:multiply"/>
<path d="M469.076 163.046C474.006 163.096 476.53 163.78 474.905 168.149C474.513 169.204 474.29 170.437 474.407 171.544C474.825 175.514 473.888 176.955 469.333 178.479C462.573 180.739 459.217 183.586 461.328 172.946C461.995 169.582 460.266 167.282 465.094 166.66C466.812 166.439 468.227 163.865 469.076 163.046L469.076 163.046Z" fill="black" style="mix-blend-mode:multiply"/>
<path d="M211.779 70.003C213.277 70.9822 214.638 71.8712 217.024 73.4302C216.59 70.9644 216.101 69.5515 216.173 68.1679C216.233 67.0283 216.771 65.1007 217.422 64.9526C219.62 64.4519 221.986 64.3898 224.234 64.6446C224.698 64.697 225.05 66.8147 225.237 68.0144C225.552 70.0454 226.136 72.1811 225.794 74.13C225.4 76.3733 224.671 79.4235 223.069 80.3372C221.576 81.1884 217.824 80.4455 216.706 79.0708C214.668 76.5676 208.559 75.9723 211.779 70.0033L211.779 70.003Z" fill="black" style="mix-blend-mode:multiply"/>
<path d="M225.962 302.222C228.483 301.317 230.978 299.726 233.53 299.628C242.751 299.276 250.002 304.851 257.759 308.664C260.557 310.038 260.125 312.245 256.987 313.662C252.277 315.79 249.606 314.811 247.321 309.737C245.281 305.206 235.672 301.641 229.779 303.231C228.745 303.51 227.716 303.808 226.685 304.097C226.444 303.472 226.203 302.847 225.962 302.222L225.962 302.222Z" fill="black" style="mix-blend-mode:multiply"/>
<path d="M935.882 220.12C932.26 220.12 930.069 220.219 927.893 220.082C926.656 220.004 925.32 219.748 924.279 219.143C923.894 218.918 923.84 217.076 924.288 216.633C927.737 213.226 927.508 209.429 926.147 205.232C925.865 204.365 926.93 203.06 926.789 203.41C930.636 205.992 934.44 208.049 937.542 210.877C938.749 211.977 938.976 214.959 938.533 216.818C938.138 218.47 936.2 219.754 935.882 220.12Z" fill="black" style="mix-blend-mode:multiply"/>
<path d="M873.415 55.8747C880.72 45.0686 881.781 57.4658 886.412 56.7834C885.958 57.9527 885.785 58.9088 885.551 58.9238C879.741 59.3016 873.907 59.9153 868.12 59.6262C866.772 59.5587 865.229 56.4954 864.491 54.5404C864.204 53.781 865.974 51.2519 866.67 51.3055C868.565 51.4513 870.417 52.4791 872.213 53.3145C872.616 53.5015 872.719 54.3315 873.415 55.8743L873.415 55.8747Z" fill="black" style="mix-blend-mode:multiply"/>
<path d="M885.114 328.815C881.709 331.987 878.308 331.33 875.282 328.615C874.188 327.633 873.088 325.49 873.433 324.293C874.429 320.839 875.998 317.51 877.705 314.326C878.194 313.413 880.15 312.475 881.014 312.772C882.228 313.187 883.73 314.64 883.916 315.835C884.587 320.135 884.758 324.514 885.114 328.815Z" fill="black" style="mix-blend-mode:multiply"/>
<path d="M895.283 362.805C894.008 361.357 892.712 359.95 891.493 358.48C890.402 357.164 889.396 355.778 888.275 354.323C886.627 355.442 885.259 356.372 883.891 357.302C883.387 356.967 882.883 356.632 882.379 356.297C883.778 353.919 885.143 351.517 886.707 349.253C886.767 349.166 888.758 350.415 890.066 351.165C892.295 349.239 894.781 345.609 898.538 349.167C902.029 352.472 900.78 357.26 895.283 362.805Z" fill="black" style="mix-blend-mode:multiply"/>
<path d="M554.419 33.9856C551.171 33.1752 548.896 33.2863 547.942 32.2184C546.31 30.3918 545.504 27.8269 544.352 25.5716C546.451 25.0624 548.538 24.198 550.653 24.1209C554.465 23.9817 558.297 24.2655 562.115 24.4802C563.159 24.5388 564.182 24.9822 565.215 25.2486C564.941 26.2872 565.002 27.8516 564.337 28.2757C560.853 30.4955 557.186 32.4258 554.419 33.9856Z" fill="black" style="mix-blend-mode:multiply"/>
<path d="M166.017 57.3079C164.694 55.9928 163.111 54.4195 161.527 52.8462C163.125 51.527 164.553 49.8716 166.357 48.9579C170.171 47.0268 174.112 45.2777 178.157 43.9176C179.241 43.5533 182.032 44.8112 182.058 45.4111C182.133 47.1112 180.995 50.3928 180.663 50.3523C175.911 49.7748 173.863 53.4368 170.976 55.8799C170.052 56.661 168.456 56.6459 166.017 57.3075L166.017 57.3079Z" fill="black" style="mix-blend-mode:multiply"/>
<path d="M923.966 190.951C921.808 182.421 919.992 175.237 918.239 168.309C919.288 167.669 919.7 167.224 919.937 167.303C922.086 168.019 927.407 178.825 927.186 180.967C927.05 182.291 927.97 183.731 928.444 185.109C929.15 187.158 929.881 189.198 930.601 191.242C928.247 191.139 925.893 191.035 923.966 190.95V190.951Z" fill="black" style="mix-blend-mode:multiply"/>
<path d="M218.445 51.8534C219.749 51.3591 221.536 50.1023 223.25 50.1945C224.955 50.2862 227.942 51.6822 227.977 52.5967C228.057 54.722 227.34 57.8509 225.807 58.8895C220.295 62.6221 212.656 59.0302 211.709 52.5597C211.555 51.5076 212.621 50.277 213.123 49.1289C214.668 49.9196 216.213 50.7107 218.445 51.8534Z" fill="black" style="mix-blend-mode:multiply"/>
<path d="M257.137 316.234C259.116 316.009 261.095 315.784 262.538 315.621C263.454 313.787 263.884 311.207 265.298 310.439C268.574 308.661 275.029 312.769 278.642 318.342H257.258C257.218 317.639 257.177 316.936 257.137 316.233V316.234Z" fill="black" style="mix-blend-mode:multiply"/>
<path d="M951.819 542.168C950.15 550.69 947.547 553.644 942.398 552.35C938.008 551.247 938.316 547.756 939.211 544.407C940.36 540.101 944.1 539.485 951.819 542.168Z" fill="black" style="mix-blend-mode:multiply"/>
<path d="M230.273 78.2288C229.233 65.0467 234.164 61.6264 247.232 66.7365C241.208 70.8187 236.124 74.2637 230.273 78.2288Z" fill="black" style="mix-blend-mode:multiply"/>
<path d="M749.49 25.8371C747.632 26.3842 745.439 26.4771 743.975 27.5577C738.249 31.7873 735.265 28.8596 732.717 23.8698C735.919 21.8767 738.781 19.5104 742.069 18.3187C743.509 17.7964 746.262 19.2355 747.6 20.5918C748.781 21.7884 748.823 24.1081 749.369 25.932L749.49 25.8371Z" fill="black" style="mix-blend-mode:multiply"/>
<path d="M216.624 32.1557C219.836 34.4734 222.789 36.1512 225.089 38.4751C226.08 39.4771 225.72 41.8168 225.974 43.5485C223.629 43.6372 221.178 44.1766 218.971 43.6646C217.337 43.286 215.872 41.6822 214.605 40.3622C213.284 38.9863 212.291 37.2962 211.154 35.7433C212.728 34.7109 214.301 33.6792 216.624 32.1557Z" fill="black" style="mix-blend-mode:multiply"/>
<path d="M258.978 119.127C256.412 120.867 254.402 122.377 252.249 123.64C250.776 124.504 249.101 125.024 247.518 125.697C246.63 123.432 245.2 121.198 245.065 118.889C244.988 117.569 246.76 115.34 248.148 114.883C252.571 113.426 256.53 114.253 258.978 119.127Z" fill="black" style="mix-blend-mode:multiply"/>
<path d="M749.369 25.9321C755.331 25.7043 756.529 30.3475 758.721 34.8442C752.465 37.1843 747.779 34.8334 742.657 32.0168C745.33 29.5988 747.402 27.724 749.482 25.8431C749.49 25.8369 749.369 25.9321 749.369 25.9321Z" fill="black" style="mix-blend-mode:multiply"/>
<path d="M765.167 42.3181C762.617 39.9742 759.638 38.0817 759.903 37.3237C760.776 34.8279 763.156 30.7113 764.353 30.9071C767.153 31.3663 769.602 33.9689 772.194 35.7038C770.099 37.6753 768.004 39.6469 765.167 42.3181Z" fill="black" style="mix-blend-mode:multiply"/>
<path d="M747.535 346.725C754.292 350.265 755.149 354.336 754.402 358.714C754.161 360.126 752.289 361.916 750.865 362.244C749.89 362.47 747.423 360.558 747.319 359.444C746.969 355.687 747.376 351.859 747.535 346.725L747.535 346.725Z" fill="black" style="mix-blend-mode:multiply"/>
<path d="M241.91 39.4707C239.217 41.7256 237.345 44.361 236.088 44.095C234.2 43.6952 231.517 41.3096 231.453 39.6789C231.391 38.0982 233.995 35.5048 235.835 35.0673C237.128 34.7596 239.103 37.3203 241.91 39.4707Z" fill="black" style="mix-blend-mode:multiply"/>
<path d="M904.973 253.308C905.524 255.954 906.29 258.002 906.278 260.047C906.267 262.014 905.453 263.976 904.991 265.941C903.929 264.67 902.9 263.37 901.799 262.134C898.054 257.93 898.201 257.361 904.973 253.308Z" fill="black" style="mix-blend-mode:multiply"/>
<path d="M324.036 591.038C319.529 592.321 315.619 593.435 311.328 594.657V588.309C315.569 588.556 319.995 584.318 324.036 591.038Z" fill="black" style="mix-blend-mode:multiply"/>
<path d="M877.161 289.057C877.873 290.935 879.018 292.778 879.169 294.7C879.306 296.439 878.476 298.315 877.757 299.995C877.652 300.242 875.185 300.084 874.878 299.526C873.93 297.804 872.96 295.777 873.03 293.907C873.092 292.264 874.545 290.673 875.383 289.059C875.976 289.058 876.568 289.057 877.161 289.057Z" fill="black" style="mix-blend-mode:multiply"/>
<path d="M223.916 89.9657C223.005 91.4962 222.394 93.913 221.112 94.3479C219.225 94.9875 216.858 94.2133 214.696 94.0418C215.017 92.4288 214.838 89.9206 215.77 89.4001C217.403 88.488 219.72 88.6302 221.743 88.6726C222.537 88.6892 223.313 89.6256 224.102 90.1473C224.107 90.1515 223.916 89.9657 223.916 89.9657Z" fill="black" style="mix-blend-mode:multiply"/>
<path d="M890.434 54.7472C894.247 54.7472 897.306 54.482 900.281 54.8671C901.625 55.041 902.802 56.5075 904.055 57.388C902.92 58.2539 901.793 59.8415 900.649 59.8542C896.732 59.8974 892.386 60.2656 890.434 54.7472Z" fill="black" style="mix-blend-mode:multiply"/>
<path d="M200.674 38.1682C197.015 38.8822 193.356 39.5954 189.697 40.3094C189.311 39.6721 188.926 39.0352 188.54 38.398C190.698 36.7988 192.665 34.4641 195.075 33.84C196.914 33.3639 199.314 35.0563 201.464 35.7838C201.201 36.5787 200.938 37.3733 200.674 38.1682Z" fill="black" style="mix-blend-mode:multiply"/>
<path d="M877.565 341.667C875.539 345.913 873.513 350.158 870.963 355.502C869.459 351.982 870.951 347.076 875.438 340.785C876.147 341.079 876.856 341.373 877.565 341.667Z" fill="black" style="mix-blend-mode:multiply"/>
<path d="M979.897 396.968C980.97 403.364 978.8 406.629 974.496 406.063C973.433 405.923 972.213 404.894 971.662 403.932C971.43 403.527 972.584 402.023 973.4 401.402C974.406 400.636 975.785 400.38 976.874 399.698C977.771 399.136 978.479 398.274 979.897 396.968Z" fill="black" style="mix-blend-mode:multiply"/>
<path d="M842.824 308.62C846.368 312.256 845.014 315.181 842.383 317.576C841.725 318.175 838.756 317.683 838.495 317.031C836.881 313.011 839.056 310.558 842.824 308.62Z" fill="black" style="mix-blend-mode:multiply"/>
<path d="M991.249 84.0709C993.39 77.9951 996.012 75.8608 1000.3 77.3439C1001.09 77.6176 1001.21 79.8147 1001.64 81.1239C998.581 81.9925 995.518 82.8607 991.249 84.0712V84.0709Z" fill="black" style="mix-blend-mode:multiply"/>
<path d="M905.855 384.925C899.428 382.09 899.418 381.381 905.855 371.498V384.925Z" fill="black" style="mix-blend-mode:multiply"/>
<path d="M199.674 41.2344C199.647 48.1834 192.858 45.233 190.676 48.9991C189.645 44.5811 192.644 41.9928 199.674 41.2344Z" fill="black" style="mix-blend-mode:multiply"/>
<path d="M886.714 415.83C883.018 417.856 879.581 419.739 875.441 422.008C879.315 412.808 880.842 411.987 886.714 415.83Z" fill="black" style="mix-blend-mode:multiply"/>
<path d="M984.015 398.522C982.143 395.102 980.508 392.115 978.622 388.67C985.917 389.143 987.747 392.446 984.015 398.522Z" fill="black" style="mix-blend-mode:multiply"/>
<path d="M923.322 392.719C925.368 384.457 925.85 384.27 933.476 388.362C929.942 389.878 927.317 391.005 923.322 392.719Z" fill="black" style="mix-blend-mode:multiply"/>
<path d="M1015.28 461.304C1022.28 458.895 1024.19 460.318 1023.51 467.366C1020.63 465.246 1018.26 463.499 1015.28 461.304Z" fill="black" style="mix-blend-mode:multiply"/>
<path d="M232.718 63.5362C232.158 61.9594 230.771 60.0357 231.25 58.8957C231.823 57.5317 233.905 56.3061 235.499 56.0486C236.488 55.889 238.689 57.5822 238.748 58.5429C238.857 60.3028 237.784 62.136 237.204 63.9387C235.708 63.8045 234.213 63.6703 232.718 63.5362Z" fill="black" style="mix-blend-mode:multiply"/>
<path d="M231.21 25.7217C232.932 26.938 234.654 28.1543 236.376 29.371C234.991 30.3853 233.607 31.3996 232.222 32.4139C231.146 30.9177 230.069 29.4215 228.993 27.9253C229.732 27.1909 230.471 26.4565 231.21 25.7221L231.21 25.7217Z" fill="black" style="mix-blend-mode:multiply"/>
<path d="M892.356 337.942C889.395 336.581 887.139 335.544 884.882 334.508C885.648 333.415 886.305 331.495 887.198 331.378C890.559 330.938 892.6 332.5 892.356 337.941L892.356 337.942Z" fill="black" style="mix-blend-mode:multiply"/>
<path d="M346.949 92.5608C344.277 92.8807 341.605 93.2007 337.225 93.725C338.886 91.2735 339.578 89.1956 340.524 89.0718C342.637 88.7962 344.877 89.4959 347.065 89.7981C347.026 90.7188 346.988 91.6394 346.949 92.5604L346.949 92.5608Z" fill="black" style="mix-blend-mode:multiply"/>
<path d="M272.808 105.484C273.844 103.515 274.88 101.545 275.916 99.5762C276.904 100.214 278.806 101.291 278.743 101.423C277.815 103.352 276.625 105.154 275.497 106.987C274.601 106.486 273.704 105.985 272.808 105.484L272.808 105.484Z" fill="black" style="mix-blend-mode:multiply"/>
<path d="M519.174 234.09C517.387 227.66 517.551 227.264 523.082 226.991C522.377 229.747 521.746 232.215 521.114 234.683C520.468 234.485 519.821 234.288 519.174 234.09Z" fill="black" style="mix-blend-mode:multiply"/>
<path d="M877.937 332.684C879.742 334.19 881.548 335.696 883.353 337.203C883.238 337.651 883.123 338.101 883.009 338.549C881.197 338.549 878.98 339.18 877.698 338.357C876.603 337.654 876.583 335.279 876.087 333.644C876.704 333.324 877.321 333.004 877.937 332.684Z" fill="black" style="mix-blend-mode:multiply"/>
<path d="M252.966 319.705C250.516 319.705 248.064 319.754 245.625 319.589C245.469 319.579 245.425 317.909 245.329 317.011C247.838 316.888 250.347 316.765 252.855 316.642C252.892 317.663 252.929 318.684 252.966 319.705V319.705Z" fill="black" style="mix-blend-mode:multiply"/>
</svg>
